<svg width="1657" height="120" viewBox="0 0 1657 120" fill="none" xmlns="http://www.w3.org/2000/svg">
<g clip-path="url(#clip0_530_26431)">
<g opacity="0.5" filter="url(#filter0_d_530_26431)">
<path fill-rule="evenodd" clip-rule="evenodd" d="M1657 -51.5H0V39.797C43.9197 38.8471 92.3451 35.9481 144.747 32.8111C214.383 28.6424 291.04 24.0533 373.477 23.0593C514.515 21.3586 674.48 31.5402 820.872 40.8579C934.206 48.0715 1039.41 54.7673 1121.39 55.0309C1199.5 55.2821 1320.91 47.5992 1455.82 39.0623C1520.85 34.9467 1589.03 30.6326 1657 26.9133V-51.5Z" fill="black"/>
</g>
<path fill-rule="evenodd" clip-rule="evenodd" d="M1657 -60.5H0V30.797C43.9197 29.8471 92.3451 26.9481 144.747 23.8111C214.383 19.6424 291.04 15.0533 373.477 14.0593C514.515 12.3586 674.48 22.5402 820.872 31.8579C934.206 39.0715 1039.41 45.7673 1121.39 46.0309C1199.5 46.2821 1320.91 38.5992 1455.82 30.0623C1520.85 25.9467 1589.03 21.6326 1657 17.9133V-60.5Z" fill="#F8F4F0"/>
</g>
<defs>
<filter id="filter0_d_530_26431" x="-54" y="-91.5" width="1765" height="214.537" filterUnits="userSpaceOnUse" color-interpolation-filters="sRGB">
<feFlood flood-opacity="0" result="BackgroundImageFix"/>
<feColorMatrix in="SourceAlpha" type="matrix" values="0 0 0 0 0 0 0 0 0 0 0 0 0 0 0 0 0 0 127 0" result="hardAlpha"/>
<feOffset dy="14"/>
<feGaussianBlur stdDeviation="27"/>
<feComposite in2="hardAlpha" operator="out"/>
<feColorMatrix type="matrix" values="0 0 0 0 0 0 0 0 0 0 0 0 0 0 0 0 0 0 0.25 0"/>
<feBlend mode="normal" in2="BackgroundImageFix" result="effect1_dropShadow_530_26431"/>
<feBlend mode="normal" in="SourceGraphic" in2="effect1_dropShadow_530_26431" result="shape"/>
</filter>
<clipPath id="clip0_530_26431">
<rect width="1657" height="120" fill="white"/>
</clipPath>
</defs>
</svg>
