<svg width="455" height="488" viewBox="0 0 455 488" fill="none" xmlns="http://www.w3.org/2000/svg">
<g clip-path="url(#clip0_629_80)">
<path d="M223.29 146.201L223.314 145.628L222.832 145.318L204.406 133.47L204.406 133.47L154.078 101.139L152.538 100.15V101.981V129.378V129.924L152.997 130.219L198.414 159.393L198.414 159.393L220.636 173.664L222.103 174.606L222.175 172.865L223.29 146.201Z" fill="#A0270E" stroke="#A0270E" stroke-width="2"/>
<path d="M301.724 101.981V100.15L300.184 101.139L249.856 133.47L249.856 133.47L231.43 145.318L230.948 145.628L230.972 146.201L232.087 172.865L232.159 174.606L233.626 173.664L255.848 159.393L255.848 159.393L301.265 130.219L301.724 129.924V129.378V101.981Z" fill="#A0270E" stroke="#A0270E" stroke-width="2"/>
<path d="M212.028 95.7992L212.028 95.7992L154.304 58.7218L153.205 58.0157L152.81 59.2613C152.631 59.8264 152.538 60.427 152.538 61.0286V89.275C152.538 91.3085 153.562 93.175 155.272 94.2775L155.273 94.2785L205.117 126.297L222.686 137.583L224.166 138.534L224.226 136.776L225.317 104.734L225.341 104.01L224.662 103.761C224.278 103.62 223.899 103.423 223.516 103.179C223.515 103.179 223.514 103.179 223.514 103.178L212.028 95.7992Z" fill="#B44731" stroke="#B44731" stroke-width="2"/>
<path d="M301.452 59.2613L301.057 58.0157L299.958 58.7218L242.234 95.7992L242.234 95.7992L230.749 103.178C230.748 103.179 230.747 103.179 230.746 103.179C230.372 103.418 229.986 103.613 229.589 103.768L228.929 104.025L228.953 104.734L230.037 136.776L230.096 138.534L231.577 137.583L249.145 126.297L249.145 126.297L298.997 94.2785L299 94.2762C300.701 93.1735 301.725 91.3079 301.725 89.275V61.0286C301.725 60.427 301.631 59.8264 301.452 59.2613Z" fill="#B44731" stroke="#B44731" stroke-width="2"/>
<path d="M156.189 51.685L156.896 52.3921C156.189 51.685 156.189 51.6852 156.189 51.6855L156.188 51.6859L156.187 51.6869L156.186 51.6888L156.182 51.6927L156.174 51.7011C156.168 51.7069 156.162 51.7132 156.156 51.72C156.144 51.7335 156.13 51.7492 156.115 51.7671C156.086 51.8022 156.051 51.8497 156.015 51.9088C155.951 52.0169 155.85 52.2241 155.85 52.5012C155.85 52.6692 155.883 52.9036 156.032 53.1319C156.146 53.3081 156.29 53.4212 156.419 53.493L159.543 55.5014L159.544 55.5016L212.56 89.5548L212.561 89.5549L223.816 96.7802L225.318 97.7449L225.356 95.9595L226.073 61.6024L226.09 60.7788L225.285 60.6042C224.283 60.3871 223.311 59.9952 222.417 59.4223L222.17 59.2643H222.163L219.745 57.7085L219.744 57.7082L189.628 38.3636L189.627 38.3628L188.932 37.9147C188.931 37.9141 188.93 37.9136 188.929 37.913C188.1 37.3714 187.379 36.7128 186.786 35.9591L186.786 35.959L186.781 35.9528C186.618 35.7486 186.465 35.5334 186.314 35.304L185.813 34.5406L185.007 34.9703L175.436 40.0756L175.413 40.0877L175.391 40.101L160.855 48.846L160.855 48.8462L156.381 51.535L156.276 51.5982L156.189 51.685Z" fill="#B44731" stroke="#B44731" stroke-width="2"/>
<path d="M297.928 51.5606L297.908 51.5474L297.887 51.5352L293.422 48.8543L293.421 48.854L282.888 42.5218L282.861 42.5036L282.82 42.4764L282.777 42.4534L269.122 35.1657L268.314 34.7345L267.813 35.5017C267.707 35.6652 267.604 35.8118 267.495 35.9447L267.489 35.9521L267.483 35.9595C266.89 36.7135 266.169 37.3716 265.334 37.9126C265.333 37.9127 265.333 37.9129 265.333 37.913L264.634 38.3633L264.633 38.3641L234.517 57.7086L234.517 57.709L231.853 59.4227C231.852 59.4229 231.852 59.4231 231.852 59.4233C230.957 59.9959 229.986 60.3876 228.984 60.6047L228.179 60.7792L228.197 61.6029L228.914 95.9678L228.951 97.7542L230.454 96.7882L241.709 89.5552L241.709 89.5551L294.725 55.5021L294.726 55.5019L297.882 53.4729C297.885 53.4706 297.889 53.4682 297.893 53.4658C297.915 53.4519 297.939 53.4352 297.965 53.4155C298.016 53.3768 298.08 53.3216 298.144 53.247C298.275 53.0934 298.42 52.8398 298.42 52.5017C298.42 52.148 298.263 51.7843 297.928 51.5606Z" fill="#B44731" stroke="#B44731" stroke-width="2"/>
<path d="M262.34 33.2574L262.34 33.2575L262.351 33.25C262.936 32.8639 263.303 32.3681 263.514 31.9018C263.751 31.3889 263.794 30.9201 263.805 30.678C263.827 30.2197 263.748 29.2427 262.968 28.4058L262.956 28.3928L262.944 28.3803C262.842 28.2789 262.734 28.1807 262.62 28.0854L262.567 28.0412L262.508 28.0047L228.976 7.12664C227.87 6.33618 226.389 6.34161 225.283 7.13008L225.092 7.25232L191.755 28.0046L191.713 28.0308L191.674 28.061C191.542 28.1618 191.402 28.2838 191.274 28.4356C190.502 29.2807 190.457 30.2569 190.457 30.6307V30.6524L190.458 30.6741C190.469 30.9184 190.512 31.389 190.75 31.9111L190.753 31.918L190.756 31.9249C190.97 32.3739 191.323 32.8612 191.911 33.25L191.911 33.2501L191.923 33.2574L192.529 33.6461L192.531 33.6471L196.161 35.9844L196.162 35.9851L225.306 54.6944L225.392 54.752L225.399 54.7569L225.407 54.7617C226.453 55.4325 227.81 55.4325 228.856 54.7617L228.863 54.7569L228.871 54.752L228.957 54.6944L258.1 35.9851L258.102 35.9844L261.732 33.6472L261.734 33.6461L262.34 33.2574Z" fill="#E3AFA5" stroke="#E3AFA5" stroke-width="2"/>
<path d="M308.261 61.029C308.261 57.8723 307.061 54.8559 304.956 52.5722V52.5177C304.956 49.8988 303.655 47.4826 301.457 46.0484L269.64 26.9291C268.97 25.2533 267.832 23.7724 266.32 22.6812L232.719 1.76919C229.36 -0.584683 224.909 -0.584683 221.55 1.76919L188.159 22.5409L187.941 22.689C186.437 23.7802 185.299 25.2533 184.636 26.9291L152.921 45.9783L152.812 46.0484C150.606 47.4748 149.297 49.8988 149.305 52.5177V52.5722C147.2 54.8559 146 57.8723 146 61.029V89.2754C146 91.5747 146.624 93.7727 147.762 95.6667C146.647 96.8592 146 98.4415 146 100.117V129.93C146 132.159 147.122 134.209 148.993 135.417L197.349 166.478L191.815 193.804C188.884 208.263 199.936 221.77 214.683 221.77H239.578C254.325 221.77 265.377 208.263 262.446 193.804L256.912 166.478L305.268 135.417C307.146 134.209 308.261 132.159 308.261 129.93V100.117C308.261 98.4415 307.614 96.8592 306.5 95.6667C307.637 93.7649 308.261 91.5669 308.261 89.2754V61.029ZM221.176 172.822L198.954 158.551L153.537 129.377V101.98L203.865 134.311L222.29 146.15L221.176 172.822ZM223.226 136.742L205.657 125.456L155.813 93.4375C154.387 92.5178 153.537 90.9668 153.537 89.2754V61.029C153.537 60.5302 153.615 60.0313 153.763 59.5637L211.487 96.641L222.976 104.022C223.405 104.295 223.849 104.529 224.317 104.7L223.226 136.742ZM224.348 95.9395L213.093 88.7142L160.076 54.6611L156.912 52.6268C156.912 52.6268 156.842 52.58 156.842 52.5021C156.842 52.4397 156.865 52.4085 156.889 52.3929L161.362 49.7039L175.899 40.9665L185.47 35.8535C185.634 36.1029 185.805 36.3445 185.992 36.5784C186.655 37.4202 187.458 38.1528 188.377 38.753L189.079 39.205L219.196 58.5504L221.862 60.2652C222.859 60.9043 223.943 61.3408 225.057 61.5824L224.34 95.9395H224.348ZM228.315 53.9206C227.598 54.3805 226.663 54.3805 225.946 53.9206L225.852 53.8583L196.702 35.1442L193.07 32.806L192.462 32.4162C192.049 32.1434 191.807 31.8083 191.659 31.4965C191.495 31.138 191.464 30.8106 191.456 30.6313C191.456 30.3352 191.495 29.6649 192.025 29.0959C192.095 29.0101 192.181 28.9322 192.282 28.8543L225.626 8.09813L225.844 7.95783C226.616 7.39665 227.653 7.39665 228.417 7.95783L261.979 28.8543C262.072 28.9322 262.158 29.0101 262.236 29.0881C262.766 29.6571 262.82 30.3274 262.805 30.6313C262.797 30.8106 262.766 31.138 262.602 31.4887C262.462 31.8005 262.213 32.1434 261.799 32.4162L261.191 32.806L257.559 35.1442L228.409 53.8583L228.315 53.9206ZM229.196 61.5902C230.311 61.3486 231.394 60.9121 232.392 60.2729L235.057 58.5582L265.174 39.2128L265.876 38.7608C266.803 38.1606 267.606 37.4279 268.269 36.5862C268.409 36.4147 268.534 36.2354 268.651 36.0562L282.306 43.3438L282.353 43.375L292.906 49.7195L297.372 52.4007C297.372 52.4007 297.419 52.4475 297.419 52.5099C297.419 52.5956 297.38 52.6112 297.349 52.6346L294.185 54.6689L241.168 88.722L229.913 95.9551L229.196 61.5902ZM300.724 129.377L255.307 158.551L233.085 172.822L231.971 146.15L250.396 134.311L300.724 101.98V129.377ZM300.724 89.2754C300.724 90.9668 299.874 92.5178 298.456 93.4375L248.604 125.456L231.035 136.742L229.952 104.7C230.412 104.521 230.856 104.295 231.285 104.022L242.774 96.641L300.498 59.5637C300.646 60.0313 300.724 60.5302 300.724 61.029V89.2754Z" fill="#230D11"/>
</g>
<g clip-path="url(#clip1_629_80)">
<path d="M223.29 412.213L223.314 411.64L222.832 411.33L204.406 399.483L204.406 399.482L154.078 367.152L152.538 366.162V367.993V395.39V395.936L152.997 396.231L198.414 425.405L198.414 425.405L220.636 439.677L222.103 440.619L222.175 438.877L223.29 412.213Z" fill="#66B4DB" stroke="#66B4DB" stroke-width="2"/>
<path d="M301.724 367.993V366.162L300.184 367.152L249.856 399.482L249.856 399.483L231.43 411.33L230.948 411.64L230.972 412.213L232.087 438.877L232.159 440.619L233.626 439.677L255.848 425.405L255.848 425.405L301.265 396.231L301.724 395.936V395.39V367.993Z" fill="#66B4DB" stroke="#66B4DB" stroke-width="2"/>
<path d="M212.028 361.812L212.028 361.811L154.304 324.734L153.205 324.028L152.81 325.274C152.631 325.839 152.538 326.439 152.538 327.041V355.287C152.538 357.321 153.562 359.187 155.272 360.29L155.273 360.291L205.117 392.31L222.686 403.596L224.166 404.547L224.226 402.788L225.317 370.746L225.341 370.023L224.662 369.773C224.278 369.633 223.899 369.435 223.516 369.192C223.515 369.191 223.514 369.191 223.514 369.19L212.028 361.812Z" fill="#82C2E2" stroke="#82C2E2" stroke-width="2"/>
<path d="M301.452 325.274L301.057 324.028L299.958 324.734L242.234 361.811L242.234 361.812L230.749 369.19C230.748 369.191 230.747 369.191 230.746 369.192C230.372 369.43 229.986 369.626 229.589 369.78L228.929 370.038L228.953 370.746L230.037 402.788L230.096 404.547L231.577 403.596L249.145 392.31L249.145 392.31L298.997 360.291L299 360.289C300.701 359.186 301.725 357.32 301.725 355.287V327.041C301.725 326.439 301.631 325.839 301.452 325.274Z" fill="#82C2E2" stroke="#82C2E2" stroke-width="2"/>
<path d="M156.189 317.697L156.896 318.404C156.189 317.697 156.189 317.697 156.189 317.698L156.188 317.698L156.187 317.699L156.186 317.701L156.182 317.705L156.174 317.713C156.168 317.719 156.162 317.725 156.156 317.732C156.144 317.746 156.13 317.761 156.115 317.779C156.086 317.814 156.051 317.862 156.015 317.921C155.951 318.029 155.85 318.236 155.85 318.513C155.85 318.681 155.883 318.916 156.032 319.144C156.146 319.32 156.29 319.433 156.419 319.505L159.543 321.514L159.544 321.514L212.56 355.567L212.561 355.567L223.816 362.792L225.318 363.757L225.356 361.972L226.073 327.615L226.09 326.791L225.285 326.616C224.283 326.399 223.311 326.007 222.417 325.434L222.17 325.277H222.163L219.745 323.721L219.744 323.72L189.628 304.376L189.627 304.375L188.932 303.927C188.931 303.926 188.93 303.926 188.929 303.925C188.1 303.384 187.379 302.725 186.786 301.971L186.786 301.971L186.781 301.965C186.618 301.761 186.465 301.546 186.314 301.316L185.813 300.553L185.007 300.983L175.436 306.088L175.413 306.1L175.391 306.113L160.855 314.858L160.855 314.858L156.381 317.547L156.276 317.61L156.189 317.697Z" fill="#AED8ED" stroke="#AED8ED" stroke-width="2"/>
<path d="M297.928 317.573L297.908 317.56L297.887 317.547L293.422 314.866L293.421 314.866L282.888 308.534L282.861 308.516L282.82 308.489L282.777 308.466L269.122 301.178L268.314 300.747L267.813 301.514C267.707 301.677 267.604 301.824 267.495 301.957L267.489 301.964L267.483 301.972C266.89 302.726 266.169 303.384 265.334 303.925C265.333 303.925 265.333 303.925 265.333 303.925L264.634 304.375L264.633 304.376L234.517 323.721L234.517 323.721L231.853 325.435C231.852 325.435 231.852 325.435 231.852 325.435C230.957 326.008 229.986 326.4 228.984 326.617L228.179 326.791L228.197 327.615L228.914 361.98L228.951 363.766L230.454 362.8L241.709 355.567L241.709 355.567L294.725 321.514L294.726 321.514L297.882 319.485C297.885 319.483 297.889 319.48 297.893 319.478C297.915 319.464 297.939 319.447 297.965 319.428C298.016 319.389 298.08 319.334 298.144 319.259C298.275 319.106 298.42 318.852 298.42 318.514C298.42 318.16 298.263 317.796 297.928 317.573Z" fill="#AED8ED" stroke="#AED8ED" stroke-width="2"/>
<path d="M262.34 299.27L262.34 299.27L262.351 299.262C262.936 298.876 263.303 298.38 263.514 297.914C263.751 297.401 263.794 296.932 263.805 296.69C263.827 296.232 263.748 295.255 262.968 294.418L262.956 294.405L262.944 294.393C262.842 294.291 262.734 294.193 262.62 294.098L262.567 294.053L262.508 294.017L228.976 273.139C227.87 272.348 226.389 272.354 225.283 273.142L225.092 273.265L191.755 294.017L191.713 294.043L191.674 294.073C191.542 294.174 191.402 294.296 191.274 294.448C190.502 295.293 190.457 296.269 190.457 296.643V296.665L190.458 296.686C190.469 296.931 190.512 297.401 190.75 297.923L190.753 297.93L190.756 297.937C190.97 298.386 191.323 298.873 191.911 299.262L191.911 299.262L191.923 299.27L192.529 299.658L192.531 299.659L196.161 301.997L196.162 301.997L225.306 320.707L225.392 320.764L225.399 320.769L225.407 320.774C226.453 321.445 227.81 321.445 228.856 320.774L228.863 320.769L228.871 320.764L228.957 320.707L258.1 301.997L258.102 301.997L261.732 299.659L261.734 299.658L262.34 299.27Z" fill="#BEE0F1" stroke="#BEE0F1" stroke-width="2"/>
<path d="M308.261 327.041C308.261 323.885 307.061 320.868 304.956 318.584V318.53C304.956 315.911 303.655 313.495 301.457 312.061L269.64 292.941C268.97 291.266 267.832 289.785 266.32 288.693L232.719 267.781C229.36 265.428 224.909 265.428 221.55 267.781L188.159 288.553L187.941 288.701C186.437 289.792 185.299 291.266 184.636 292.941L152.921 311.99L152.812 312.061C150.606 313.487 149.297 315.911 149.305 318.53V318.584C147.2 320.868 146 323.885 146 327.041V355.288C146 357.587 146.624 359.785 147.762 361.679C146.647 362.871 146 364.454 146 366.129V395.943C146 398.172 147.122 400.222 148.993 401.43L197.349 432.49L191.815 459.816C188.884 474.275 199.936 487.782 214.683 487.782H239.578C254.325 487.782 265.377 474.275 262.446 459.816L256.912 432.49L305.268 401.43C307.146 400.222 308.261 398.172 308.261 395.943V366.129C308.261 364.454 307.614 362.871 306.5 361.679C307.637 359.777 308.261 357.579 308.261 355.288V327.041ZM221.176 438.834L198.954 424.563L153.537 395.389V367.992L203.865 400.323L222.29 412.162L221.176 438.834ZM223.226 402.755L205.657 391.469L155.813 359.45C154.387 358.53 153.537 356.979 153.537 355.288V327.041C153.537 326.542 153.615 326.044 153.763 325.576L211.487 362.653L222.976 370.034C223.405 370.307 223.849 370.541 224.317 370.712L223.226 402.755ZM224.348 361.952L213.093 354.726L160.076 320.673L156.912 318.639C156.912 318.639 156.842 318.592 156.842 318.514C156.842 318.452 156.865 318.421 156.889 318.405L161.362 315.716L175.899 306.979L185.47 301.866C185.634 302.115 185.805 302.357 185.992 302.591C186.655 303.432 187.458 304.165 188.377 304.765L189.079 305.217L219.196 324.563L221.862 326.277C222.859 326.916 223.943 327.353 225.057 327.595L224.34 361.952H224.348ZM228.315 319.933C227.598 320.393 226.663 320.393 225.946 319.933L225.852 319.87L196.702 301.156L193.07 298.818L192.462 298.428C192.049 298.156 191.807 297.82 191.659 297.509C191.495 297.15 191.464 296.823 191.456 296.644C191.456 296.347 191.495 295.677 192.025 295.108C192.095 295.022 192.181 294.944 192.282 294.866L225.626 274.11L225.844 273.97C226.616 273.409 227.653 273.409 228.417 273.97L261.979 294.866C262.072 294.944 262.158 295.022 262.236 295.1C262.766 295.669 262.82 296.34 262.805 296.644C262.797 296.823 262.766 297.15 262.602 297.501C262.462 297.813 262.213 298.156 261.799 298.428L261.191 298.818L257.559 301.156L228.409 319.87L228.315 319.933ZM229.196 327.602C230.311 327.361 231.394 326.924 232.392 326.285L235.057 324.57L265.174 305.225L265.876 304.773C266.803 304.173 267.606 303.44 268.269 302.598C268.409 302.427 268.534 302.248 268.651 302.068L282.306 309.356L282.353 309.387L292.906 315.732L297.372 318.413C297.372 318.413 297.419 318.46 297.419 318.522C297.419 318.608 297.38 318.623 297.349 318.647L294.185 320.681L241.168 354.734L229.913 361.967L229.196 327.602ZM300.724 395.389L255.307 424.563L233.085 438.834L231.971 412.162L250.396 400.323L300.724 367.992V395.389ZM300.724 355.288C300.724 356.979 299.874 358.53 298.456 359.45L248.604 391.469L231.035 402.755L229.952 370.712C230.412 370.533 230.856 370.307 231.285 370.034L242.774 362.653L300.498 325.576C300.646 326.044 300.724 326.542 300.724 327.041V355.288Z" fill="#230D11"/>
</g>
<g clip-path="url(#clip2_629_80)">
<path d="M77.2895 281.722L77.3134 281.149L76.8312 280.839L58.4055 268.992L58.4052 268.992L8.0776 236.661L6.53711 235.671V237.502V264.899V265.445L6.99665 265.741L52.4138 294.914L52.4139 294.915L74.6354 309.186L76.1021 310.128L76.1749 308.386L77.2895 281.722Z" fill="#BA2253" stroke="#BA2253" stroke-width="2"/>
<path d="M155.724 237.502V235.671L154.183 236.661L103.856 268.992L103.856 268.992L85.4299 280.839L84.9476 281.149L84.9716 281.722L86.0862 308.386L86.159 310.128L87.6257 309.186L109.847 294.915L109.847 294.914L155.264 265.741L155.724 265.445V264.899V237.502Z" fill="#BA2253" stroke="#BA2253" stroke-width="2"/>
<path d="M66.028 231.321L66.0279 231.321L8.30358 194.244L7.20425 193.537L6.8098 194.783C6.63087 195.348 6.53711 195.949 6.53711 196.55V224.797C6.53711 226.83 7.56119 228.697 9.27112 229.799L9.27256 229.8L59.1169 261.819L76.6851 273.105L78.1652 274.056L78.2251 272.298L79.3163 240.256L79.3409 239.532L78.6611 239.283C78.2772 239.142 77.8985 238.945 77.5152 238.701C77.5145 238.701 77.5138 238.7 77.5131 238.7L66.028 231.321Z" fill="#C8456E" stroke="#C8456E" stroke-width="2"/>
<path d="M155.451 194.783L155.057 193.537L153.958 194.244L96.2333 231.321L96.2332 231.321L84.7481 238.7C84.7474 238.7 84.7466 238.701 84.7459 238.701C84.3712 238.939 83.9857 239.135 83.5889 239.29L82.9288 239.547L82.9527 240.255L84.0361 272.298L84.0956 274.056L85.576 273.105L103.144 261.819L103.144 261.819L152.996 229.8L153 229.798C154.701 228.695 155.724 226.83 155.724 224.797V196.55C155.724 195.949 155.63 195.348 155.451 194.783Z" fill="#C8456E" stroke="#C8456E" stroke-width="2"/>
<path d="M10.1893 187.207L10.8964 187.914C10.1893 187.207 10.189 187.207 10.1888 187.207L10.1883 187.208L10.1874 187.208L10.1855 187.21L10.1816 187.214L10.1735 187.223C10.168 187.228 10.1621 187.235 10.1559 187.242C10.1435 187.255 10.1298 187.271 10.1151 187.289C10.0864 187.324 10.051 187.371 10.0155 187.43C9.95064 187.538 9.84961 187.746 9.84961 188.023C9.84961 188.191 9.88317 188.425 10.0316 188.654C10.1461 188.83 10.2901 188.943 10.4193 189.015L13.5435 191.023L13.5438 191.023L66.5604 225.076L66.5606 225.076L77.8155 232.302L79.3183 233.266L79.3555 231.481L80.0726 197.124L80.0898 196.3L79.2847 196.126C78.2829 195.909 77.311 195.517 76.4166 194.944L76.17 194.786H76.1632L73.7447 193.23L73.7442 193.23L43.6284 173.885L43.6271 173.884L42.9317 173.436C42.9309 173.436 42.93 173.435 42.9292 173.435C42.0998 172.893 41.3792 172.234 40.786 171.481L40.786 171.481L40.781 171.474C40.6177 171.27 40.4645 171.055 40.314 170.826L39.813 170.062L39.0073 170.492L29.436 175.597L29.4132 175.609L29.3911 175.623L14.8551 184.368L14.8548 184.368L10.3812 187.057L10.276 187.12L10.1893 187.207Z" fill="#DD829F" stroke="#DD829F" stroke-width="2"/>
<path d="M151.928 187.082L151.908 187.069L151.887 187.057L147.422 184.376L147.421 184.375L136.888 178.043L136.861 178.025L136.82 177.998L136.777 177.975L123.122 170.687L122.314 170.256L121.813 171.023C121.707 171.187 121.604 171.333 121.495 171.466L121.489 171.474L121.483 171.481C120.89 172.235 120.169 172.893 119.334 173.434C119.333 173.434 119.333 173.434 119.333 173.434L118.634 173.885L118.633 173.886L88.5171 193.23L88.5166 193.23L85.8525 194.944C85.8522 194.944 85.8519 194.945 85.8517 194.945C84.9575 195.517 83.9859 195.909 82.9844 196.126L82.1793 196.301L82.1965 197.124L82.9136 231.489L82.9509 233.276L84.454 232.31L95.7087 225.077L95.7089 225.077L148.725 191.024L148.726 191.023L151.882 188.994C151.885 188.992 151.889 188.99 151.893 188.987C151.915 188.973 151.939 188.957 151.965 188.937C152.016 188.898 152.08 188.843 152.144 188.769C152.275 188.615 152.42 188.361 152.42 188.023C152.42 187.669 152.263 187.306 151.928 187.082Z" fill="#DD829F" stroke="#DD829F" stroke-width="2"/>
<path d="M116.339 168.779L116.34 168.779L116.351 168.772C116.936 168.385 117.303 167.89 117.513 167.423C117.75 166.911 117.793 166.442 117.804 166.2C117.827 165.741 117.748 164.764 116.968 163.927L116.956 163.914L116.943 163.902C116.842 163.801 116.734 163.702 116.619 163.607L116.566 163.563L116.508 163.526L82.975 142.648C81.8691 141.858 80.3886 141.863 79.2821 142.652L79.092 142.774L45.7543 163.526L45.7123 163.552L45.673 163.583C45.542 163.683 45.4019 163.805 45.2735 163.957C44.5012 164.802 44.4565 165.778 44.4565 166.152V166.174L44.4575 166.196C44.4681 166.44 44.5112 166.911 44.7495 167.433L44.7527 167.44L44.7559 167.446C44.9692 167.896 45.3221 168.383 45.9109 168.772L45.9109 168.772L45.9223 168.779L46.5287 169.168L46.5303 169.169L50.1608 171.506L50.1619 171.507L79.3051 190.216L79.3914 190.274L79.3988 190.279L79.4063 190.283C80.4524 190.954 81.8094 190.954 82.8555 190.283L82.8629 190.279L82.8703 190.274L82.9567 190.216L112.1 171.507L112.101 171.506L115.731 169.169L115.733 169.168L116.339 168.779Z" fill="#EAB1C3" stroke="#EAB1C3" stroke-width="2"/>
<path d="M162.261 196.551C162.261 193.394 161.061 190.378 158.956 188.094V188.039C158.956 185.421 157.655 183.004 155.457 181.57L123.64 162.451C122.97 160.775 121.832 159.294 120.32 158.203L86.719 137.291C83.3597 134.937 78.9091 134.937 75.5498 137.291L42.1592 158.063L41.9409 158.211C40.4366 159.302 39.2987 160.775 38.6362 162.451L6.92131 181.5L6.81219 181.57C4.60641 182.996 3.29697 185.421 3.30477 188.039V188.094C1.20032 190.378 0 193.394 0 196.551V224.797C0 227.096 0.623541 229.294 1.7615 231.188C0.646924 232.381 0 233.963 0 235.639V265.452C0 267.681 1.12237 269.731 2.993 270.939L51.3486 301.999L45.8147 329.326C42.884 343.784 53.9363 357.292 68.6831 357.292H93.5779C108.325 357.292 119.377 343.784 116.446 329.326L110.912 301.999L159.268 270.939C161.146 269.731 162.261 267.681 162.261 265.452V235.639C162.261 233.963 161.614 232.381 160.5 231.188C161.637 229.287 162.261 227.089 162.261 224.797V196.551ZM75.1757 308.344L52.9542 294.073L7.53705 264.899V237.502L57.8646 269.832L76.2903 281.672L75.1757 308.344ZM77.2256 272.264L59.6573 260.978L9.81298 228.959C8.38663 228.04 7.53705 226.488 7.53705 224.797V196.551C7.53705 196.052 7.615 195.553 7.76309 195.085L65.4874 232.163L76.9762 239.544C77.4048 239.817 77.8491 240.051 78.3168 240.222L77.2256 272.264ZM78.348 231.461L67.093 224.236L14.0764 190.183L10.912 188.148C10.912 188.148 10.8418 188.102 10.8418 188.024C10.8418 187.961 10.8652 187.93 10.8886 187.915L15.3625 185.226L29.8988 176.488L39.4702 171.375C39.6338 171.625 39.8053 171.866 39.9924 172.1C40.6549 172.942 41.4577 173.675 42.3774 174.275L43.0789 174.727L73.1959 194.072L75.8616 195.787C76.8593 196.426 77.9426 196.862 79.0572 197.104L78.3402 231.461H78.348ZM82.3152 189.442C81.5982 189.902 80.6628 189.902 79.9458 189.442L79.8522 189.38L50.7017 170.666L47.0696 168.328L46.4616 167.938C46.0485 167.665 45.8069 167.33 45.6588 167.018C45.4951 166.66 45.4639 166.332 45.4562 166.153C45.4562 165.857 45.4951 165.187 46.0251 164.618C46.0953 164.532 46.181 164.454 46.2823 164.376L79.6262 143.62L79.8445 143.48C80.6161 142.918 81.6527 142.918 82.4166 143.48L115.979 164.376C116.072 164.454 116.158 164.532 116.236 164.61C116.766 165.179 116.82 165.849 116.805 166.153C116.797 166.332 116.766 166.66 116.602 167.01C116.462 167.322 116.213 167.665 115.799 167.938L115.191 168.328L111.559 170.666L82.4088 189.38L82.3152 189.442ZM83.196 197.112C84.3106 196.87 85.394 196.434 86.3916 195.795L89.0573 194.08L119.174 174.735L119.876 174.282C120.803 173.682 121.606 172.95 122.269 172.108C122.409 171.936 122.534 171.757 122.651 171.578L136.306 178.866L136.353 178.897L146.906 185.241L151.372 187.922C151.372 187.922 151.419 187.969 151.419 188.032C151.419 188.117 151.38 188.133 151.349 188.156L148.185 190.191L95.168 224.244L83.9131 231.477L83.196 197.112ZM154.724 264.899L109.307 294.073L87.0853 308.344L85.9707 281.672L104.396 269.832L154.724 237.502V264.899ZM154.724 224.797C154.724 226.488 153.874 228.04 152.456 228.959L102.604 260.978L85.0354 272.264L83.952 240.222C84.4119 240.043 84.8562 239.817 85.2849 239.544L96.7736 232.163L154.498 195.085C154.646 195.553 154.724 196.052 154.724 196.551V224.797Z" fill="#230D11"/>
</g>
<g clip-path="url(#clip3_629_80)">
<path d="M370.029 281.722L370.053 281.149L369.57 280.839L351.145 268.992L351.144 268.992L300.817 236.661L299.276 235.671V237.502V264.899V265.445L299.736 265.741L345.153 294.914L345.153 294.915L367.375 309.186L368.841 310.128L368.914 308.386L370.029 281.722Z" fill="#415C51" stroke="#415C51" stroke-width="2"/>
<path d="M448.463 237.502V235.671L446.923 236.661L396.595 268.992L396.595 268.992L378.169 280.839L377.687 281.149L377.711 281.722L378.825 308.386L378.898 310.128L380.365 309.186L402.586 294.915L402.586 294.914L448.004 265.741L448.463 265.445V264.899V237.502Z" fill="#415C51" stroke="#415C51" stroke-width="2"/>
<path d="M358.767 231.321L358.767 231.321L301.043 194.244L299.944 193.537L299.549 194.783C299.37 195.348 299.276 195.949 299.276 196.55V224.797C299.276 226.83 300.3 228.697 302.01 229.799L302.012 229.8L351.856 261.819L369.424 273.105L370.904 274.056L370.964 272.298L372.056 240.256L372.08 239.532L371.4 239.283C371.017 239.142 370.638 238.945 370.254 238.701C370.254 238.701 370.253 238.7 370.252 238.7L358.767 231.321Z" fill="#607C71" stroke="#607C71" stroke-width="2"/>
<path d="M448.191 194.783L447.796 193.537L446.697 194.244L388.973 231.321L388.972 231.321L377.487 238.7C377.487 238.7 377.486 238.701 377.485 238.701C377.11 238.939 376.725 239.135 376.328 239.29L375.668 239.547L375.692 240.255L376.775 272.298L376.835 274.056L378.315 273.105L395.883 261.819L395.884 261.819L445.736 229.8L445.739 229.798C447.44 228.695 448.463 226.83 448.463 224.797V196.55C448.463 195.949 448.37 195.348 448.191 194.783Z" fill="#607C71" stroke="#607C71" stroke-width="2"/>
<path d="M302.929 187.207L303.636 187.914C302.929 187.207 302.928 187.207 302.928 187.207L302.928 187.208L302.927 187.208L302.925 187.21L302.921 187.214L302.913 187.223C302.907 187.228 302.901 187.235 302.895 187.242C302.883 187.255 302.869 187.271 302.854 187.289C302.826 187.324 302.79 187.371 302.755 187.43C302.69 187.538 302.589 187.746 302.589 188.023C302.589 188.191 302.622 188.425 302.771 188.654C302.885 188.83 303.029 188.943 303.159 189.015L306.283 191.023L306.283 191.023L359.3 225.076L359.3 225.076L370.555 232.302L372.058 233.266L372.095 231.481L372.812 197.124L372.829 196.3L372.024 196.126C371.022 195.909 370.05 195.517 369.156 194.944L368.909 194.786H368.902L366.484 193.23L366.483 193.23L336.368 173.885L336.366 173.884L335.671 173.436C335.67 173.436 335.669 173.435 335.668 173.435C334.839 172.893 334.118 172.234 333.525 171.481L333.525 171.481L333.52 171.474C333.357 171.27 333.204 171.055 333.053 170.826L332.552 170.062L331.747 170.492L322.175 175.597L322.152 175.609L322.13 175.623L307.594 184.368L307.594 184.368L303.12 187.057L303.015 187.12L302.929 187.207Z" fill="#829D92" stroke="#829D92" stroke-width="2"/>
<path d="M444.666 187.082L444.647 187.069L444.626 187.057L440.161 184.376L440.16 184.375L429.627 178.043L429.6 178.025L429.559 177.998L429.516 177.975L415.86 170.687L415.052 170.256L414.552 171.023C414.445 171.187 414.343 171.333 414.234 171.466L414.228 171.474L414.222 171.481C413.628 172.235 412.908 172.893 412.072 173.434C412.072 173.434 412.072 173.434 412.072 173.434L411.373 173.885L411.372 173.886L381.256 193.23L381.255 193.23L378.591 194.944C378.591 194.944 378.591 194.945 378.59 194.945C377.696 195.517 376.725 195.909 375.723 196.126L374.918 196.301L374.935 197.124L375.652 231.489L375.69 233.276L377.193 232.31L388.447 225.077L388.448 225.077L441.464 191.024L441.464 191.023L444.621 188.994C444.624 188.992 444.628 188.99 444.632 188.987C444.653 188.973 444.678 188.957 444.704 188.937C444.755 188.898 444.818 188.843 444.882 188.769C445.014 188.615 445.158 188.361 445.158 188.023C445.158 187.669 445.002 187.306 444.666 187.082Z" fill="#829D92" stroke="#829D92" stroke-width="2"/>
<path d="M409.545 166.152C409.537 166.332 409.506 166.659 409.342 167.01C409.202 167.321 408.953 167.664 408.54 167.937L407.932 168.327L404.299 170.665L375.149 189.379L375.055 189.442C374.338 189.901 373.403 189.901 372.686 189.442L372.592 189.379L343.442 170.665L339.81 168.327L339.202 167.937C338.789 167.664 338.547 167.329 338.399 167.017C338.235 166.659 338.204 166.332 338.196 166.152C338.196 165.856 338.235 165.186 338.765 164.617C338.835 164.531 338.921 164.453 339.022 164.375L372.366 143.619L372.585 143.479C373.356 142.918 374.393 142.918 375.157 143.479L408.719 164.375C408.812 164.453 408.898 164.531 408.976 164.609C409.506 165.178 409.561 165.848 409.545 166.152Z" fill="#BCCEC7"/>
<path d="M455 196.551C455 193.394 453.799 190.378 451.695 188.094V188.039C451.695 185.42 450.393 183.004 448.195 181.57L416.379 162.451C415.709 160.775 414.571 159.294 413.059 158.203L379.458 137.291C376.098 134.937 371.648 134.937 368.289 137.291L334.898 158.063L334.68 158.211C333.175 159.302 332.037 160.775 331.375 162.451L299.66 181.5L299.551 181.57C297.345 182.996 296.036 185.42 296.044 188.039V188.094C293.939 190.378 292.739 193.394 292.739 196.551V224.797C292.739 227.096 293.362 229.294 294.5 231.188C293.386 232.381 292.739 233.963 292.739 235.639V265.452C292.739 267.681 293.861 269.731 295.732 270.939L344.087 301.999L338.553 329.326C335.623 343.784 346.675 357.292 361.422 357.292H386.317C401.063 357.292 412.116 343.784 409.185 329.326L403.651 301.999L452.007 270.939C453.885 269.731 455 267.681 455 265.452V235.639C455 233.963 454.353 232.381 453.238 231.188C454.376 229.287 455 227.089 455 224.797V196.551ZM367.914 308.344L345.693 294.072L300.276 264.899V237.502L350.603 269.832L369.029 281.672L367.914 308.344ZM369.964 272.264L352.396 260.978L302.552 228.959C301.125 228.039 300.276 226.488 300.276 224.797V196.551C300.276 196.052 300.354 195.553 300.502 195.085L358.226 232.163L369.715 239.544C370.144 239.817 370.588 240.05 371.056 240.222L369.964 272.264ZM371.087 231.461L359.832 224.236L306.815 190.183L303.651 188.148C303.651 188.148 303.581 188.102 303.581 188.024C303.581 187.961 303.604 187.93 303.627 187.915L308.101 185.226L322.638 176.488L332.209 171.375C332.373 171.625 332.544 171.866 332.731 172.1C333.394 172.942 334.196 173.674 335.116 174.275L335.818 174.727L365.935 194.072L368.6 195.787C369.598 196.426 370.681 196.862 371.796 197.104L371.079 231.461H371.087ZM375.054 189.442C374.337 189.902 373.402 189.902 372.685 189.442L372.591 189.38L343.44 170.666L339.808 168.328L339.2 167.938C338.787 167.665 338.546 167.33 338.398 167.018C338.234 166.66 338.203 166.332 338.195 166.153C338.195 165.857 338.234 165.186 338.764 164.617C338.834 164.532 338.92 164.454 339.021 164.376L372.365 143.62L372.583 143.479C373.355 142.918 374.391 142.918 375.155 143.479L408.717 164.376C408.811 164.454 408.897 164.532 408.975 164.61C409.505 165.179 409.559 165.849 409.544 166.153C409.536 166.332 409.505 166.66 409.341 167.01C409.201 167.322 408.951 167.665 408.538 167.938L407.93 168.328L404.298 170.666L375.148 189.38L375.054 189.442ZM375.935 197.112C377.049 196.87 378.133 196.434 379.13 195.795L381.796 194.08L411.913 174.734L412.615 174.282C413.542 173.682 414.345 172.95 415.007 172.108C415.148 171.936 415.272 171.757 415.389 171.578L429.045 178.865L429.092 178.897L439.645 185.241L444.111 187.922C444.111 187.922 444.158 187.969 444.158 188.031C444.158 188.117 444.119 188.133 444.088 188.156L440.923 190.19L387.907 224.244L376.652 231.477L375.935 197.112ZM447.463 264.899L402.046 294.072L379.824 308.344L378.71 281.672L397.135 269.832L447.463 237.502V264.899ZM447.463 224.797C447.463 226.488 446.613 228.039 445.195 228.959L395.342 260.978L377.774 272.264L376.691 240.222C377.151 240.043 377.595 239.817 378.024 239.544L389.512 232.163L447.237 195.085C447.385 195.553 447.463 196.052 447.463 196.551V224.797Z" fill="#230D11"/>
</g>
<defs>
<clipPath id="clip0_629_80">
<rect width="162.261" height="221.77" fill="white" transform="translate(146)"/>
</clipPath>
<clipPath id="clip1_629_80">
<rect width="162.261" height="221.77" fill="white" transform="translate(146 266.012)"/>
</clipPath>
<clipPath id="clip2_629_80">
<rect width="162.261" height="221.77" fill="white" transform="translate(0 135.522)"/>
</clipPath>
<clipPath id="clip3_629_80">
<rect width="162.261" height="221.77" fill="white" transform="translate(292.739 135.522)"/>
</clipPath>
</defs>
</svg>
