<svg width="455" height="488" viewBox="0 0 455 488" fill="none" xmlns="http://www.w3.org/2000/svg">
<g clip-path="url(#clip0_618_687)">
<path d="M77.2895 281.722L77.3134 281.149L76.8312 280.839L58.4055 268.992L58.4052 268.992L8.0776 236.661L6.53711 235.671V237.502V264.899V265.445L6.99665 265.741L52.4138 294.914L52.4139 294.915L74.6354 309.186L76.1021 310.128L76.1749 308.386L77.2895 281.722Z" fill="#BA2253" stroke="#BA2253" stroke-width="2"/>
<path d="M155.724 237.502V235.671L154.183 236.661L103.856 268.992L103.856 268.992L85.4299 280.839L84.9476 281.149L84.9716 281.722L86.0862 308.386L86.159 310.128L87.6257 309.186L109.847 294.915L109.847 294.914L155.264 265.741L155.724 265.445V264.899V237.502Z" fill="#BA2253" stroke="#BA2253" stroke-width="2"/>
<path d="M66.028 231.321L66.0279 231.321L8.30358 194.244L7.20425 193.537L6.8098 194.783C6.63087 195.348 6.53711 195.949 6.53711 196.55V224.797C6.53711 226.83 7.56119 228.697 9.27112 229.799L9.27256 229.8L59.1169 261.819L76.6852 273.105L78.1652 274.056L78.2251 272.298L79.3163 240.256L79.3409 239.532L78.6611 239.283C78.2772 239.142 77.8985 238.945 77.5152 238.701C77.5145 238.701 77.5138 238.7 77.5131 238.7L66.028 231.321Z" fill="#C8456E" stroke="#C8456E" stroke-width="2"/>
<path d="M155.451 194.783L155.057 193.537L153.958 194.244L96.2333 231.321L96.2332 231.321L84.7481 238.7C84.7475 238.7 84.7469 238.701 84.7463 238.701C84.3714 238.939 83.9858 239.135 83.5889 239.29L82.9288 239.547L82.9527 240.255L84.0361 272.298L84.0956 274.056L85.576 273.105L103.144 261.819L103.144 261.819L152.996 229.8L153 229.798C154.701 228.695 155.724 226.83 155.724 224.797V196.55C155.724 195.949 155.63 195.348 155.451 194.783Z" fill="#C8456E" stroke="#C8456E" stroke-width="2"/>
<path d="M10.1893 187.207L10.8964 187.914C10.1893 187.207 10.189 187.207 10.1888 187.207L10.1883 187.208L10.1874 187.208L10.1855 187.21L10.1817 187.214L10.1735 187.223C10.168 187.228 10.1621 187.235 10.1559 187.242C10.1435 187.255 10.1298 187.271 10.1151 187.289C10.0864 187.324 10.051 187.371 10.0155 187.43C9.95064 187.538 9.84961 187.746 9.84961 188.023C9.84961 188.191 9.88317 188.425 10.0316 188.654C10.1461 188.83 10.2901 188.943 10.4194 189.015L13.5435 191.023L13.5438 191.023L66.5604 225.076L66.5606 225.076L77.8155 232.302L79.3183 233.266L79.3555 231.481L80.0726 197.124L80.0898 196.3L79.2847 196.126C78.2829 195.909 77.311 195.517 76.4166 194.944L76.17 194.786H76.1632L73.7447 193.23L73.7442 193.23L43.6284 173.885L43.6271 173.884L42.9317 173.436C42.9309 173.436 42.9301 173.435 42.9293 173.435C42.0998 172.893 41.3792 172.234 40.786 171.481L40.786 171.481L40.781 171.474C40.6177 171.27 40.4645 171.055 40.314 170.826L39.813 170.062L39.0073 170.492L29.436 175.597L29.4132 175.609L29.3911 175.623L14.8551 184.368L14.8548 184.368L10.3812 187.057L10.276 187.12L10.1893 187.207Z" fill="#DD829F" stroke="#DD829F" stroke-width="2"/>
<mask id="path-6-outside-1_618_687" maskUnits="userSpaceOnUse" x="80.1963" y="168.569" width="74" height="67" fill="black">
<rect fill="white" x="80.1963" y="168.569" width="74" height="67"/>
<path d="M151.373 187.914L146.907 185.233L136.353 178.888L136.306 178.857L122.651 171.569C122.534 171.749 122.409 171.928 122.269 172.099C121.606 172.941 120.804 173.674 119.876 174.274L119.175 174.726L89.0576 194.072L86.3919 195.786C85.3943 196.425 84.3109 196.862 83.1963 197.103L83.9134 231.468L95.1683 224.235L148.185 190.182L151.349 188.148C151.349 188.148 151.42 188.109 151.42 188.023C151.42 187.961 151.396 187.93 151.373 187.914Z"/>
</mask>
<path d="M151.373 187.914L146.907 185.233L136.353 178.888L136.306 178.857L122.651 171.569C122.534 171.749 122.409 171.928 122.269 172.099C121.606 172.941 120.804 173.674 119.876 174.274L119.175 174.726L89.0576 194.072L86.3919 195.786C85.3943 196.425 84.3109 196.862 83.1963 197.103L83.9134 231.468L95.1683 224.235L148.185 190.182L151.349 188.148C151.349 188.148 151.42 188.109 151.42 188.023C151.42 187.961 151.396 187.93 151.373 187.914Z" fill="#DD829F"/>
<path d="M151.373 187.914L152.482 186.25L152.443 186.224L152.402 186.199L151.373 187.914ZM146.907 185.233L145.876 186.947L145.877 186.948L146.907 185.233ZM136.353 178.888L135.244 180.552L135.283 180.578L135.323 180.602L136.353 178.888ZM136.306 178.857L137.416 177.193L137.334 177.139L137.248 177.093L136.306 178.857ZM122.651 171.569L123.593 169.805L121.976 168.942L120.976 170.477L122.651 171.569ZM122.269 172.099L120.721 170.833L120.709 170.848L120.697 170.863L122.269 172.099ZM119.876 174.274L120.96 175.955L120.963 175.953L119.876 174.274ZM119.175 174.726L120.256 176.409L120.258 176.407L119.175 174.726ZM89.0576 194.072L87.9767 192.389L87.9756 192.389L89.0576 194.072ZM86.3919 195.786L87.4708 197.47L87.4739 197.468L86.3919 195.786ZM83.1963 197.103L82.7726 195.149L81.1624 195.498L81.1967 197.145L83.1963 197.103ZM83.9134 231.468L81.9138 231.51L81.9884 235.083L84.9946 233.151L83.9134 231.468ZM95.1683 224.235L94.0874 222.553L94.087 222.553L95.1683 224.235ZM148.185 190.182L149.266 191.865L149.266 191.865L148.185 190.182ZM151.349 188.148L150.378 186.399L150.322 186.431L150.268 186.466L151.349 188.148ZM152.402 186.199L147.936 183.518L145.877 186.948L150.343 189.629L152.402 186.199ZM147.937 183.519L137.384 177.174L135.323 180.602L145.876 186.947L147.937 183.519ZM137.463 177.224L137.416 177.193L135.197 180.521L135.244 180.552L137.463 177.224ZM137.248 177.093L123.593 169.805L121.709 173.334L135.365 180.622L137.248 177.093ZM120.976 170.477C120.879 170.625 120.798 170.738 120.721 170.833L123.817 173.366C124.02 173.117 124.189 172.873 124.326 172.662L120.976 170.477ZM120.697 170.863C120.173 171.529 119.534 172.113 118.79 172.595L120.963 175.953C122.073 175.235 123.04 174.353 123.841 173.336L120.697 170.863ZM118.793 172.593L118.091 173.045L120.258 176.407L120.959 175.955L118.793 172.593ZM118.094 173.043L87.9767 192.389L90.1385 195.754L120.256 176.409L118.094 173.043ZM87.9756 192.389L85.3099 194.104L87.4739 197.468L90.1396 195.754L87.9756 192.389ZM85.3131 194.102C84.522 194.609 83.6615 194.956 82.7726 195.149L83.62 199.058C84.9602 198.768 86.2666 198.242 87.4708 197.47L85.3131 194.102ZM81.1967 197.145L81.9138 231.51L85.9129 231.427L85.1959 197.062L81.1967 197.145ZM84.9946 233.151L96.2496 225.918L94.087 222.553L82.8321 229.786L84.9946 233.151ZM96.2491 225.918L149.266 191.865L147.104 188.499L94.0874 222.553L96.2491 225.918ZM149.266 191.865L152.431 189.83L150.268 186.466L147.103 188.5L149.266 191.865ZM151.349 188.148C152.32 189.896 152.321 189.896 152.322 189.895C152.322 189.895 152.323 189.895 152.324 189.894C152.325 189.894 152.326 189.893 152.327 189.893C152.329 189.891 152.331 189.89 152.333 189.889C152.338 189.887 152.342 189.884 152.347 189.881C152.356 189.876 152.365 189.871 152.374 189.865C152.393 189.854 152.413 189.842 152.434 189.828C152.475 189.802 152.521 189.77 152.57 189.733C152.665 189.661 152.784 189.558 152.903 189.419C153.149 189.133 153.42 188.656 153.42 188.023H149.42C149.42 187.476 149.655 187.062 149.866 186.816C149.968 186.697 150.069 186.61 150.151 186.547C150.193 186.515 150.234 186.488 150.271 186.464C150.29 186.451 150.308 186.44 150.326 186.43C150.335 186.424 150.344 186.419 150.352 186.414C150.357 186.412 150.361 186.409 150.365 186.407C150.368 186.405 150.37 186.404 150.372 186.403C150.373 186.402 150.374 186.402 150.375 186.401C150.376 186.401 150.376 186.4 150.377 186.4C150.377 186.4 150.378 186.399 151.349 188.148ZM153.42 188.023C153.42 187.378 153.13 186.682 152.482 186.25L150.263 189.578C150.008 189.408 149.775 189.162 149.616 188.845C149.462 188.537 149.42 188.243 149.42 188.023H153.42Z" fill="#DD829F" mask="url(#path-6-outside-1_618_687)"/>
<path d="M116.339 168.779L116.34 168.779L116.351 168.772C116.936 168.385 117.303 167.89 117.513 167.423C117.75 166.911 117.793 166.442 117.804 166.2C117.827 165.742 117.748 164.764 116.968 163.927L116.956 163.914L116.943 163.902C116.842 163.801 116.734 163.702 116.619 163.607L116.566 163.563L116.508 163.526L82.975 142.648C81.8691 141.858 80.3887 141.863 79.2822 142.652L79.0919 142.774L45.7543 163.526L45.7123 163.552L45.673 163.583C45.542 163.683 45.4019 163.805 45.2735 163.957C44.5012 164.802 44.4565 165.778 44.4565 166.152V166.174L44.4575 166.196C44.4681 166.44 44.5112 166.911 44.7495 167.433L44.7527 167.44L44.7559 167.446C44.9692 167.896 45.3221 168.383 45.9109 168.772L45.9109 168.772L45.9223 168.779L46.5287 169.168L46.5303 169.169L50.1608 171.506L50.1619 171.507L79.3051 190.216L79.3915 190.274L79.3989 190.279L79.4063 190.283C80.4524 190.954 81.8094 190.954 82.8555 190.283L82.8629 190.279L82.8703 190.274L82.9567 190.216L112.1 171.507L112.101 171.506L115.731 169.169L115.733 169.168L116.339 168.779Z" fill="#EAB1C3" stroke="#EAB1C3" stroke-width="2"/>
<path d="M162.261 196.551C162.261 193.394 161.061 190.378 158.956 188.094V188.039C158.956 185.421 157.655 183.004 155.457 181.57L123.64 162.451C122.97 160.775 121.832 159.294 120.32 158.203L86.719 137.291C83.3597 134.937 78.9091 134.937 75.5498 137.291L42.1592 158.063L41.9409 158.211C40.4366 159.302 39.2987 160.775 38.6362 162.451L6.92131 181.5L6.81219 181.57C4.60641 182.996 3.29697 185.421 3.30477 188.039V188.094C1.20032 190.378 0 193.394 0 196.551V224.797C0 227.096 0.623541 229.294 1.7615 231.188C0.646924 232.381 0 233.963 0 235.639V265.452C0 267.681 1.12237 269.731 2.993 270.939L51.3486 301.999L45.8147 329.326C42.884 343.784 53.9363 357.292 68.6831 357.292H93.5779C108.325 357.292 119.377 343.784 116.446 329.326L110.912 301.999L159.268 270.939C161.146 269.731 162.261 267.681 162.261 265.452V235.639C162.261 233.963 161.614 232.381 160.5 231.188C161.637 229.287 162.261 227.089 162.261 224.797V196.551ZM75.1757 308.344L52.9542 294.073L7.53705 264.899V237.502L57.8646 269.832L76.2903 281.672L75.1757 308.344ZM77.2256 272.264L59.6573 260.978L9.81298 228.959C8.38663 228.04 7.53705 226.488 7.53705 224.797V196.551C7.53705 196.052 7.615 195.553 7.76309 195.085L65.4874 232.163L76.9762 239.544C77.4048 239.817 77.8491 240.051 78.3168 240.222L77.2256 272.264ZM78.348 231.461L67.093 224.236L14.0764 190.183L10.912 188.148C10.912 188.148 10.8418 188.102 10.8418 188.024C10.8418 187.961 10.8652 187.93 10.8886 187.915L15.3625 185.226L29.8988 176.488L39.4702 171.375C39.6338 171.625 39.8053 171.866 39.9924 172.1C40.6549 172.942 41.4577 173.675 42.3774 174.275L43.0789 174.727L73.1959 194.072L75.8616 195.787C76.8593 196.426 77.9427 196.862 79.0572 197.104L78.3402 231.461H78.348ZM82.3152 189.442C81.5982 189.902 80.6628 189.902 79.9458 189.442L79.8522 189.38L50.7017 170.666L47.0696 168.328L46.4616 167.938C46.0485 167.665 45.8069 167.33 45.6588 167.018C45.4951 166.66 45.4639 166.332 45.4562 166.153C45.4562 165.857 45.4951 165.187 46.0251 164.618C46.0953 164.532 46.181 164.454 46.2823 164.376L79.6262 143.62L79.8445 143.48C80.6161 142.918 81.6527 142.918 82.4166 143.48L115.979 164.376C116.072 164.454 116.158 164.532 116.236 164.61C116.766 165.179 116.82 165.849 116.805 166.153C116.797 166.332 116.766 166.66 116.602 167.01C116.462 167.322 116.212 167.665 115.799 167.938L115.191 168.328L111.559 170.666L82.4088 189.38L82.3152 189.442ZM83.196 197.112C84.3106 196.87 85.394 196.434 86.3916 195.795L89.0573 194.08L119.174 174.735L119.876 174.282C120.803 173.682 121.606 172.95 122.269 172.108C122.409 171.936 122.534 171.757 122.651 171.578L136.306 178.866L136.353 178.897L146.906 185.241L151.372 187.922C151.372 187.922 151.419 187.969 151.419 188.032C151.419 188.117 151.38 188.133 151.349 188.156L148.185 190.191L95.168 224.244L83.9131 231.477L83.196 197.112ZM154.724 264.899L109.307 294.073L87.0853 308.344L85.9707 281.672L104.396 269.832L154.724 237.502V264.899ZM154.724 224.797C154.724 226.488 153.874 228.04 152.456 228.959L102.604 260.978L85.0354 272.264L83.952 240.222C84.4119 240.043 84.8562 239.817 85.2848 239.544L96.7736 232.163L154.498 195.085C154.646 195.553 154.724 196.052 154.724 196.551V224.797Z" fill="#230D11"/>
</g>
<g clip-path="url(#clip1_618_687)">
<path d="M218.157 146.201L218.181 145.628L217.698 145.318L199.273 133.47L199.272 133.47L148.945 101.139L147.404 100.15V101.981V129.378V129.924L147.864 130.219L193.281 159.393L193.281 159.393L215.503 173.664L216.969 174.606L217.042 172.865L218.157 146.201Z" fill="#A0270E" stroke="#A0270E" stroke-width="2"/>
<path d="M296.591 101.981V100.15L295.051 101.139L244.723 133.47L244.723 133.47L226.297 145.318L225.815 145.628L225.839 146.201L226.953 172.865L227.026 174.606L228.493 173.664L250.714 159.393L250.714 159.393L296.132 130.219L296.591 129.924V129.378V101.981Z" fill="#A0270E" stroke="#A0270E" stroke-width="2"/>
<path d="M206.895 95.7992L206.895 95.7992L149.171 58.7218L148.071 58.0157L147.677 59.2613C147.498 59.8264 147.404 60.427 147.404 61.0286V89.275C147.404 91.3085 148.428 93.175 150.138 94.2775L150.14 94.2785L199.984 126.297L217.552 137.583L219.032 138.534L219.092 136.776L220.183 104.734L220.208 104.01L219.528 103.761C219.144 103.62 218.766 103.423 218.382 103.179C218.382 103.179 218.381 103.179 218.38 103.178L206.895 95.7992Z" fill="#B44731" stroke="#B44731" stroke-width="2"/>
<path d="M296.319 59.2613L295.924 58.0157L294.825 58.7218L237.1 95.7992L237.1 95.7992L225.615 103.178C225.615 103.178 225.614 103.179 225.613 103.179C225.239 103.418 224.853 103.613 224.456 103.768L223.796 104.025L223.82 104.734L224.903 136.776L224.963 138.534L226.443 137.583L244.011 126.297L244.012 126.297L293.864 94.2785L293.867 94.2762C295.568 93.1735 296.591 91.3079 296.591 89.275V61.0286C296.591 60.427 296.498 59.8264 296.319 59.2613Z" fill="#B44731" stroke="#B44731" stroke-width="2"/>
<path d="M151.056 51.685L151.763 52.3921C151.056 51.685 151.056 51.6852 151.056 51.6854L151.055 51.6859L151.054 51.6868L151.052 51.6888L151.048 51.6927L151.04 51.7011C151.035 51.7069 151.029 51.7132 151.023 51.72C151.01 51.7335 150.996 51.7492 150.982 51.7671C150.953 51.8022 150.918 51.8497 150.882 51.9088C150.817 52.0169 150.716 52.2241 150.716 52.5012C150.716 52.6692 150.75 52.9036 150.898 53.132C151.013 53.3081 151.157 53.4212 151.286 53.493L154.41 55.5014L154.41 55.5016L207.427 89.5548L207.427 89.5549L218.682 96.7802L220.185 97.7449L220.222 95.9595L220.939 61.6024L220.956 60.7788L220.151 60.6042C219.15 60.3871 218.178 59.9952 217.283 59.4223L217.037 59.2643H217.03L214.611 57.7085L214.611 57.7082L184.495 38.3636L184.494 38.3628L183.798 37.9147C183.798 37.9141 183.797 37.9136 183.796 37.9131C182.967 37.3715 182.246 36.7128 181.653 35.9591L181.653 35.959L181.648 35.9528C181.484 35.7486 181.331 35.5334 181.181 35.304L180.68 34.5406L179.874 34.9703L170.303 40.0756L170.28 40.0877L170.258 40.101L155.722 48.846L155.721 48.8462L151.248 51.535L151.143 51.5982L151.056 51.685Z" fill="#B44731" stroke="#B44731" stroke-width="2"/>
<mask id="path-15-outside-2_618_687" maskUnits="userSpaceOnUse" x="221.063" y="33.048" width="74" height="67" fill="black">
<rect fill="white" x="221.063" y="33.048" width="74" height="67"/>
<path d="M292.239 52.3925L287.773 49.7113L277.22 43.3668L277.173 43.3356L263.518 36.048C263.401 36.2272 263.276 36.4065 263.136 36.578C262.473 37.4198 261.67 38.1524 260.743 38.7526L260.041 39.2047L229.924 58.55L227.259 60.2648C226.261 60.9039 225.178 61.3404 224.063 61.582L224.78 95.9469L236.035 88.7138L289.052 54.6607L292.216 52.6264C292.216 52.6264 292.286 52.5874 292.286 52.5017C292.286 52.4393 292.263 52.4081 292.239 52.3925Z"/>
</mask>
<path d="M292.239 52.3925L287.773 49.7113L277.22 43.3668L277.173 43.3356L263.518 36.048C263.401 36.2272 263.276 36.4065 263.136 36.578C262.473 37.4198 261.67 38.1524 260.743 38.7526L260.041 39.2047L229.924 58.55L227.259 60.2648C226.261 60.9039 225.178 61.3404 224.063 61.582L224.78 95.9469L236.035 88.7138L289.052 54.6607L292.216 52.6264C292.216 52.6264 292.286 52.5874 292.286 52.5017C292.286 52.4393 292.263 52.4081 292.239 52.3925Z" fill="#B44731"/>
<path d="M292.239 52.3925L293.349 50.7284L293.309 50.7022L293.269 50.6778L292.239 52.3925ZM287.773 49.7113L286.743 51.4254L286.744 51.426L287.773 49.7113ZM277.22 43.3668L276.11 45.0309L276.149 45.0568L276.189 45.0809L277.22 43.3668ZM277.173 43.3356L278.283 41.6715L278.201 41.6172L278.115 41.5712L277.173 43.3356ZM263.518 36.048L264.459 34.2835L262.843 33.421L261.842 34.9554L263.518 36.048ZM263.136 36.578L261.588 35.3115L261.576 35.3262L261.564 35.3411L263.136 36.578ZM260.743 38.7526L261.826 40.4337L261.829 40.4317L260.743 38.7526ZM260.041 39.2047L261.122 40.8874L261.125 40.8858L260.041 39.2047ZM229.924 58.55L228.843 56.8673L228.842 56.868L229.924 58.55ZM227.259 60.2648L228.337 61.9488L228.341 61.9468L227.259 60.2648ZM224.063 61.582L223.639 59.6274L222.029 59.9765L222.063 61.6237L224.063 61.582ZM224.78 95.9469L222.781 95.9886L222.855 99.5614L225.861 97.6294L224.78 95.9469ZM236.035 88.7138L234.954 87.0311L234.954 87.0313L236.035 88.7138ZM289.052 54.6607L290.132 56.3435L290.133 56.343L289.052 54.6607ZM292.216 52.6264L291.245 50.878L291.189 50.9092L291.135 50.944L292.216 52.6264ZM293.269 50.6778L288.803 47.9966L286.744 51.426L291.21 54.1073L293.269 50.6778ZM288.804 47.9972L278.25 41.6527L276.189 45.0809L286.743 51.4254L288.804 47.9972ZM278.329 41.7027L278.283 41.6715L276.064 44.9997L276.11 45.0309L278.329 41.7027ZM278.115 41.5712L264.459 34.2835L262.576 37.8124L276.231 45.1001L278.115 41.5712ZM261.842 34.9554C261.746 35.1031 261.665 35.217 261.588 35.3115L264.684 37.8445C264.887 37.596 265.055 37.3514 265.193 37.1405L261.842 34.9554ZM261.564 35.3411C261.039 36.0077 260.401 36.5915 259.656 37.0734L261.829 40.4317C262.94 39.7133 263.907 38.8319 264.707 37.8149L261.564 35.3411ZM259.659 37.0714L258.958 37.5235L261.125 40.8858L261.826 40.4337L259.659 37.0714ZM258.96 37.5219L228.843 56.8673L231.005 60.2328L261.122 40.8874L258.96 37.5219ZM228.842 56.868L226.177 58.5827L228.341 61.9468L231.006 60.2321L228.842 56.868ZM226.18 58.5807C225.389 59.0875 224.528 59.4347 223.639 59.6274L224.487 63.5366C225.827 63.2461 227.133 62.7203 228.337 61.9488L226.18 58.5807ZM222.063 61.6237L222.781 95.9886L226.78 95.9052L226.063 61.5403L222.063 61.6237ZM225.861 97.6294L237.116 90.3963L234.954 87.0313L223.699 94.2644L225.861 97.6294ZM237.116 90.3966L290.132 56.3435L287.971 52.9779L234.954 87.0311L237.116 90.3966ZM290.133 56.343L293.298 54.3087L291.135 50.944L287.97 52.9783L290.133 56.343ZM292.216 52.6264C293.187 54.3748 293.188 54.3743 293.189 54.3739C293.189 54.3737 293.19 54.3733 293.19 54.373C293.191 54.3724 293.193 54.3718 293.194 54.3712C293.196 54.37 293.198 54.3688 293.2 54.3675C293.204 54.3651 293.209 54.3625 293.213 54.36C293.222 54.3548 293.232 54.3494 293.241 54.3438C293.26 54.3326 293.28 54.3203 293.3 54.307C293.342 54.2805 293.388 54.249 293.436 54.2119C293.532 54.1396 293.65 54.0368 293.77 53.8979C294.015 53.611 294.286 53.135 294.286 52.5017H290.286C290.286 51.9541 290.522 51.5404 290.733 51.2945C290.834 51.176 290.936 51.0884 291.018 51.0259C291.06 50.9939 291.1 50.9661 291.138 50.9421C291.157 50.93 291.175 50.9187 291.193 50.908C291.202 50.9027 291.21 50.8976 291.219 50.8926C291.223 50.8901 291.228 50.8876 291.232 50.8852C291.234 50.8839 291.236 50.8827 291.239 50.8815C291.24 50.8809 291.241 50.8803 291.242 50.8798C291.242 50.8795 291.243 50.879 291.243 50.8789C291.244 50.8784 291.245 50.878 292.216 52.6264ZM294.286 52.5017C294.286 51.8568 293.997 51.1603 293.349 50.7284L291.13 54.0567C290.875 53.8863 290.641 53.641 290.483 53.324C290.328 53.0152 290.286 52.7217 290.286 52.5017H294.286Z" fill="#B44731" mask="url(#path-15-outside-2_618_687)"/>
<path d="M257.207 33.2574L257.207 33.2575L257.218 33.25C257.803 32.8639 258.17 32.3681 258.38 31.9018C258.617 31.3891 258.661 30.9204 258.671 30.6782C258.694 30.2199 258.615 29.2428 257.835 28.4058L257.823 28.3928L257.811 28.3803C257.709 28.2789 257.601 28.1807 257.486 28.0854L257.433 28.0412L257.375 28.0047L223.842 7.12663C222.736 6.33619 221.256 6.34161 220.149 7.13006L219.959 7.25238L186.621 28.0046L186.579 28.0308L186.54 28.061C186.409 28.1618 186.269 28.2838 186.141 28.4356C185.368 29.2807 185.324 30.2569 185.324 30.6307V30.6524L185.325 30.6741C185.335 30.9184 185.378 31.389 185.617 31.9111L185.62 31.918L185.623 31.9249C185.836 32.3739 186.189 32.8612 186.778 33.25L186.778 33.2501L186.79 33.2574L187.396 33.6461L187.397 33.6471L191.028 35.9844L191.029 35.9851L220.172 54.6944L220.259 54.752L220.266 54.7569L220.274 54.7617C221.32 55.4325 222.677 55.4325 223.723 54.7617L223.73 54.7569L223.738 54.752L223.824 54.6944L252.967 35.9851L252.968 35.9844L256.599 33.6472L256.6 33.6461L257.207 33.2574Z" fill="#E3AFA5" stroke="#E3AFA5" stroke-width="2"/>
<path d="M303.128 61.029C303.128 57.8723 301.927 54.8559 299.823 52.5722V52.5176C299.823 49.8988 298.521 47.4826 296.323 46.0484L264.507 26.9291C263.837 25.2533 262.699 23.7724 261.187 22.6812L227.586 1.76919C224.226 -0.584683 219.776 -0.584683 216.417 1.76919L183.026 22.5409L182.808 22.689C181.303 23.7802 180.165 25.2533 179.503 26.9291L147.788 45.9783L147.679 46.0484C145.473 47.4748 144.164 49.8988 144.171 52.5176V52.5722C142.067 54.8559 140.867 57.8723 140.867 61.029V89.2754C140.867 91.5747 141.49 93.7727 142.628 95.6667C141.514 96.8592 140.867 98.4415 140.867 100.117V129.93C140.867 132.159 141.989 134.209 143.86 135.417L192.215 166.478L186.681 193.804C183.751 208.263 194.803 221.77 209.55 221.77H234.445C249.191 221.77 260.244 208.263 257.313 193.804L251.779 166.478L300.135 135.417C302.013 134.209 303.128 132.159 303.128 129.93V100.117C303.128 98.4415 302.481 96.8592 301.366 95.6667C302.504 93.7649 303.128 91.5669 303.128 89.2754V61.029ZM216.042 172.822L193.821 158.551L148.404 129.377V101.98L198.731 134.311L217.157 146.15L216.042 172.822ZM218.092 136.742L200.524 125.456L150.68 93.4375C149.253 92.5178 148.404 90.9668 148.404 89.2754V61.029C148.404 60.5302 148.482 60.0313 148.63 59.5637L206.354 96.641L217.843 104.022C218.272 104.295 218.716 104.529 219.183 104.7L218.092 136.742ZM219.215 95.9395L207.96 88.7142L154.943 54.6611L151.779 52.6268C151.779 52.6268 151.709 52.58 151.709 52.5021C151.709 52.4397 151.732 52.4085 151.755 52.3929L156.229 49.7039L170.766 40.9665L180.337 35.8535C180.501 36.1029 180.672 36.3445 180.859 36.5784C181.522 37.4202 182.324 38.1528 183.244 38.753L183.946 39.205L214.063 58.5504L216.728 60.2652C217.726 60.9043 218.809 61.3408 219.924 61.5824L219.207 95.9395H219.215ZM223.182 53.9206C222.465 54.3805 221.53 54.3805 220.812 53.9206L220.719 53.8583L191.568 35.1442L187.936 32.806L187.328 32.4162C186.915 32.1434 186.674 31.8083 186.526 31.4965C186.362 31.138 186.331 30.8106 186.323 30.6314C186.323 30.3352 186.362 29.6649 186.892 29.0959C186.962 29.0101 187.048 28.9322 187.149 28.8543L220.493 8.09813L220.711 7.95783C221.483 7.39665 222.519 7.39665 223.283 7.95783L256.845 28.8543C256.939 28.9322 257.025 29.0101 257.103 29.0881C257.633 29.6571 257.687 30.3274 257.672 30.6314C257.664 30.8106 257.633 31.138 257.469 31.4887C257.329 31.8005 257.079 32.1434 256.666 32.4162L256.058 32.806L252.426 35.1442L223.275 53.8583L223.182 53.9206ZM224.063 61.5902C225.177 61.3486 226.261 60.9121 227.258 60.2729L229.924 58.5582L260.041 39.2128L260.742 38.7608C261.67 38.1606 262.473 37.4279 263.135 36.5862C263.276 36.4147 263.4 36.2354 263.517 36.0562L277.173 43.3438L277.22 43.375L287.773 49.7195L292.239 52.4007C292.239 52.4007 292.286 52.4475 292.286 52.5099C292.286 52.5956 292.247 52.6112 292.216 52.6346L289.051 54.6689L236.035 88.722L224.78 95.9551L224.063 61.5902ZM295.591 129.377L250.173 158.551L227.952 172.822L226.837 146.15L245.263 134.311L295.591 101.98V129.377ZM295.591 89.2754C295.591 90.9668 294.741 92.5178 293.323 93.4375L243.47 125.456L225.902 136.742L224.819 104.7C225.279 104.521 225.723 104.295 226.152 104.022L237.64 96.641L295.365 59.5637C295.513 60.0313 295.591 60.5302 295.591 61.029V89.2754Z" fill="#230D11"/>
</g>
<g clip-path="url(#clip2_618_687)">
<path d="M218.157 412.213L218.181 411.64L217.698 411.33L199.273 399.483L199.272 399.482L148.945 367.152L147.404 366.162V367.993V395.39V395.936L147.864 396.231L193.281 425.405L193.281 425.405L215.503 439.677L216.969 440.619L217.042 438.877L218.157 412.213Z" fill="#66B4DB" stroke="#66B4DB" stroke-width="2"/>
<path d="M296.591 367.993V366.162L295.051 367.152L244.723 399.482L244.723 399.483L226.297 411.33L225.815 411.64L225.839 412.213L226.953 438.877L227.026 440.619L228.493 439.677L250.714 425.405L250.714 425.405L296.132 396.231L296.591 395.936V395.39V367.993Z" fill="#66B4DB" stroke="#66B4DB" stroke-width="2"/>
<path d="M206.895 361.812L206.895 361.811L149.171 324.734L148.071 324.028L147.677 325.274C147.498 325.839 147.404 326.439 147.404 327.041V355.287C147.404 357.321 148.428 359.187 150.138 360.29L150.14 360.291L199.984 392.31L217.552 403.596L219.032 404.547L219.092 402.788L220.183 370.746L220.208 370.023L219.528 369.773C219.144 369.633 218.766 369.435 218.382 369.192C218.382 369.191 218.381 369.191 218.38 369.19L206.895 361.812Z" fill="#82C2E2" stroke="#82C2E2" stroke-width="2"/>
<path d="M296.319 325.274L295.924 324.028L294.825 324.734L237.1 361.811L237.1 361.812L225.615 369.19C225.615 369.191 225.614 369.191 225.613 369.192C225.239 369.43 224.853 369.626 224.456 369.78L223.796 370.038L223.82 370.746L224.903 402.788L224.963 404.547L226.443 403.596L244.011 392.31L244.012 392.31L293.864 360.291L293.867 360.289C295.568 359.186 296.591 357.32 296.591 355.287V327.041C296.591 326.439 296.498 325.839 296.319 325.274Z" fill="#82C2E2" stroke="#82C2E2" stroke-width="2"/>
<path d="M151.056 317.697L151.763 318.404C151.056 317.697 151.056 317.697 151.056 317.698L151.055 317.698L151.054 317.699L151.052 317.701L151.048 317.705L151.04 317.713C151.035 317.719 151.029 317.725 151.023 317.732C151.01 317.746 150.996 317.761 150.982 317.779C150.953 317.814 150.918 317.862 150.882 317.921C150.817 318.029 150.716 318.236 150.716 318.513C150.716 318.681 150.75 318.916 150.898 319.144C151.013 319.32 151.157 319.433 151.286 319.505L154.41 321.514L154.41 321.514L207.427 355.567L207.427 355.567L218.682 362.792L220.185 363.757L220.222 361.972L220.939 327.615L220.956 326.791L220.151 326.616C219.15 326.399 218.178 326.007 217.283 325.434L217.037 325.277H217.03L214.611 323.721L214.611 323.72L184.495 304.376L184.494 304.375L183.798 303.927C183.798 303.926 183.797 303.926 183.796 303.925C182.967 303.384 182.246 302.725 181.653 301.971L181.653 301.971L181.648 301.965C181.484 301.761 181.331 301.546 181.181 301.316L180.68 300.553L179.874 300.983L170.303 306.088L170.28 306.1L170.258 306.113L155.722 314.858L155.721 314.858L151.248 317.547L151.143 317.61L151.056 317.697Z" fill="#AED8ED" stroke="#AED8ED" stroke-width="2"/>
<mask id="path-24-outside-3_618_687" maskUnits="userSpaceOnUse" x="221.063" y="299.06" width="74" height="67" fill="black">
<rect fill="white" x="221.063" y="299.06" width="74" height="67"/>
<path d="M292.239 318.405L287.773 315.724L277.22 309.379L277.173 309.348L263.518 302.06C263.401 302.239 263.276 302.419 263.136 302.59C262.473 303.432 261.67 304.165 260.743 304.765L260.041 305.217L229.924 324.562L227.259 326.277C226.261 326.916 225.178 327.353 224.063 327.594L224.78 361.959L236.035 354.726L289.052 320.673L292.216 318.639C292.216 318.639 292.286 318.6 292.286 318.514C292.286 318.452 292.263 318.42 292.239 318.405Z"/>
</mask>
<path d="M292.239 318.405L287.773 315.724L277.22 309.379L277.173 309.348L263.518 302.06C263.401 302.239 263.276 302.419 263.136 302.59C262.473 303.432 261.67 304.165 260.743 304.765L260.041 305.217L229.924 324.562L227.259 326.277C226.261 326.916 225.178 327.353 224.063 327.594L224.78 361.959L236.035 354.726L289.052 320.673L292.216 318.639C292.216 318.639 292.286 318.6 292.286 318.514C292.286 318.452 292.263 318.42 292.239 318.405Z" fill="#AED8ED"/>
<path d="M292.239 318.405L293.349 316.741L293.309 316.714L293.269 316.69L292.239 318.405ZM287.773 315.724L286.743 317.438L286.744 317.438L287.773 315.724ZM277.22 309.379L276.11 311.043L276.149 311.069L276.189 311.093L277.22 309.379ZM277.173 309.348L278.283 307.684L278.201 307.629L278.115 307.583L277.173 309.348ZM263.518 302.06L264.459 300.296L262.843 299.433L261.842 300.968L263.518 302.06ZM263.136 302.59L261.588 301.324L261.576 301.338L261.564 301.353L263.136 302.59ZM260.743 304.765L261.826 306.446L261.829 306.444L260.743 304.765ZM260.041 305.217L261.122 306.9L261.125 306.898L260.041 305.217ZM229.924 324.562L228.843 322.879L228.842 322.88L229.924 324.562ZM227.259 326.277L228.337 327.961L228.341 327.959L227.259 326.277ZM224.063 327.594L223.639 325.64L222.029 325.989L222.063 327.636L224.063 327.594ZM224.78 361.959L222.781 362.001L222.855 365.574L225.861 363.642L224.78 361.959ZM236.035 354.726L234.954 353.043L234.954 353.044L236.035 354.726ZM289.052 320.673L290.132 322.356L290.133 322.355L289.052 320.673ZM292.216 318.639L291.245 316.89L291.189 316.921L291.135 316.956L292.216 318.639ZM293.269 316.69L288.803 314.009L286.744 317.438L291.21 320.119L293.269 316.69ZM288.804 314.009L278.25 307.665L276.189 311.093L286.743 317.438L288.804 314.009ZM278.329 307.715L278.283 307.684L276.064 311.012L276.11 311.043L278.329 307.715ZM278.115 307.583L264.459 300.296L262.576 303.825L276.231 311.112L278.115 307.583ZM261.842 300.968C261.746 301.115 261.665 301.229 261.588 301.324L264.684 303.857C264.887 303.608 265.055 303.364 265.193 303.153L261.842 300.968ZM261.564 301.353C261.039 302.02 260.401 302.604 259.656 303.086L261.829 306.444C262.94 305.726 263.907 304.844 264.707 303.827L261.564 301.353ZM259.659 303.084L258.958 303.536L261.125 306.898L261.826 306.446L259.659 303.084ZM258.96 303.534L228.843 322.879L231.005 326.245L261.122 306.9L258.96 303.534ZM228.842 322.88L226.177 324.595L228.341 327.959L231.006 326.244L228.842 322.88ZM226.18 324.593C225.389 325.1 224.528 325.447 223.639 325.64L224.487 329.549C225.827 329.258 227.133 328.732 228.337 327.961L226.18 324.593ZM222.063 327.636L222.781 362.001L226.78 361.917L226.063 327.552L222.063 327.636ZM225.861 363.642L237.116 356.409L234.954 353.044L223.699 360.277L225.861 363.642ZM237.116 356.409L290.132 322.356L287.971 318.99L234.954 353.043L237.116 356.409ZM290.133 322.355L293.298 320.321L291.135 316.956L287.97 318.991L290.133 322.355ZM292.216 318.639C293.187 320.387 293.188 320.387 293.189 320.386C293.189 320.386 293.19 320.385 293.19 320.385C293.191 320.385 293.193 320.384 293.194 320.383C293.196 320.382 293.198 320.381 293.2 320.38C293.204 320.377 293.209 320.375 293.213 320.372C293.222 320.367 293.232 320.362 293.241 320.356C293.26 320.345 293.28 320.333 293.3 320.319C293.342 320.293 293.388 320.261 293.436 320.224C293.532 320.152 293.65 320.049 293.77 319.91C294.015 319.623 294.286 319.147 294.286 318.514H290.286C290.286 317.966 290.522 317.553 290.733 317.307C290.834 317.188 290.936 317.101 291.018 317.038C291.06 317.006 291.1 316.978 291.138 316.954C291.157 316.942 291.175 316.931 291.193 316.92C291.202 316.915 291.21 316.91 291.219 316.905C291.223 316.902 291.228 316.9 291.232 316.897C291.234 316.896 291.236 316.895 291.239 316.894C291.24 316.893 291.241 316.893 291.242 316.892C291.242 316.892 291.243 316.891 291.243 316.891C291.244 316.891 291.245 316.89 292.216 318.639ZM294.286 318.514C294.286 317.869 293.997 317.173 293.349 316.741L291.13 320.069C290.875 319.899 290.641 319.653 290.483 319.336C290.328 319.027 290.286 318.734 290.286 318.514H294.286Z" fill="#AED8ED" mask="url(#path-24-outside-3_618_687)"/>
<path d="M257.207 299.27L257.207 299.27L257.218 299.262C257.803 298.876 258.17 298.38 258.38 297.914C258.617 297.401 258.661 296.933 258.671 296.69C258.694 296.232 258.615 295.255 257.835 294.418L257.823 294.405L257.811 294.393C257.709 294.291 257.601 294.193 257.486 294.098L257.433 294.053L257.375 294.017L223.842 273.139C222.736 272.348 221.256 272.354 220.149 273.142L219.959 273.265L186.621 294.017L186.579 294.043L186.54 294.073C186.409 294.174 186.269 294.296 186.141 294.448C185.368 295.293 185.324 296.269 185.324 296.643V296.665L185.325 296.686C185.335 296.931 185.378 297.401 185.617 297.923L185.62 297.93L185.623 297.937C185.836 298.386 186.189 298.873 186.778 299.262L186.778 299.262L186.79 299.27L187.396 299.658L187.397 299.659L191.028 301.997L191.029 301.997L220.172 320.707L220.259 320.764L220.266 320.769L220.274 320.774C221.32 321.445 222.677 321.445 223.723 320.774L223.73 320.769L223.738 320.764L223.824 320.707L252.967 301.997L252.968 301.997L256.599 299.659L256.6 299.658L257.207 299.27Z" fill="#BEE0F1" stroke="#BEE0F1" stroke-width="2"/>
<path d="M303.128 327.041C303.128 323.885 301.927 320.868 299.823 318.584V318.53C299.823 315.911 298.521 313.495 296.323 312.061L264.507 292.941C263.837 291.266 262.699 289.785 261.187 288.693L227.586 267.781C224.226 265.428 219.776 265.428 216.417 267.781L183.026 288.553L182.808 288.701C181.303 289.792 180.165 291.266 179.503 292.941L147.788 311.99L147.679 312.061C145.473 313.487 144.164 315.911 144.171 318.53V318.584C142.067 320.868 140.867 323.885 140.867 327.041V355.288C140.867 357.587 141.49 359.785 142.628 361.679C141.514 362.871 140.867 364.454 140.867 366.129V395.942C140.867 398.172 141.989 400.222 143.86 401.43L192.215 432.49L186.681 459.817C183.751 474.275 194.803 487.782 209.55 487.782H234.445C249.191 487.782 260.244 474.275 257.313 459.817L251.779 432.49L300.135 401.43C302.013 400.222 303.128 398.172 303.128 395.942V366.129C303.128 364.454 302.481 362.871 301.366 361.679C302.504 359.777 303.128 357.579 303.128 355.288V327.041ZM216.042 438.834L193.821 424.563L148.404 395.389V367.992L198.731 400.323L217.157 412.162L216.042 438.834ZM218.092 402.755L200.524 391.469L150.68 359.45C149.253 358.53 148.404 356.979 148.404 355.288V327.041C148.404 326.542 148.482 326.044 148.63 325.576L206.354 362.653L217.843 370.034C218.272 370.307 218.716 370.541 219.183 370.712L218.092 402.755ZM219.215 361.952L207.96 354.726L154.943 320.673L151.779 318.639C151.779 318.639 151.709 318.592 151.709 318.514C151.709 318.452 151.732 318.421 151.755 318.405L156.229 315.716L170.766 306.979L180.337 301.866C180.501 302.115 180.672 302.357 180.859 302.591C181.522 303.432 182.324 304.165 183.244 304.765L183.946 305.217L214.063 324.563L216.728 326.277C217.726 326.916 218.809 327.353 219.924 327.595L219.207 361.952H219.215ZM223.182 319.933C222.465 320.393 221.53 320.393 220.812 319.933L220.719 319.87L191.568 301.156L187.936 298.818L187.328 298.428C186.915 298.156 186.674 297.82 186.526 297.509C186.362 297.15 186.331 296.823 186.323 296.644C186.323 296.347 186.362 295.677 186.892 295.108C186.962 295.022 187.048 294.944 187.149 294.866L220.493 274.11L220.711 273.97C221.483 273.409 222.519 273.409 223.283 273.97L256.845 294.866C256.939 294.944 257.025 295.022 257.103 295.1C257.633 295.669 257.687 296.34 257.672 296.644C257.664 296.823 257.633 297.15 257.469 297.501C257.329 297.813 257.079 298.156 256.666 298.428L256.058 298.818L252.426 301.156L223.275 319.87L223.182 319.933ZM224.063 327.602C225.177 327.361 226.261 326.924 227.258 326.285L229.924 324.57L260.041 305.225L260.742 304.773C261.67 304.173 262.473 303.44 263.135 302.598C263.276 302.427 263.4 302.248 263.517 302.068L277.173 309.356L277.22 309.387L287.773 315.732L292.239 318.413C292.239 318.413 292.286 318.46 292.286 318.522C292.286 318.608 292.247 318.623 292.216 318.647L289.051 320.681L236.035 354.734L224.78 361.967L224.063 327.602ZM295.591 395.389L250.173 424.563L227.952 438.834L226.837 412.162L245.263 400.323L295.591 367.992V395.389ZM295.591 355.288C295.591 356.979 294.741 358.53 293.323 359.45L243.47 391.469L225.902 402.755L224.819 370.712C225.279 370.533 225.723 370.307 226.152 370.034L237.64 362.653L295.365 325.576C295.513 326.044 295.591 326.542 295.591 327.041V355.288Z" fill="#230D11"/>
</g>
<g clip-path="url(#clip3_618_687)">
<path d="M370.029 281.722L370.053 281.149L369.57 280.839L351.145 268.992L351.144 268.992L300.817 236.661L299.276 235.671V237.502V264.899V265.445L299.736 265.741L345.153 294.914L345.153 294.915L367.375 309.186L368.841 310.128L368.914 308.386L370.029 281.722Z" fill="#415C51" stroke="#415C51" stroke-width="2"/>
<path d="M448.463 237.502V235.671L446.923 236.661L396.595 268.992L396.595 268.992L378.169 280.839L377.687 281.149L377.711 281.722L378.825 308.386L378.898 310.128L380.365 309.186L402.586 294.915L402.586 294.914L448.004 265.741L448.463 265.445V264.899V237.502Z" fill="#415C51" stroke="#415C51" stroke-width="2"/>
<path d="M358.767 231.321L358.767 231.321L301.043 194.244L299.944 193.537L299.549 194.783C299.37 195.348 299.276 195.949 299.276 196.55V224.797C299.276 226.83 300.3 228.697 302.01 229.799L302.012 229.8L351.856 261.819L369.424 273.105L370.904 274.056L370.964 272.298L372.056 240.256L372.08 239.532L371.4 239.283C371.017 239.142 370.638 238.945 370.254 238.701C370.254 238.701 370.253 238.7 370.252 238.7L358.767 231.321Z" fill="#607C71" stroke="#607C71" stroke-width="2"/>
<path d="M448.191 194.783L447.796 193.537L446.697 194.244L388.973 231.321L388.972 231.321L377.487 238.7C377.487 238.7 377.486 238.701 377.486 238.701C377.111 238.939 376.725 239.135 376.328 239.29L375.668 239.547L375.692 240.255L376.775 272.298L376.835 274.056L378.315 273.105L395.883 261.819L395.884 261.819L445.736 229.8L445.739 229.798C447.44 228.695 448.463 226.83 448.463 224.797V196.55C448.463 195.949 448.37 195.348 448.191 194.783Z" fill="#607C71" stroke="#607C71" stroke-width="2"/>
<path d="M302.929 187.207L303.636 187.914C302.929 187.207 302.928 187.207 302.928 187.207L302.928 187.208L302.927 187.208L302.925 187.21L302.921 187.214L302.913 187.223C302.907 187.228 302.901 187.235 302.895 187.242C302.883 187.255 302.869 187.271 302.854 187.289C302.826 187.324 302.79 187.371 302.755 187.43C302.69 187.538 302.589 187.746 302.589 188.023C302.589 188.191 302.622 188.425 302.771 188.654C302.885 188.83 303.029 188.943 303.159 189.015L306.283 191.023L306.283 191.023L359.3 225.076L359.3 225.076L370.555 232.302L372.058 233.266L372.095 231.481L372.812 197.124L372.829 196.3L372.024 196.126C371.022 195.909 370.05 195.517 369.156 194.944L368.909 194.786H368.902L366.484 193.23L366.483 193.23L336.368 173.885L336.366 173.884L335.671 173.436C335.67 173.436 335.669 173.435 335.669 173.435C334.839 172.893 334.118 172.234 333.525 171.481L333.525 171.481L333.52 171.474C333.357 171.27 333.204 171.055 333.053 170.826L332.552 170.062L331.747 170.492L322.175 175.597L322.152 175.609L322.13 175.623L307.594 184.368L307.594 184.368L303.12 187.057L303.015 187.12L302.929 187.207Z" fill="#829D92" stroke="#829D92" stroke-width="2"/>
<mask id="path-33-outside-4_618_687" maskUnits="userSpaceOnUse" x="372.935" y="168.569" width="74" height="67" fill="black">
<rect fill="white" x="372.935" y="168.569" width="74" height="67"/>
<path d="M444.112 187.914L439.645 185.233L429.092 178.888L429.045 178.857L415.39 171.569C415.273 171.749 415.148 171.928 415.008 172.099C414.345 172.941 413.542 173.674 412.615 174.274L411.913 174.726L381.796 194.072L379.131 195.786C378.133 196.425 377.05 196.862 375.935 197.103L376.652 231.468L387.907 224.235L440.924 190.182L444.088 188.148C444.088 188.148 444.158 188.109 444.158 188.023C444.158 187.961 444.135 187.93 444.112 187.914Z"/>
</mask>
<path d="M444.112 187.914L439.645 185.233L429.092 178.888L429.045 178.857L415.39 171.569C415.273 171.749 415.148 171.928 415.008 172.099C414.345 172.941 413.542 173.674 412.615 174.274L411.913 174.726L381.796 194.072L379.131 195.786C378.133 196.425 377.05 196.862 375.935 197.103L376.652 231.468L387.907 224.235L440.924 190.182L444.088 188.148C444.088 188.148 444.158 188.109 444.158 188.023C444.158 187.961 444.135 187.93 444.112 187.914Z" fill="#829D92"/>
<path d="M444.112 187.914L445.221 186.25L445.182 186.224L445.141 186.199L444.112 187.914ZM439.645 185.233L438.615 186.947L438.616 186.948L439.645 185.233ZM429.092 178.888L427.983 180.552L428.021 180.578L428.061 180.602L429.092 178.888ZM429.045 178.857L430.155 177.193L430.073 177.139L429.987 177.093L429.045 178.857ZM415.39 171.569L416.331 169.805L414.715 168.942L413.714 170.477L415.39 171.569ZM415.008 172.099L413.46 170.833L413.448 170.848L413.436 170.863L415.008 172.099ZM412.615 174.274L413.698 175.955L413.701 175.953L412.615 174.274ZM411.913 174.726L412.994 176.409L412.997 176.407L411.913 174.726ZM381.796 194.072L380.715 192.389L380.714 192.389L381.796 194.072ZM379.131 195.786L380.21 197.47L380.213 197.468L379.131 195.786ZM375.935 197.103L375.511 195.149L373.901 195.498L373.935 197.145L375.935 197.103ZM376.652 231.468L374.653 231.51L374.727 235.083L377.733 233.151L376.652 231.468ZM387.907 224.235L386.826 222.553L386.826 222.553L387.907 224.235ZM440.924 190.182L442.005 191.865L442.005 191.865L440.924 190.182ZM444.088 188.148L443.117 186.399L443.061 186.431L443.007 186.466L444.088 188.148ZM445.141 186.199L440.675 183.518L438.616 186.948L443.082 189.629L445.141 186.199ZM440.676 183.519L430.122 177.174L428.061 180.602L438.615 186.947L440.676 183.519ZM430.201 177.224L430.155 177.193L427.936 180.521L427.983 180.552L430.201 177.224ZM429.987 177.093L416.331 169.805L414.448 173.334L428.104 180.622L429.987 177.093ZM413.714 170.477C413.618 170.625 413.537 170.738 413.46 170.833L416.556 173.366C416.759 173.117 416.927 172.873 417.065 172.662L413.714 170.477ZM413.436 170.863C412.911 171.529 412.273 172.113 411.528 172.595L413.701 175.953C414.812 175.235 415.779 174.353 416.579 173.336L413.436 170.863ZM411.531 172.593L410.83 173.045L412.997 176.407L413.698 175.955L411.531 172.593ZM410.832 173.043L380.715 192.389L382.877 195.754L412.994 176.409L410.832 173.043ZM380.714 192.389L378.049 194.104L380.213 197.468L382.878 195.754L380.714 192.389ZM378.052 194.102C377.261 194.609 376.4 194.956 375.511 195.149L376.359 199.058C377.699 198.768 379.005 198.242 380.21 197.47L378.052 194.102ZM373.935 197.145L374.653 231.51L378.652 231.427L377.935 197.062L373.935 197.145ZM377.733 233.151L388.988 225.918L386.826 222.553L375.571 229.786L377.733 233.151ZM388.988 225.918L442.005 191.865L439.843 188.499L386.826 222.553L388.988 225.918ZM442.005 191.865L445.17 189.83L443.007 186.466L439.842 188.5L442.005 191.865ZM444.088 188.148C445.059 189.896 445.06 189.896 445.061 189.895C445.061 189.895 445.062 189.895 445.062 189.894C445.064 189.894 445.065 189.893 445.066 189.893C445.068 189.891 445.07 189.89 445.072 189.889C445.077 189.887 445.081 189.884 445.085 189.881C445.094 189.876 445.104 189.871 445.113 189.865C445.132 189.854 445.152 189.842 445.172 189.828C445.214 189.802 445.26 189.77 445.308 189.733C445.404 189.661 445.522 189.558 445.642 189.419C445.888 189.133 446.158 188.656 446.158 188.023H442.158C442.158 187.476 442.394 187.062 442.605 186.816C442.706 186.697 442.808 186.61 442.89 186.547C442.932 186.515 442.972 186.488 443.01 186.464C443.029 186.451 443.047 186.44 443.065 186.43C443.074 186.424 443.082 186.419 443.091 186.414C443.096 186.412 443.1 186.409 443.104 186.407C443.106 186.405 443.108 186.404 443.111 186.403C443.112 186.402 443.113 186.402 443.114 186.401C443.114 186.401 443.115 186.4 443.115 186.4C443.116 186.4 443.117 186.399 444.088 188.148ZM446.158 188.023C446.158 187.378 445.869 186.682 445.221 186.25L443.002 189.578C442.747 189.408 442.513 189.162 442.355 188.845C442.2 188.537 442.158 188.243 442.158 188.023H446.158Z" fill="#829D92" mask="url(#path-33-outside-4_618_687)"/>
<path d="M409.545 166.152C409.537 166.332 409.506 166.659 409.342 167.01C409.202 167.321 408.953 167.664 408.54 167.937L407.932 168.327L404.299 170.665L375.149 189.379L375.055 189.442C374.338 189.901 373.403 189.901 372.686 189.442L372.592 189.379L343.442 170.665L339.81 168.327L339.202 167.937C338.789 167.664 338.547 167.329 338.399 167.017C338.235 166.659 338.204 166.332 338.196 166.152C338.196 165.856 338.235 165.186 338.765 164.617C338.835 164.531 338.921 164.453 339.022 164.375L372.366 143.619L372.585 143.479C373.356 142.918 374.393 142.918 375.157 143.479L408.719 164.375C408.812 164.453 408.898 164.531 408.976 164.609C409.506 165.178 409.561 165.848 409.545 166.152Z" fill="#BCCEC7"/>
<path d="M455 196.551C455 193.394 453.799 190.378 451.695 188.094V188.039C451.695 185.42 450.393 183.004 448.195 181.57L416.379 162.451C415.709 160.775 414.571 159.294 413.059 158.203L379.458 137.291C376.098 134.937 371.648 134.937 368.289 137.291L334.898 158.063L334.68 158.211C333.175 159.302 332.037 160.775 331.375 162.451L299.66 181.5L299.551 181.57C297.345 182.996 296.036 185.42 296.044 188.039V188.094C293.939 190.378 292.739 193.394 292.739 196.551V224.797C292.739 227.096 293.362 229.294 294.5 231.188C293.386 232.381 292.739 233.963 292.739 235.639V265.452C292.739 267.681 293.861 269.731 295.732 270.939L344.087 301.999L338.553 329.326C335.623 343.784 346.675 357.292 361.422 357.292H386.317C401.063 357.292 412.116 343.784 409.185 329.326L403.651 301.999L452.007 270.939C453.885 269.731 455 267.681 455 265.452V235.639C455 233.963 454.353 232.381 453.238 231.188C454.376 229.287 455 227.089 455 224.797V196.551ZM367.914 308.344L345.693 294.072L300.276 264.899V237.502L350.603 269.832L369.029 281.672L367.914 308.344ZM369.964 272.264L352.396 260.978L302.552 228.959C301.125 228.039 300.276 226.488 300.276 224.797V196.551C300.276 196.052 300.354 195.553 300.502 195.085L358.226 232.163L369.715 239.544C370.144 239.817 370.588 240.05 371.056 240.222L369.964 272.264ZM371.087 231.461L359.832 224.236L306.815 190.183L303.651 188.148C303.651 188.148 303.581 188.102 303.581 188.024C303.581 187.961 303.604 187.93 303.627 187.915L308.101 185.226L322.638 176.488L332.209 171.375C332.373 171.625 332.544 171.866 332.731 172.1C333.394 172.942 334.196 173.674 335.116 174.275L335.818 174.727L365.935 194.072L368.6 195.787C369.598 196.426 370.681 196.862 371.796 197.104L371.079 231.461H371.087ZM375.054 189.442C374.337 189.902 373.402 189.902 372.685 189.442L372.591 189.38L343.44 170.666L339.808 168.328L339.2 167.938C338.787 167.665 338.546 167.33 338.398 167.018C338.234 166.66 338.203 166.332 338.195 166.153C338.195 165.857 338.234 165.186 338.764 164.617C338.834 164.532 338.92 164.454 339.021 164.376L372.365 143.62L372.583 143.479C373.355 142.918 374.391 142.918 375.155 143.479L408.717 164.376C408.811 164.454 408.897 164.532 408.975 164.61C409.505 165.179 409.559 165.849 409.544 166.153C409.536 166.332 409.505 166.66 409.341 167.01C409.201 167.322 408.951 167.665 408.538 167.938L407.93 168.328L404.298 170.666L375.148 189.38L375.054 189.442ZM375.935 197.112C377.049 196.87 378.133 196.434 379.13 195.795L381.796 194.08L411.913 174.734L412.615 174.282C413.542 173.682 414.345 172.95 415.007 172.108C415.148 171.936 415.272 171.757 415.389 171.578L429.045 178.865L429.092 178.897L439.645 185.241L444.111 187.922C444.111 187.922 444.158 187.969 444.158 188.031C444.158 188.117 444.119 188.133 444.088 188.156L440.923 190.19L387.907 224.244L376.652 231.477L375.935 197.112ZM447.463 264.899L402.046 294.072L379.824 308.344L378.71 281.672L397.135 269.832L447.463 237.502V264.899ZM447.463 224.797C447.463 226.488 446.613 228.039 445.195 228.959L395.342 260.978L377.774 272.264L376.691 240.222C377.151 240.043 377.595 239.817 378.024 239.544L389.512 232.163L447.237 195.085C447.385 195.553 447.463 196.052 447.463 196.551V224.797Z" fill="#230D11"/>
</g>
<defs>
<clipPath id="clip0_618_687">
<rect width="162.261" height="221.77" fill="white" transform="translate(0 135.522)"/>
</clipPath>
<clipPath id="clip1_618_687">
<rect width="162.261" height="221.77" fill="white" transform="translate(140.867)"/>
</clipPath>
<clipPath id="clip2_618_687">
<rect width="162.261" height="221.77" fill="white" transform="translate(140.867 266.012)"/>
</clipPath>
<clipPath id="clip3_618_687">
<rect width="162.261" height="221.77" fill="white" transform="translate(292.739 135.522)"/>
</clipPath>
</defs>
</svg>
