<svg width="455" height="488" viewBox="0 0 455 488" fill="none" xmlns="http://www.w3.org/2000/svg">
<g clip-path="url(#clip0_618_687)">
<path d="M76.2903 281.68L75.1757 308.344L52.9543 294.073L7.53711 264.899V237.502L57.8647 269.833L76.2903 281.68Z" fill="#BA2253"/>
<path d="M154.724 237.502V264.899L109.307 294.073L87.0853 308.344L85.9707 281.68L104.396 269.833L154.724 237.502Z" fill="#BA2253"/>
<path d="M162.261 196.551C162.261 193.394 161.061 190.378 158.956 188.094V188.039C158.956 185.421 157.655 183.004 155.457 181.57L123.64 162.451C122.97 160.775 121.832 159.294 120.32 158.203L86.719 137.291C83.3597 134.937 78.9091 134.937 75.5498 137.291L42.1592 158.063L41.9409 158.211C40.4366 159.302 39.2987 160.775 38.6362 162.451L6.92131 181.5L6.81219 181.57C4.60641 182.996 3.29697 185.421 3.30477 188.039V188.094C1.20032 190.378 0 193.394 0 196.551V224.797C0 227.096 0.623541 229.294 1.7615 231.188C0.646924 232.381 0 233.963 0 235.639V265.452C0 267.681 1.12237 269.731 2.993 270.939L51.3486 301.999L45.8147 329.326C42.884 343.784 53.9363 357.292 68.6831 357.292H93.5779C108.325 357.292 119.377 343.784 116.446 329.326L110.912 301.999L159.268 270.939C161.146 269.731 162.261 267.681 162.261 265.452V235.639C162.261 233.963 161.614 232.381 160.5 231.188C161.637 229.287 162.261 227.089 162.261 224.797V196.551ZM75.1757 308.344L52.9542 294.073L7.53705 264.899V237.502L57.8646 269.832L76.2903 281.672L75.1757 308.344ZM77.2256 272.264L59.6573 260.978L9.81298 228.959C8.38663 228.04 7.53705 226.488 7.53705 224.797V196.551C7.53705 196.052 7.615 195.553 7.76309 195.085L65.4874 232.163L76.9762 239.544C77.4048 239.817 77.8491 240.051 78.3168 240.222L77.2256 272.264ZM78.348 231.461L67.093 224.236L14.0764 190.183L10.912 188.148C10.912 188.148 10.8418 188.102 10.8418 188.024C10.8418 187.961 10.8652 187.93 10.8886 187.915L15.3625 185.226L29.8988 176.488L39.4702 171.375C39.6338 171.625 39.8053 171.866 39.9924 172.1C40.6549 172.942 41.4577 173.675 42.3774 174.275L43.0789 174.727L73.1959 194.072L75.8616 195.787C76.8593 196.426 77.9427 196.862 79.0572 197.104L78.3402 231.461H78.348ZM82.3152 189.442C81.5982 189.902 80.6628 189.902 79.9458 189.442L79.8522 189.38L50.7017 170.666L47.0696 168.328L46.4616 167.938C46.0485 167.665 45.8069 167.33 45.6588 167.018C45.4951 166.66 45.4639 166.332 45.4562 166.153C45.4562 165.857 45.4951 165.187 46.0251 164.618C46.0953 164.532 46.181 164.454 46.2823 164.376L79.6262 143.62L79.8445 143.48C80.6161 142.918 81.6527 142.918 82.4166 143.48L115.979 164.376C116.072 164.454 116.158 164.532 116.236 164.61C116.766 165.179 116.82 165.849 116.805 166.153C116.797 166.332 116.766 166.66 116.602 167.01C116.462 167.322 116.212 167.665 115.799 167.938L115.191 168.328L111.559 170.666L82.4088 189.38L82.3152 189.442ZM83.196 197.112C84.3106 196.87 85.394 196.434 86.3916 195.795L89.0573 194.08L119.174 174.735L119.876 174.282C120.803 173.682 121.606 172.95 122.269 172.108C122.409 171.936 122.534 171.757 122.651 171.578L136.306 178.866L136.353 178.897L146.906 185.241L151.372 187.922C151.372 187.922 151.419 187.969 151.419 188.032C151.419 188.117 151.38 188.133 151.349 188.156L148.185 190.191L95.168 224.244L83.9131 231.477L83.196 197.112ZM154.724 264.899L109.307 294.073L87.0853 308.344L85.9707 281.672L104.396 269.832L154.724 237.502V264.899ZM154.724 224.797C154.724 226.488 153.874 228.04 152.456 228.959L102.604 260.978L85.0354 272.264L83.952 240.222C84.4119 240.043 84.8562 239.817 85.2848 239.544L96.7736 232.163L154.498 195.085C154.646 195.553 154.724 196.052 154.724 196.551V224.797Z" fill="#230D11"/>
<path d="M76.9762 239.543L65.4875 232.162L7.76314 195.085C7.61505 195.553 7.53711 196.051 7.53711 196.55V224.797C7.53711 226.488 8.38668 228.039 9.81304 228.959L59.6574 260.978L77.2256 272.264L78.3168 240.222C77.8492 240.05 77.4049 239.816 76.9762 239.543Z" fill="#C8456E"/>
<path d="M154.498 195.085L96.7737 232.162L85.285 239.543C84.8563 239.816 84.412 240.042 83.9521 240.222L85.0356 272.264L102.604 260.978L152.456 228.959C153.875 228.039 154.724 226.488 154.724 224.797V196.55C154.724 196.051 154.646 195.553 154.498 195.085Z" fill="#C8456E"/>
<path d="M75.8694 195.786L73.2037 194.071L43.0867 174.726L42.3852 174.274C41.4655 173.674 40.6627 172.941 40.0002 172.099C39.8131 171.865 39.6416 171.624 39.478 171.374L29.9066 176.48L15.3703 185.225L10.8964 187.914C10.8964 187.914 10.8496 187.96 10.8496 188.023C10.8496 188.101 10.8808 188.132 10.9198 188.148L14.0842 190.182L67.1008 224.235L78.3558 231.46L79.0728 197.103C77.9582 196.862 76.8748 196.425 75.8772 195.786H75.8694Z" fill="#DD829F"/>
<path d="M151.373 187.914L146.907 185.233L136.353 178.888L136.306 178.857L122.651 171.569C122.534 171.749 122.409 171.928 122.269 172.099C121.606 172.941 120.804 173.674 119.876 174.274L119.175 174.726L89.0576 194.072L86.3919 195.786C85.3943 196.425 84.3109 196.862 83.1963 197.103L83.9134 231.468L95.1683 224.235L148.185 190.182L151.349 188.148C151.349 188.148 151.42 188.109 151.42 188.023C151.42 187.961 151.396 187.93 151.373 187.914Z" fill="#DD829F"/>
<path d="M116.805 166.152C116.797 166.332 116.766 166.659 116.603 167.01C116.462 167.321 116.213 167.664 115.8 167.937L115.192 168.327L111.56 170.665L82.4092 189.379L82.3156 189.442C81.5986 189.901 80.6632 189.901 79.9462 189.442L79.8526 189.379L50.7021 170.665L47.07 168.327L46.462 167.937C46.0489 167.664 45.8073 167.329 45.6592 167.017C45.4955 166.659 45.4643 166.332 45.4565 166.152C45.4565 165.856 45.4955 165.186 46.0255 164.617C46.0957 164.531 46.1814 164.453 46.2827 164.375L79.6266 143.619L79.8448 143.479C80.6165 142.918 81.6531 142.918 82.4169 143.479L115.979 164.375C116.073 164.453 116.158 164.531 116.236 164.609C116.766 165.178 116.821 165.848 116.805 166.152Z" fill="#EAB1C3"/>
</g>
<g clip-path="url(#clip1_618_687)">
<path d="M217.158 146.159L216.043 172.823L193.821 158.552L148.404 129.378V101.981L198.732 134.311L217.158 146.159Z" fill="#A0270E"/>
<path d="M295.591 101.981V129.378L250.174 158.552L227.952 172.823L226.838 146.159L245.264 134.311L295.591 101.981Z" fill="#A0270E"/>
<path d="M303.128 61.029C303.128 57.8723 301.927 54.8559 299.823 52.5722V52.5176C299.823 49.8988 298.521 47.4826 296.323 46.0484L264.507 26.9291C263.837 25.2533 262.699 23.7724 261.187 22.6812L227.586 1.76919C224.226 -0.584683 219.776 -0.584683 216.417 1.76919L183.026 22.5409L182.808 22.689C181.303 23.7802 180.165 25.2533 179.503 26.9291L147.788 45.9783L147.679 46.0484C145.473 47.4748 144.164 49.8988 144.171 52.5176V52.5722C142.067 54.8559 140.867 57.8723 140.867 61.029V89.2754C140.867 91.5747 141.49 93.7727 142.628 95.6667C141.514 96.8592 140.867 98.4415 140.867 100.117V129.93C140.867 132.159 141.989 134.209 143.86 135.417L192.215 166.478L186.681 193.804C183.751 208.263 194.803 221.77 209.55 221.77H234.445C249.191 221.77 260.244 208.263 257.313 193.804L251.779 166.478L300.135 135.417C302.013 134.209 303.128 132.159 303.128 129.93V100.117C303.128 98.4415 302.481 96.8592 301.366 95.6667C302.504 93.7649 303.128 91.5669 303.128 89.2754V61.029ZM216.042 172.822L193.821 158.551L148.404 129.377V101.98L198.731 134.311L217.157 146.15L216.042 172.822ZM218.092 136.742L200.524 125.456L150.68 93.4375C149.253 92.5178 148.404 90.9668 148.404 89.2754V61.029C148.404 60.5302 148.482 60.0313 148.63 59.5637L206.354 96.641L217.843 104.022C218.272 104.295 218.716 104.529 219.183 104.7L218.092 136.742ZM219.215 95.9395L207.96 88.7142L154.943 54.6611L151.779 52.6268C151.779 52.6268 151.709 52.58 151.709 52.5021C151.709 52.4397 151.732 52.4085 151.755 52.3929L156.229 49.7039L170.766 40.9665L180.337 35.8535C180.501 36.1029 180.672 36.3445 180.859 36.5784C181.522 37.4202 182.324 38.1528 183.244 38.753L183.946 39.205L214.063 58.5504L216.728 60.2652C217.726 60.9043 218.809 61.3408 219.924 61.5824L219.207 95.9395H219.215ZM223.182 53.9206C222.465 54.3805 221.53 54.3805 220.812 53.9206L220.719 53.8583L191.568 35.1442L187.936 32.806L187.328 32.4162C186.915 32.1434 186.674 31.8083 186.526 31.4965C186.362 31.138 186.331 30.8106 186.323 30.6314C186.323 30.3352 186.362 29.6649 186.892 29.0959C186.962 29.0101 187.048 28.9322 187.149 28.8543L220.493 8.09813L220.711 7.95783C221.483 7.39665 222.519 7.39665 223.283 7.95783L256.845 28.8543C256.939 28.9322 257.025 29.0101 257.103 29.0881C257.633 29.6571 257.687 30.3274 257.672 30.6314C257.664 30.8106 257.633 31.138 257.469 31.4887C257.329 31.8005 257.079 32.1434 256.666 32.4162L256.058 32.806L252.426 35.1442L223.275 53.8583L223.182 53.9206ZM224.063 61.5902C225.177 61.3486 226.261 60.9121 227.258 60.2729L229.924 58.5582L260.041 39.2128L260.742 38.7608C261.67 38.1606 262.473 37.4279 263.135 36.5862C263.276 36.4147 263.4 36.2354 263.517 36.0562L277.173 43.3438L277.22 43.375L287.773 49.7195L292.239 52.4007C292.239 52.4007 292.286 52.4475 292.286 52.5099C292.286 52.5956 292.247 52.6112 292.216 52.6346L289.051 54.6689L236.035 88.722L224.78 95.9551L224.063 61.5902ZM295.591 129.377L250.173 158.551L227.952 172.822L226.837 146.15L245.263 134.311L295.591 101.98V129.377ZM295.591 89.2754C295.591 90.9668 294.741 92.5178 293.323 93.4375L243.47 125.456L225.902 136.742L224.819 104.7C225.279 104.521 225.723 104.295 226.152 104.022L237.64 96.641L295.365 59.5637C295.513 60.0313 295.591 60.5302 295.591 61.029V89.2754Z" fill="#230D11"/>
<path d="M217.843 104.022L206.355 96.6406L148.63 59.5632C148.482 60.0309 148.404 60.5297 148.404 61.0286V89.275C148.404 90.9663 149.254 92.5174 150.68 93.4371L200.525 125.456L218.093 136.742L219.184 104.7C218.716 104.528 218.272 104.295 217.843 104.022Z" fill="#B44731"/>
<path d="M295.365 59.5632L237.641 96.6406L226.152 104.022C225.723 104.295 225.279 104.521 224.819 104.7L225.903 136.742L243.471 125.456L293.323 93.4371C294.742 92.5174 295.591 90.9663 295.591 89.275V61.0286C295.591 60.5297 295.513 60.0309 295.365 59.5632Z" fill="#B44731"/>
<path d="M216.736 60.2643L214.07 58.5496L183.953 39.2042L183.252 38.7521C182.332 38.152 181.529 37.4193 180.867 36.5775C180.68 36.3437 180.508 36.1021 180.345 35.8527L170.773 40.9579L156.237 49.7031L151.763 52.3921C151.763 52.3921 151.716 52.4389 151.716 52.5012C151.716 52.5792 151.747 52.6103 151.786 52.6259L154.951 54.6602L207.968 88.7134L219.222 95.9387L219.94 61.5815C218.825 61.3399 217.742 60.9034 216.744 60.2643H216.736Z" fill="#B44731"/>
<path d="M292.239 52.3925L287.773 49.7113L277.22 43.3668L277.173 43.3356L263.518 36.048C263.401 36.2272 263.276 36.4065 263.136 36.578C262.473 37.4198 261.67 38.1524 260.743 38.7526L260.041 39.2047L229.924 58.55L227.259 60.2648C226.261 60.9039 225.178 61.3404 224.063 61.582L224.78 95.9469L236.035 88.7138L289.052 54.6607L292.216 52.6264C292.216 52.6264 292.286 52.5874 292.286 52.5017C292.286 52.4393 292.263 52.4081 292.239 52.3925Z" fill="#B44731"/>
<path d="M257.672 30.6307C257.665 30.8099 257.633 31.1373 257.47 31.488C257.329 31.7998 257.08 32.1428 256.667 32.4156L256.059 32.8053L252.427 35.1435L223.276 53.8576L223.183 53.9199C222.466 54.3798 221.53 54.3798 220.813 53.9199L220.72 53.8576L191.569 35.1435L187.937 32.8053L187.329 32.4156C186.916 32.1428 186.674 31.8076 186.526 31.4958C186.363 31.1373 186.332 30.8099 186.324 30.6307C186.324 30.3345 186.363 29.6642 186.893 29.0952C186.963 29.0095 187.049 28.9315 187.15 28.8536L220.494 8.09744L220.712 7.95715C221.484 7.39596 222.52 7.39596 223.284 7.95715L256.846 28.8536C256.94 28.9315 257.026 29.0095 257.103 29.0874C257.633 29.6564 257.688 30.3267 257.672 30.6307Z" fill="#E3AFA5"/>
</g>
<g clip-path="url(#clip2_618_687)">
<path d="M217.158 412.171L216.043 438.835L193.821 424.564L148.404 395.39V367.993L198.732 400.324L217.158 412.171Z" fill="#66B4DB"/>
<path d="M295.591 367.993V395.39L250.174 424.564L227.952 438.835L226.838 412.171L245.264 400.324L295.591 367.993Z" fill="#66B4DB"/>
<path d="M303.128 327.041C303.128 323.885 301.927 320.868 299.823 318.584V318.53C299.823 315.911 298.521 313.495 296.323 312.061L264.507 292.941C263.837 291.266 262.699 289.785 261.187 288.693L227.586 267.781C224.226 265.428 219.776 265.428 216.417 267.781L183.026 288.553L182.808 288.701C181.303 289.792 180.165 291.266 179.503 292.941L147.788 311.99L147.679 312.061C145.473 313.487 144.164 315.911 144.171 318.53V318.584C142.067 320.868 140.867 323.885 140.867 327.041V355.288C140.867 357.587 141.49 359.785 142.628 361.679C141.514 362.871 140.867 364.454 140.867 366.129V395.942C140.867 398.172 141.989 400.222 143.86 401.43L192.215 432.49L186.681 459.817C183.751 474.275 194.803 487.782 209.55 487.782H234.445C249.191 487.782 260.244 474.275 257.313 459.817L251.779 432.49L300.135 401.43C302.013 400.222 303.128 398.172 303.128 395.942V366.129C303.128 364.454 302.481 362.871 301.366 361.679C302.504 359.777 303.128 357.579 303.128 355.288V327.041ZM216.042 438.834L193.821 424.563L148.404 395.389V367.992L198.731 400.323L217.157 412.162L216.042 438.834ZM218.092 402.755L200.524 391.469L150.68 359.45C149.253 358.53 148.404 356.979 148.404 355.288V327.041C148.404 326.542 148.482 326.044 148.63 325.576L206.354 362.653L217.843 370.034C218.272 370.307 218.716 370.541 219.183 370.712L218.092 402.755ZM219.215 361.952L207.96 354.726L154.943 320.673L151.779 318.639C151.779 318.639 151.709 318.592 151.709 318.514C151.709 318.452 151.732 318.421 151.755 318.405L156.229 315.716L170.766 306.979L180.337 301.866C180.501 302.115 180.672 302.357 180.859 302.591C181.522 303.432 182.324 304.165 183.244 304.765L183.946 305.217L214.063 324.563L216.728 326.277C217.726 326.916 218.809 327.353 219.924 327.595L219.207 361.952H219.215ZM223.182 319.933C222.465 320.393 221.53 320.393 220.812 319.933L220.719 319.87L191.568 301.156L187.936 298.818L187.328 298.428C186.915 298.156 186.674 297.82 186.526 297.509C186.362 297.15 186.331 296.823 186.323 296.644C186.323 296.347 186.362 295.677 186.892 295.108C186.962 295.022 187.048 294.944 187.149 294.866L220.493 274.11L220.711 273.97C221.483 273.409 222.519 273.409 223.283 273.97L256.845 294.866C256.939 294.944 257.025 295.022 257.103 295.1C257.633 295.669 257.687 296.34 257.672 296.644C257.664 296.823 257.633 297.15 257.469 297.501C257.329 297.813 257.079 298.156 256.666 298.428L256.058 298.818L252.426 301.156L223.275 319.87L223.182 319.933ZM224.063 327.602C225.177 327.361 226.261 326.924 227.258 326.285L229.924 324.57L260.041 305.225L260.742 304.773C261.67 304.173 262.473 303.44 263.135 302.598C263.276 302.427 263.4 302.248 263.517 302.068L277.173 309.356L277.22 309.387L287.773 315.732L292.239 318.413C292.239 318.413 292.286 318.46 292.286 318.522C292.286 318.608 292.247 318.623 292.216 318.647L289.051 320.681L236.035 354.734L224.78 361.967L224.063 327.602ZM295.591 395.389L250.173 424.563L227.952 438.834L226.837 412.162L245.263 400.323L295.591 367.992V395.389ZM295.591 355.288C295.591 356.979 294.741 358.53 293.323 359.45L243.47 391.469L225.902 402.755L224.819 370.712C225.279 370.533 225.723 370.307 226.152 370.034L237.64 362.653L295.365 325.576C295.513 326.044 295.591 326.542 295.591 327.041V355.288Z" fill="#230D11"/>
<path d="M217.843 370.034L206.355 362.653L148.63 325.576C148.482 326.043 148.404 326.542 148.404 327.041V355.287C148.404 356.979 149.254 358.53 150.68 359.449L200.525 391.468L218.093 402.754L219.184 370.712C218.716 370.541 218.272 370.307 217.843 370.034Z" fill="#82C2E2"/>
<path d="M295.365 325.576L237.641 362.653L226.152 370.034C225.723 370.307 225.279 370.533 224.819 370.712L225.903 402.754L243.471 391.468L293.323 359.449C294.742 358.53 295.591 356.979 295.591 355.287V327.041C295.591 326.542 295.513 326.043 295.365 325.576Z" fill="#82C2E2"/>
<path d="M216.736 326.277L214.07 324.562L183.953 305.216L183.252 304.764C182.332 304.164 181.529 303.432 180.867 302.59C180.68 302.356 180.508 302.114 180.345 301.865L170.773 306.97L156.237 315.715L151.763 318.404C151.763 318.404 151.716 318.451 151.716 318.513C151.716 318.591 151.747 318.623 151.786 318.638L154.951 320.672L207.968 354.726L219.222 361.951L219.94 327.594C218.825 327.352 217.742 326.916 216.744 326.277H216.736Z" fill="#AED8ED"/>
<path d="M292.239 318.405L287.773 315.724L277.22 309.379L277.173 309.348L263.518 302.06C263.401 302.239 263.276 302.419 263.136 302.59C262.473 303.432 261.67 304.165 260.743 304.765L260.041 305.217L229.924 324.562L227.259 326.277C226.261 326.916 225.178 327.353 224.063 327.594L224.78 361.959L236.035 354.726L289.052 320.673L292.216 318.639C292.216 318.639 292.286 318.6 292.286 318.514C292.286 318.452 292.263 318.42 292.239 318.405Z" fill="#AED8ED"/>
<path d="M257.672 296.643C257.665 296.822 257.633 297.15 257.47 297.5C257.329 297.812 257.08 298.155 256.667 298.428L256.059 298.817L252.427 301.156L223.276 319.87L223.183 319.932C222.466 320.392 221.53 320.392 220.813 319.932L220.72 319.87L191.569 301.156L187.937 298.817L187.329 298.428C186.916 298.155 186.674 297.82 186.526 297.508C186.363 297.15 186.332 296.822 186.324 296.643C186.324 296.347 186.363 295.676 186.893 295.107C186.963 295.022 187.049 294.944 187.15 294.866L220.494 274.11L220.712 273.969C221.484 273.408 222.52 273.408 223.284 273.969L256.846 294.866C256.94 294.944 257.026 295.022 257.103 295.1C257.633 295.669 257.688 296.339 257.672 296.643Z" fill="#BEE0F1"/>
</g>
<g clip-path="url(#clip3_618_687)">
<path d="M369.03 281.68L367.915 308.344L345.694 294.073L300.276 264.899V237.502L350.604 269.833L369.03 281.68Z" fill="#415C51"/>
<path d="M447.463 237.502V264.899L402.046 294.073L379.825 308.344L378.71 281.68L397.136 269.833L447.463 237.502Z" fill="#415C51"/>
<path d="M455 196.551C455 193.394 453.799 190.378 451.695 188.094V188.039C451.695 185.42 450.393 183.004 448.195 181.57L416.379 162.451C415.709 160.775 414.571 159.294 413.059 158.203L379.458 137.291C376.098 134.937 371.648 134.937 368.289 137.291L334.898 158.063L334.68 158.211C333.175 159.302 332.037 160.775 331.375 162.451L299.66 181.5L299.551 181.57C297.345 182.996 296.036 185.42 296.044 188.039V188.094C293.939 190.378 292.739 193.394 292.739 196.551V224.797C292.739 227.096 293.362 229.294 294.5 231.188C293.386 232.381 292.739 233.963 292.739 235.639V265.452C292.739 267.681 293.861 269.731 295.732 270.939L344.087 301.999L338.553 329.326C335.623 343.784 346.675 357.292 361.422 357.292H386.317C401.063 357.292 412.116 343.784 409.185 329.326L403.651 301.999L452.007 270.939C453.885 269.731 455 267.681 455 265.452V235.639C455 233.963 454.353 232.381 453.238 231.188C454.376 229.287 455 227.089 455 224.797V196.551ZM367.914 308.344L345.693 294.072L300.276 264.899V237.502L350.603 269.832L369.029 281.672L367.914 308.344ZM369.964 272.264L352.396 260.978L302.552 228.959C301.125 228.039 300.276 226.488 300.276 224.797V196.551C300.276 196.052 300.354 195.553 300.502 195.085L358.226 232.163L369.715 239.544C370.144 239.817 370.588 240.05 371.056 240.222L369.964 272.264ZM371.087 231.461L359.832 224.236L306.815 190.183L303.651 188.148C303.651 188.148 303.581 188.102 303.581 188.024C303.581 187.961 303.604 187.93 303.627 187.915L308.101 185.226L322.638 176.488L332.209 171.375C332.373 171.625 332.544 171.866 332.731 172.1C333.394 172.942 334.196 173.674 335.116 174.275L335.818 174.727L365.935 194.072L368.6 195.787C369.598 196.426 370.681 196.862 371.796 197.104L371.079 231.461H371.087ZM375.054 189.442C374.337 189.902 373.402 189.902 372.685 189.442L372.591 189.38L343.44 170.666L339.808 168.328L339.2 167.938C338.787 167.665 338.546 167.33 338.398 167.018C338.234 166.66 338.203 166.332 338.195 166.153C338.195 165.857 338.234 165.186 338.764 164.617C338.834 164.532 338.92 164.454 339.021 164.376L372.365 143.62L372.583 143.479C373.355 142.918 374.391 142.918 375.155 143.479L408.717 164.376C408.811 164.454 408.897 164.532 408.975 164.61C409.505 165.179 409.559 165.849 409.544 166.153C409.536 166.332 409.505 166.66 409.341 167.01C409.201 167.322 408.951 167.665 408.538 167.938L407.93 168.328L404.298 170.666L375.148 189.38L375.054 189.442ZM375.935 197.112C377.049 196.87 378.133 196.434 379.13 195.795L381.796 194.08L411.913 174.734L412.615 174.282C413.542 173.682 414.345 172.95 415.007 172.108C415.148 171.936 415.272 171.757 415.389 171.578L429.045 178.865L429.092 178.897L439.645 185.241L444.111 187.922C444.111 187.922 444.158 187.969 444.158 188.031C444.158 188.117 444.119 188.133 444.088 188.156L440.923 190.19L387.907 224.244L376.652 231.477L375.935 197.112ZM447.463 264.899L402.046 294.072L379.824 308.344L378.71 281.672L397.135 269.832L447.463 237.502V264.899ZM447.463 224.797C447.463 226.488 446.613 228.039 445.195 228.959L395.342 260.978L377.774 272.264L376.691 240.222C377.151 240.043 377.595 239.817 378.024 239.544L389.512 232.163L447.237 195.085C447.385 195.553 447.463 196.052 447.463 196.551V224.797Z" fill="#230D11"/>
<path d="M369.715 239.543L358.227 232.162L300.502 195.085C300.354 195.553 300.276 196.051 300.276 196.55V224.797C300.276 226.488 301.126 228.039 302.552 228.959L352.397 260.978L369.965 272.264L371.056 240.222C370.588 240.05 370.144 239.816 369.715 239.543Z" fill="#607C71"/>
<path d="M447.237 195.085L389.513 232.162L378.024 239.543C377.596 239.816 377.151 240.042 376.691 240.222L377.775 272.264L395.343 260.978L445.195 228.959C446.614 228.039 447.463 226.488 447.463 224.797V196.55C447.463 196.051 447.385 195.553 447.237 195.085Z" fill="#607C71"/>
<path d="M368.609 195.786L365.943 194.071L335.826 174.726L335.124 174.274C334.205 173.674 333.402 172.941 332.739 172.099C332.552 171.865 332.381 171.624 332.217 171.374L322.646 176.48L308.11 185.225L303.636 187.914C303.636 187.914 303.589 187.96 303.589 188.023C303.589 188.101 303.62 188.132 303.659 188.148L306.823 190.182L359.84 224.235L371.095 231.46L371.812 197.103C370.697 196.862 369.614 196.425 368.616 195.786H368.609Z" fill="#829D92"/>
<path d="M444.112 187.914L439.645 185.233L429.092 178.888L429.045 178.857L415.39 171.569C415.273 171.749 415.148 171.928 415.008 172.099C414.345 172.941 413.542 173.674 412.615 174.274L411.913 174.726L381.796 194.072L379.131 195.786C378.133 196.425 377.05 196.862 375.935 197.103L376.652 231.468L387.907 224.235L440.924 190.182L444.088 188.148C444.088 188.148 444.158 188.109 444.158 188.023C444.158 187.961 444.135 187.93 444.112 187.914Z" fill="#829D92"/>
<path d="M409.545 166.152C409.537 166.332 409.506 166.659 409.342 167.01C409.202 167.321 408.953 167.664 408.54 167.937L407.932 168.327L404.299 170.665L375.149 189.379L375.055 189.442C374.338 189.901 373.403 189.901 372.686 189.442L372.592 189.379L343.442 170.665L339.81 168.327L339.202 167.937C338.789 167.664 338.547 167.329 338.399 167.017C338.235 166.659 338.204 166.332 338.196 166.152C338.196 165.856 338.235 165.186 338.765 164.617C338.835 164.531 338.921 164.453 339.022 164.375L372.366 143.619L372.585 143.479C373.356 142.918 374.393 142.918 375.157 143.479L408.719 164.375C408.812 164.453 408.898 164.531 408.976 164.609C409.506 165.178 409.561 165.848 409.545 166.152Z" fill="#BCCEC7"/>
</g>
<defs>
<clipPath id="clip0_618_687">
<rect width="162.261" height="221.77" fill="white" transform="translate(0 135.522)"/>
</clipPath>
<clipPath id="clip1_618_687">
<rect width="162.261" height="221.77" fill="white" transform="translate(140.867)"/>
</clipPath>
<clipPath id="clip2_618_687">
<rect width="162.261" height="221.77" fill="white" transform="translate(140.867 266.012)"/>
</clipPath>
<clipPath id="clip3_618_687">
<rect width="162.261" height="221.77" fill="white" transform="translate(292.739 135.522)"/>
</clipPath>
</defs>
</svg>
