<svg width="78" height="106" viewBox="0 0 78 106" fill="none" xmlns="http://www.w3.org/2000/svg">
<g clip-path="url(#clip0_618_429)">
<path d="M36.9435 69.8415L36.9555 69.5551L36.7143 69.4L27.9123 63.7405L27.9121 63.7404L3.87034 48.2959L3.1001 47.8011V48.7166V61.8042V62.0773L3.32987 62.2249L25.0259 76.1614L25.026 76.1615L35.6413 82.979L36.3746 83.4499L36.411 82.5791L36.9435 69.8415Z" fill="#701B0A" stroke="#701B0A"/>
<path d="M74.4127 48.7166V47.8011L73.6424 48.2959L49.6006 63.7404L49.6005 63.7405L40.7984 69.4L40.5573 69.5551L40.5693 69.8415L41.1017 82.5791L41.1381 83.4499L41.8715 82.979L52.4868 76.1615L52.4868 76.1614L74.1829 62.2249L74.4127 62.0773V61.8042V48.7166Z" fill="#701B0A" stroke="#701B0A"/>
<path d="M31.5536 45.7454L31.5536 45.7453L3.97829 28.0333L3.42863 27.6802L3.2314 28.303C3.14524 28.5751 3.1001 28.8643 3.1001 29.154V42.6475C3.1001 43.6265 3.5932 44.5252 4.41636 45.056L4.41709 45.0564L28.228 60.352L36.6205 65.7434L37.3605 66.2188L37.3904 65.3398L37.9117 50.033L37.924 49.6712L37.5841 49.5466C37.4026 49.48 37.2232 49.3867 37.0411 49.2709C37.0407 49.2707 37.0404 49.2705 37.04 49.2702L31.5536 45.7454Z" fill="#A0270E" stroke="#A0270E"/>
<path d="M74.2814 28.303L74.0841 27.6802L73.5345 28.0333L45.9592 45.7453L45.9592 45.7454L40.4728 49.2702C40.4724 49.2704 40.4721 49.2706 40.4718 49.2708C40.294 49.3839 40.1111 49.4768 39.9229 49.5501L39.5928 49.6788L39.6048 50.0329L40.1223 65.3397L40.1521 66.219L40.8923 65.7434L49.2847 60.352L49.2848 60.352L73.0994 45.0564L73.1012 45.0553C73.9199 44.5245 74.4127 43.6262 74.4127 42.6475V29.154C74.4127 28.8643 74.3675 28.5751 74.2814 28.303Z" fill="#A0270E" stroke="#A0270E"/>
<path d="M4.8514 24.6749L5.20496 25.0284C4.8514 24.6749 4.85129 24.675 4.85117 24.6751L4.85094 24.6753L4.85048 24.6758L4.84953 24.6768L4.8476 24.6787L4.84355 24.6829L4.83475 24.6923C4.82862 24.699 4.82177 24.7069 4.81449 24.7158C4.80024 24.7332 4.78264 24.7567 4.76504 24.7861C4.73287 24.8397 4.68262 24.9427 4.68262 25.0806C4.68262 25.1637 4.69922 25.2802 4.77317 25.394C4.83001 25.4814 4.90143 25.5377 4.9656 25.5735L6.45744 26.5325L6.4576 26.5326L31.7839 42.8L31.784 42.8001L37.1606 46.2516L37.912 46.734L37.9306 45.8413L38.2731 29.4287L38.2817 29.0169L37.8792 28.9296C37.4032 28.8264 36.9413 28.6402 36.5164 28.368L36.3931 28.289H36.3899L35.2401 27.5494L35.2398 27.5492L20.8533 18.3082L20.8527 18.3078L20.5206 18.0938C20.5202 18.0936 20.5198 18.0933 20.5195 18.0931C20.1252 17.8356 19.7828 17.5226 19.5009 17.1645L19.5009 17.1645L19.4984 17.1614C19.4209 17.0645 19.3482 16.9622 19.2766 16.8531L19.0261 16.4714L18.6232 16.6863L14.0509 19.1251L14.0396 19.1312L14.0285 19.1378L7.08459 23.3153L7.08442 23.3154L4.94738 24.5999L4.89479 24.6315L4.8514 24.6749Z" fill="#415C51" stroke="#415C51"/>
<path d="M72.5893 24.6126L72.5795 24.606L72.5693 24.5999L70.4361 23.3192L70.4358 23.3191L65.4047 20.2945L65.392 20.286L65.3717 20.2725L65.3501 20.2609L58.8268 16.7796L58.4227 16.564L58.1725 16.9476C58.1218 17.0253 58.0732 17.0946 58.0219 17.1573L58.0218 17.1572L58.016 17.1647C57.7341 17.5228 57.392 17.8354 56.9949 18.0925C56.9946 18.0926 56.9944 18.0928 56.9942 18.0929L56.6605 18.308L56.6599 18.3084L42.2734 27.5494L42.2731 27.5496L41.0005 28.3682C41.0004 28.3683 41.0002 28.3684 41.0001 28.3685C40.5753 28.6406 40.1136 28.8266 39.6377 28.9298L39.2352 29.0171L39.2438 29.4289L39.5863 45.8452L39.605 46.7384L40.3565 46.2554L45.733 42.8002L45.7331 42.8001L71.0593 26.5328L71.0595 26.5327L72.5671 25.5635C72.5689 25.5624 72.5707 25.5612 72.5726 25.56C72.5833 25.5531 72.5954 25.5448 72.6083 25.535C72.6337 25.5158 72.6654 25.4884 72.6971 25.4513C72.7626 25.3749 72.8343 25.2488 72.8343 25.0807C72.8343 24.9053 72.7566 24.7241 72.5893 24.6126Z" fill="#415C51" stroke="#415C51"/>
<path d="M55.5881 15.9063L55.5881 15.9063L55.5938 15.9026C55.8763 15.716 56.054 15.4764 56.1563 15.2506C56.2718 15.0015 56.2928 14.7738 56.298 14.6564C56.309 14.4341 56.2706 13.9604 55.8926 13.5547L55.8866 13.5482L55.8803 13.5419C55.8313 13.4929 55.7791 13.4456 55.724 13.3996L55.6975 13.3775L55.6681 13.3593L39.65 3.38611C39.1141 3.00344 38.3971 3.00616 37.861 3.38785L37.7708 3.44586L21.8453 13.3593L21.8243 13.3724L21.8047 13.3874C21.7414 13.4361 21.6733 13.4954 21.6107 13.5694C21.2363 13.9792 21.2148 14.4524 21.2148 14.6327V14.6435L21.2153 14.6544C21.2205 14.7726 21.2413 15.0006 21.3568 15.2536L21.3568 15.2536L21.36 15.2605C21.4634 15.4781 21.6344 15.7142 21.9196 15.9026L21.9196 15.9026L21.9253 15.9063L22.2149 16.0919L22.2157 16.0924L23.95 17.2089L23.9506 17.2093L37.8723 26.1467L37.9134 26.1741L37.9134 26.1742L37.9208 26.179C38.4279 26.5042 39.0855 26.5042 39.5926 26.179L39.5926 26.1791L39.6 26.1741L39.641 26.1468L53.5628 17.2093L53.5634 17.2089L55.2976 16.0924L55.2985 16.0919L55.5881 15.9063Z" fill="#648678" stroke="#648678"/>
<path d="M77.5131 29.1541C77.5131 27.6461 76.9397 26.2052 75.9344 25.1142V25.0881C75.9344 23.8371 75.3126 22.6828 74.2626 21.9978L59.0638 12.8643C58.7436 12.0638 58.2 11.3564 57.4776 10.8351L41.4262 0.845296C39.8214 -0.279161 37.6954 -0.279161 36.0906 0.845296L20.1397 10.7681L20.0354 10.8388C19.3168 11.3601 18.7732 12.0638 18.4567 12.8643L3.30635 21.9642L3.25422 21.9978C2.20051 22.6791 1.57498 23.8371 1.57871 25.0881V25.1142C0.573399 26.2052 0 27.6461 0 29.1541V42.6476C0 43.7459 0.297869 44.7959 0.841481 45.7007C0.30904 46.2704 0 47.0262 0 47.8268V62.0686C0 63.1335 0.536165 64.1128 1.42977 64.6899L24.5295 79.5275L21.886 92.5816C20.486 99.4885 25.7657 105.941 32.8103 105.941H44.7028C51.7474 105.941 57.0271 99.4885 55.6271 92.5816L52.9835 79.5275L76.0833 64.6899C76.9806 64.1128 77.5131 63.1335 77.5131 62.0686V47.8268C77.5131 47.0262 77.204 46.2704 76.6716 45.7007C77.2152 44.7922 77.5131 43.7422 77.5131 42.6476V29.1541ZM35.9119 82.5583L25.2966 75.7408L3.6005 61.8043V48.7166L27.6423 64.1612L36.4443 69.817L35.9119 82.5583ZM36.8911 65.3229L28.4987 59.9314L4.68772 44.6358C4.00634 44.1965 3.6005 43.4555 3.6005 42.6476V29.1541C3.6005 28.9158 3.63773 28.6775 3.70847 28.4541L31.2837 46.1661L36.772 49.6922C36.9768 49.8225 37.189 49.9342 37.4124 50.0161L36.8911 65.3229ZM37.4273 45.831L32.0508 42.3795L6.7244 26.1121L5.21271 25.1403C5.21271 25.1403 5.1792 25.1179 5.1792 25.0807C5.1792 25.0509 5.19037 25.036 5.20154 25.0286L7.33876 23.744L14.2828 19.5701L18.8551 17.1276C18.9333 17.2467 19.0152 17.3622 19.1046 17.4739C19.4211 17.876 19.8046 18.226 20.244 18.5127L20.5791 18.7286L34.9661 27.97L36.2395 28.7892C36.7161 29.0945 37.2337 29.303 37.7661 29.4184L37.4236 45.831H37.4273ZM39.3225 25.7584C38.9799 25.978 38.5331 25.978 38.1906 25.7584L38.1459 25.7286L24.2205 16.7888L22.4854 15.6717L22.195 15.4856C21.9977 15.3553 21.8822 15.1952 21.8115 15.0462C21.7333 14.8749 21.7184 14.7186 21.7147 14.6329C21.7147 14.4914 21.7333 14.1712 21.9865 13.8994C22.02 13.8585 22.061 13.8212 22.1094 13.784L38.0379 3.86867L38.1422 3.80165C38.5108 3.53357 39.006 3.53357 39.3709 3.80165L55.4037 13.784C55.4484 13.8212 55.4894 13.8585 55.5266 13.8957C55.7798 14.1675 55.8058 14.4877 55.7984 14.6329C55.7947 14.7186 55.7798 14.8749 55.7016 15.0425C55.6346 15.1914 55.5154 15.3553 55.3181 15.4856L55.0276 15.6717L53.2926 16.7888L39.3672 25.7286L39.3225 25.7584ZM39.7432 29.4221C40.2757 29.3067 40.7932 29.0982 41.2698 28.7929L42.5432 27.9738L56.9303 18.7324L57.2654 18.5164C57.7085 18.2297 58.092 17.8797 58.4085 17.4776C58.4755 17.3957 58.5351 17.31 58.5909 17.2244L65.1143 20.7057L65.1366 20.7206L70.178 23.7515L72.3115 25.0323C72.3115 25.0323 72.3339 25.0546 72.3339 25.0844C72.3339 25.1254 72.3152 25.1328 72.3004 25.144L70.7887 26.1158L45.4623 42.3832L40.0858 45.8385L39.7432 29.4221ZM73.9126 61.8043L52.2165 75.7408L41.6012 82.5583L41.0687 69.817L49.8708 64.1612L73.9126 48.7166V61.8043ZM73.9126 42.6476C73.9126 43.4555 73.5067 44.1965 72.8291 44.6358L49.0144 59.9314L40.6219 65.3229L40.1044 50.0161C40.3241 49.9305 40.5363 49.8225 40.7411 49.6922L46.2293 46.1661L73.8046 28.4541C73.8753 28.6775 73.9126 28.9158 73.9126 29.1541V42.6476Z" fill="#230D11"/>
</g>
<defs>
<clipPath id="clip0_618_429">
<rect width="77.5131" height="105.941" fill="white"/>
</clipPath>
</defs>
</svg>
