<svg width="234" height="79" viewBox="0 0 234 79" fill="none" xmlns="http://www.w3.org/2000/svg">
<path fill-rule="evenodd" clip-rule="evenodd" d="M24.3429 41.1365C23.9515 40.9221 23.6802 63.8878 27.0147 78.4012C27.271 79.9312 35.9386 78.4012 43.84 74.8311C51.7439 71.261 60.419 63.0703 59.7863 61.6994C59.1536 60.3284 29.727 44.0857 24.3429 41.1365Z" fill="url(#paint0_linear_455_25372)"/>
<path fill-rule="evenodd" clip-rule="evenodd" d="M45.4909 26.624C40.1617 17.9435 27.9914 10.1322 27.4726 11.0409C26.8129 12.1986 25.0859 26.1275 25.0859 30.3965C25.0859 31.917 46.8102 28.7746 45.4896 26.624H45.4909Z" fill="url(#paint1_linear_455_25372)"/>
<path fill-rule="evenodd" clip-rule="evenodd" d="M1.01528 5.63564C0.985984 5.74794 0.95913 5.88466 0.934717 6.04822C0.900538 6.06775 0.876125 6.08973 0.868801 6.11658C-0.285936 10.6159 -0.29326 67.1712 0.868801 70.5475C1.22035 71.5729 10.49 76.2504 10.9221 74.9565C12.758 69.4538 13.5221 57.2131 13.5636 44.616C13.8687 27.6684 12.924 6.66831 11.2517 0.320921C10.6047 -1.49541 1.2057 4.95452 1.01528 5.63564Z" fill="url(#paint2_linear_455_25372)"/>
<path fill-rule="evenodd" clip-rule="evenodd" d="M234 50.5746V48.5038H233.992C233.992 48.4065 233.939 48.1091 233.891 47.8422L233.891 47.8415L233.891 47.841L233.891 47.8407L233.891 47.8405L233.891 47.8401L233.891 47.8398C233.852 47.623 233.818 47.4267 233.818 47.3747C233.105 42.8612 229.847 39.2445 226.698 36.1607C226.49 35.9675 226.281 35.7764 226.073 35.5858C224.434 34.087 222.824 32.6153 222.195 30.3546C222.195 30.1805 222.079 29.645 222.079 29.645V25.1921C222.079 24.1211 223.556 23.2953 224.392 23.2953C225.044 23.2953 225.93 23.4694 226.231 24.3057C226.405 24.6539 226.698 25.7249 226.698 25.7249V31.2963H231.863L232.214 31.0035V25.1868L232.17 24.951C231.836 23.1338 231.506 21.337 230.201 20.0322C229.732 19.5214 229.075 19.2826 228.458 19.058L228.458 19.0579C228.218 18.9706 227.984 18.8853 227.769 18.7871C227.233 18.6604 225.756 18.1355 225.756 18.1355H221.894C221.894 18.1355 220.891 18.4863 220.533 18.6605C216.739 20.507 216.088 24.3004 216.088 28.2679V30.8268C216.439 32.8976 217.868 35.9814 219.23 37.5272C219.438 37.7731 219.645 38.0192 219.851 38.2647C220.936 39.5547 222.006 40.8286 223.208 41.9722C223.657 42.4139 224.071 42.8055 224.45 43.1645C226.868 45.4537 227.885 46.4168 227.885 50.5693V52.466C227.885 52.6344 227.848 52.9863 227.816 53.2959L227.816 53.2965L227.816 53.2972C227.791 53.5401 227.769 53.7566 227.769 53.8378C227.418 54.8956 226.046 55.3731 225.22 55.3731C223.917 55.3731 223.081 54.8982 222.371 53.8378L222.197 53.479C222.197 53.2987 222.168 52.8798 222.139 52.4632L222.139 52.4627C222.11 52.0506 222.081 51.6407 222.081 51.4662V45.4174L221.78 45.2327C221.78 45.2327 218.697 45.1166 217.394 45.1166H216.568L216.267 45.4174V49.9204C216.267 49.9859 216.292 50.3218 216.323 50.7407C216.374 51.4344 216.441 52.3556 216.441 52.6533C216.568 55.3757 217.219 56.6208 219.232 58.4595C220.712 59.8312 222.2 60.5409 224.397 60.5409H225.4C225.59 60.5409 226.189 60.4897 226.756 60.4412L226.756 60.4412C227.266 60.3976 227.751 60.3562 227.89 60.3562C229.193 60.1821 230.029 59.7046 231.1 58.8209C233.707 56.2726 234 54.1913 234 50.5746ZM214.061 50.37V50.3666V50.3611C214.071 45.2688 214.1 30.7219 214 29.3441L213.997 29.3467C213.997 29.2946 213.96 28.9061 213.919 28.4783C213.868 27.9545 213.812 27.3718 213.812 27.2759C213.812 27.2127 213.769 26.9024 213.726 26.5916L213.725 26.59C213.682 26.2788 213.638 25.9675 213.638 25.9042C213.604 25.5802 213.58 25.2458 213.555 24.9082V24.908C213.494 24.0801 213.433 23.2329 213.219 22.4722C213.219 22.4722 212.393 21.8206 212.393 21.694C212.393 21.5172 212.277 21.3431 212.277 21.3431C212.144 21.2099 212.005 21.0641 211.863 20.914L211.862 20.9127L211.861 20.9125L211.861 20.9122L211.861 20.9121C211.307 20.3283 210.69 19.6791 210.08 19.4464C209.428 19.1431 208.357 18.9689 207.59 18.9689C207.342 18.9689 206.614 18.9376 205.915 18.9076L205.915 18.9075C205.267 18.8797 204.644 18.8529 204.448 18.8529L204.274 18.6682L203.321 18.8529C202.253 18.6682 201.485 18.6682 200.356 18.6682H199.285C198.89 18.9744 198.913 19.6632 198.929 20.1505L198.929 20.1509C198.932 20.2386 198.934 20.3197 198.934 20.3908C198.934 20.6023 198.894 21.0612 198.861 21.438C198.838 21.7005 198.818 21.9232 198.818 21.9947V43.4572C198.818 43.6955 198.772 44.4875 198.725 45.2767L198.725 45.2784L198.725 45.2787C198.679 46.0618 198.634 46.8414 198.634 47.0739V60.1239C198.818 60.298 199.111 60.4246 199.285 60.4246H207.59C208.544 60.4246 209.79 60.298 210.673 59.8311C211.04 59.6892 211.332 59.3759 211.585 59.1055C211.66 59.0241 211.733 58.9466 211.802 58.8788C213.522 56.9821 214.058 54.4945 214.058 52.0042C214.058 51.7786 214.059 51.2009 214.061 50.37ZM208.544 25.9015C208.661 27.1467 208.661 46.7811 208.661 48.0262L208.658 48.0235C208.658 49.9202 208.658 51.1654 208.542 53.2467C208.357 54.782 206.822 55.3756 205.392 55.3756C205.334 55.3756 205.27 55.3803 205.202 55.3852C204.857 55.4105 204.419 55.4426 204.274 54.8981C204.274 53.9804 204.227 46.8403 204.181 39.6976C204.135 32.5497 204.089 25.3993 204.089 24.4797V24.3056C204.089 23.712 204.741 23.5379 205.218 23.5379C206.999 23.5379 208.186 24.1895 208.544 25.9015ZM195.598 26.2628V47.91L195.305 52.5977C195.126 52.9224 195.036 53.2904 194.947 53.6585C194.856 54.029 194.766 54.3997 194.585 54.7265C192.931 58.111 191.269 60.7173 187.117 60.7173H185.814C184.919 60.7173 183.732 60.4245 183.081 59.707C181.603 58.4039 180.474 56.9266 179.939 54.9033C179.287 51.7615 179.113 48.9124 178.936 45.5965V45.119C178.936 44.1056 178.98 41.2257 179.024 38.3663L179.024 38.3635L179.024 38.3587V38.3581L179.024 38.3565V38.356L179.024 38.3548C179.068 35.5389 179.11 32.7454 179.11 31.7762C179.11 26.8564 180.181 18.4333 187.592 18.4333C192.569 18.4333 194.585 21.2823 195.302 24.7829C195.476 25.0757 195.595 26.0861 195.595 26.2602L195.598 26.2628ZM189.781 35.4535V25.9041C189.781 24.9016 188.955 23.7752 187.768 23.7752H187.594C187.293 23.7752 186.465 24.1261 186.465 24.1261C186.338 24.1261 185.959 24.5384 185.69 24.83L185.69 24.8303C185.59 24.9391 185.505 25.0311 185.455 25.0784C185.455 25.0784 185.281 25.4372 185.281 25.6139C185.281 26.1191 185.237 27.4077 185.194 28.6964C185.15 29.985 185.107 31.2737 185.107 31.7788V53.6027C185.281 54.7318 186.468 55.3834 187.42 55.3834C188.955 55.3834 189.433 53.7874 189.433 52.6029C189.433 52.2339 189.479 51.2292 189.523 50.2494L189.523 50.2489V50.2487V50.2486C189.566 49.3165 189.607 48.407 189.607 48.0894C189.607 47.1841 189.649 44.5817 189.692 41.9395C189.736 39.2151 189.781 36.4485 189.781 35.4561V35.4535ZM176.193 47.91V26.2628L176.196 26.2602C176.196 26.0861 176.079 25.0757 175.895 24.7829C175.185 21.2823 173.17 18.4333 168.192 18.4333C160.771 18.4333 159.711 26.8564 159.711 31.7762C159.711 32.7461 159.665 35.5431 159.62 38.361L159.62 38.3635V38.3639L159.62 38.3649C159.573 41.2248 159.526 44.1054 159.526 45.119V45.5965C159.711 48.9124 159.885 51.7615 160.537 54.9033C161.072 56.9266 162.201 58.4039 163.678 59.707C164.33 60.4245 165.517 60.7173 166.411 60.7173H167.714C171.867 60.7173 173.521 58.111 175.183 54.7265C175.364 54.3975 175.453 54.024 175.543 53.651C175.631 53.2854 175.718 52.9202 175.892 52.5977L176.193 47.91ZM170.376 25.9041V35.4535V35.4561C170.376 36.4485 170.331 39.2151 170.287 41.9395L170.287 41.9421C170.244 44.5834 170.202 47.1844 170.202 48.0894C170.202 48.407 170.161 49.3165 170.118 50.2486C170.074 51.2287 170.028 52.2338 170.028 52.6029C170.028 53.7874 169.55 55.3834 168.005 55.3834C167.063 55.3834 165.876 54.7318 165.691 53.6027V31.7788C165.691 31.2737 165.737 29.985 165.783 28.6964C165.83 27.4077 165.876 26.1191 165.876 25.6139C165.876 25.4372 166.05 25.0784 166.05 25.0784C166.09 25.0387 166.154 24.9675 166.232 24.8814C166.497 24.5898 166.918 24.1261 167.06 24.1261C167.06 24.1261 167.889 23.7752 168.189 23.7752H168.363C169.55 23.7752 170.376 24.9016 170.376 25.9041ZM157.566 19.6787C157.566 19.6787 157.381 20.7497 157.381 21.0979C157.04 23.8051 156.714 26.5126 156.388 29.2197L156.388 29.2206L156.388 29.2215L156.388 29.2224L156.387 29.2229L156.387 29.2234L156.387 29.2239C155.871 33.5163 155.354 37.8074 154.775 42.0935C154.546 43.72 154.282 45.3642 154.017 47.0157L154.017 47.0159L154.017 47.0166C153.595 49.6399 153.171 52.2818 152.878 54.9008C152.878 55.0443 152.81 55.5642 152.738 56.1079C152.66 56.704 152.578 57.3287 152.578 57.5177C152.578 57.6338 152.404 58.2854 152.404 58.2854C152.404 58.372 152.375 58.6084 152.346 58.8457L152.346 58.8459L152.346 58.8461V58.8462C152.317 59.0855 152.287 59.3257 152.287 59.4144C152.287 59.7072 152.113 60.7756 151.636 60.7756H149.797C149.52 60.7756 149.192 60.7934 148.841 60.8125L148.841 60.8125C147.618 60.879 146.113 60.9609 145.471 60.3562C144.993 59.8892 144.342 47.3747 144.342 47.3747C144.117 45.6558 143.996 43.5587 143.876 41.4896L143.876 41.4883V41.4881L143.876 41.4878L143.876 41.4875L143.876 41.4873C143.773 39.7054 143.672 37.9444 143.506 36.4641H143.097L141.131 54.4366C141.131 54.5755 141.066 55.0887 140.996 55.6279L140.996 55.6283C140.92 56.2254 140.839 56.8544 140.839 57.0429C140.839 57.1589 140.665 57.8105 140.665 57.8105C140.665 57.8972 140.633 58.1338 140.602 58.3714L140.602 58.3715C140.57 58.6107 140.538 58.8509 140.538 58.9396C140.538 59.2403 140.364 60.3008 139.886 60.3008H137.99C137.71 60.3008 137.38 60.3188 137.026 60.3382C135.804 60.4051 134.304 60.4872 133.663 59.8919C133.186 59.4144 132.534 49.3901 132.534 49.3901C131.941 43.9928 131.347 38.6641 130.696 33.1983C130.261 30.2304 129.981 27.1574 129.706 24.1269L129.705 24.1199C129.678 23.8262 129.651 23.5328 129.625 23.2399C129.451 21.9948 129.332 20.7497 129.332 19.3304V18.7369L129.448 18.5522H133.658C134.61 18.5522 134.61 19.6813 134.61 20.2748C134.61 20.3603 134.638 20.7038 134.667 21.0533L134.667 21.0548L134.667 21.0568L134.667 21.0571L134.667 21.0575L134.667 21.0577C134.697 21.4187 134.727 21.7851 134.727 21.8787C134.94 23.0708 135.266 25.9189 135.517 28.1076C135.677 29.508 135.806 30.6385 135.856 30.8927C135.856 31.1248 136.089 33.1334 136.324 35.1532L136.324 35.1534L136.324 35.1537C136.561 37.1961 136.8 39.2498 136.8 39.4898C136.8 39.5419 136.823 39.9412 136.849 40.3812L136.849 40.3828L136.849 40.3833C136.881 40.9228 136.916 41.5228 136.916 41.6186C136.916 41.712 136.963 41.9543 137.01 42.1939C137.056 42.4284 137.101 42.6603 137.101 42.7477C137.101 43.0484 137.217 43.8187 137.694 43.8187H137.868C137.868 43.8187 137.984 43.5259 137.984 43.3993C137.984 43.3122 138.028 42.8671 138.071 42.4219C138.115 41.9768 138.159 41.5316 138.159 41.4446L138.209 41.0894C138.7 37.6185 139.602 31.243 140.005 27.9276C140.015 27.8465 140.042 27.6047 140.081 27.2513V27.2512L140.081 27.2504L140.081 27.2502C140.274 25.5219 140.764 21.1286 141.008 19.7974L141.015 19.7605C141.183 18.9626 141.244 18.6693 145.334 18.7369H145.46C146.405 18.7369 146.405 19.7974 146.405 20.4489C146.405 20.5426 146.435 20.9093 146.464 21.2706C146.493 21.6214 146.521 21.9671 146.521 22.0528C146.726 23.1681 146.871 25.733 146.991 27.8405V27.8407C147.08 29.4268 147.156 30.7539 147.23 31.0087C147.23 31.2842 147.467 33.0949 147.697 34.8536C147.914 36.5144 148.125 38.1289 148.125 38.3608C148.125 38.4121 148.241 39.0551 148.37 39.7725L148.37 39.7727C148.534 40.6774 148.718 41.7003 148.718 41.8033C148.718 41.8891 148.746 42.1196 148.775 42.3534C148.804 42.5943 148.834 42.8387 148.834 42.9324C148.834 43.2252 149.486 44.1194 149.963 41.6186C150.58 37.953 151.085 33.6722 151.477 30.3457L151.477 30.3454L151.478 30.3405C151.573 29.5299 151.662 28.7761 151.744 28.1017C151.753 28.0247 151.778 27.8028 151.814 27.4781L151.815 27.4725L151.816 27.4683L151.816 27.463C152.006 25.7627 152.503 21.3145 152.754 19.982C152.754 19.7974 152.87 19.3885 152.87 19.3885C152.87 19.3885 153.045 18.911 153.163 18.911H157.083C157.561 18.911 157.561 19.3885 157.561 19.6787H157.566ZM127.363 50.2678C127.375 45.0936 127.41 30.7136 127.301 29.3441L127.296 29.3467C127.296 29.2947 127.261 28.9076 127.222 28.4809L127.222 28.479L127.222 28.4783L127.222 28.4779C127.175 27.9542 127.122 27.3717 127.122 27.2759C127.122 27.2126 127.079 26.9013 127.035 26.59C126.991 26.2788 126.948 25.9675 126.948 25.9042C126.914 25.5801 126.889 25.2457 126.864 24.9081C126.804 24.0802 126.742 23.2329 126.529 22.4722C126.529 22.4722 125.703 21.8206 125.703 21.694C125.703 21.5172 125.587 21.3431 125.587 21.3431C125.439 21.1973 125.285 21.0365 125.128 20.8713C124.581 20.2984 123.985 19.6737 123.389 19.4464C122.738 19.1431 121.667 18.9689 120.899 18.9689C120.651 18.9689 119.924 18.9376 119.224 18.9075C118.577 18.8797 117.954 18.8529 117.757 18.8529L117.573 18.6682L116.628 18.8529C115.56 18.6682 114.792 18.6682 113.663 18.6682H112.592C112.189 18.975 112.212 19.666 112.228 20.1534L112.228 20.1536C112.231 20.2402 112.233 20.3204 112.233 20.3908C112.233 20.6023 112.193 21.0611 112.16 21.438V21.438V21.4381L112.16 21.4381C112.137 21.7006 112.117 21.9232 112.117 21.9947V43.4572C112.117 43.6956 112.073 44.4883 112.03 45.2778L112.03 45.278L112.03 45.2784C111.986 46.0616 111.943 46.8414 111.943 47.0739V60.1239C112.117 60.298 112.421 60.4246 112.595 60.4246H120.899C121.843 60.4246 123.089 60.298 123.983 59.8311C124.35 59.6892 124.642 59.3759 124.894 59.1055C124.97 59.0241 125.042 58.9466 125.112 58.8788C126.835 56.9821 127.359 54.4945 127.359 52.0042C127.359 51.7698 127.361 51.1554 127.363 50.2719V50.2698V50.2678ZM121.844 25.9015C121.97 27.1458 121.97 46.7554 121.97 48.0237C121.97 49.9203 121.97 51.1654 121.844 53.2467C121.667 54.782 120.131 55.3756 118.702 55.3756C118.644 55.3756 118.58 55.3803 118.512 55.3852H118.512H118.512C118.167 55.4105 117.727 55.4427 117.573 54.8981C117.573 53.9804 117.529 46.8403 117.486 39.6976C117.442 32.5497 117.399 25.3993 117.399 24.4797V24.3056C117.399 23.712 118.05 23.5379 118.528 23.5379C120.308 23.5379 121.493 24.1895 121.844 25.9015ZM109.386 54.8445L109.386 54.8498L102.152 54.9764C101.968 54.9764 101.675 54.673 101.675 54.5569V53.4859C101.675 53.3699 101.617 52.6022 101.617 52.6022C101.617 51.6804 101.67 49.2984 101.718 47.177L101.718 47.1768L101.718 47.1758C101.756 45.4731 101.791 43.9385 101.791 43.4617C101.754 43.277 101.81 42.7376 101.856 42.2909L101.856 42.2909C101.883 42.0294 101.907 41.7997 101.907 41.6916C102.208 41.2141 102.5 41.2141 103.152 41.2141H103.152C103.65 41.2141 104.162 41.2423 104.681 41.2709H104.681L104.681 41.2709C105.216 41.3003 105.759 41.3302 106.302 41.3302C106.355 41.3195 106.425 41.3108 106.503 41.3012C106.848 41.258 107.352 41.1952 107.304 40.8527C107.304 40.708 107.348 40.2508 107.391 39.7926L107.391 39.7924C107.435 39.332 107.478 38.8706 107.478 38.7238C107.478 38.7238 107.42 37.8296 107.42 37.4787V36.4684C107.304 35.9909 107.127 35.9909 106.827 35.9909C106.333 36.0139 105.83 36.0552 105.325 36.0966L105.325 36.0966C104.557 36.1597 103.785 36.2231 103.033 36.2231C102.556 36.2231 102.147 36.223 101.788 35.7561V34.453C101.75 32.4155 101.83 30.0716 101.909 27.7801L101.909 27.78L101.909 27.7796C101.955 26.4635 101.999 25.1647 102.02 23.9512C102.205 23.5423 102.495 23.3577 102.973 23.3577C104.034 23.3231 105.073 23.3503 106.129 23.378C106.845 23.3968 107.569 23.4157 108.312 23.4157H108.905L109.198 23.1229C109.198 23.1229 109.256 21.0996 109.256 20.2159V19.923C109.256 19.5616 109.082 18.6674 109.082 18.6674L108.789 18.5513C108.789 18.5513 101.556 18.3772 98.5303 18.4933H96.507L96.2142 18.794V19.8545C96.2558 20.921 96.2079 27.5597 96.1775 31.7821L96.1775 31.7831L96.1775 31.7836C96.1655 33.451 96.1562 34.7414 96.1562 35.1626C96.1562 42.9894 96.0981 50.877 95.9715 58.7645V59.0573C95.9715 59.3581 95.9715 59.9516 96.449 59.9516C96.9251 59.9516 98.2454 59.9661 99.5657 59.9806C100.886 59.9951 102.206 60.0096 102.683 60.0096C102.966 60.0096 104.178 60.0645 105.424 60.1209C106.741 60.1805 108.096 60.2418 108.431 60.2418H108.908C109.027 60.1838 109.201 60.1837 109.201 60.1837C109.317 60.1837 109.502 59.8909 109.502 59.8909L109.386 54.8498L109.388 54.8498L109.386 54.8445ZM92.9725 58.5761C92.8886 58.3179 92.806 58.0638 92.7608 57.8097H92.7634C92.2859 55.7969 92.2859 51.7608 92.2859 47.4345C92.2859 47.3765 92.2127 46.324 92.1395 45.2714C92.0663 44.2189 91.9931 43.1663 91.9931 43.1083C91.6924 41.0955 90.6214 40.2012 89.7377 39.7238C89.454 39.548 89.2262 39.5016 89.0515 39.4661C88.7518 39.4051 88.6086 39.376 88.6086 38.7794C88.6086 38.577 89.0932 38.1927 89.6017 37.7895C90.0014 37.4725 90.4159 37.1439 90.6214 36.8827C92.1672 35.0466 92.2833 30.475 92.2833 28.3356C92.2833 24.9617 91.9931 21.0997 88.9093 19.0289C87.7223 18.2612 81.1405 18.2032 76.7536 18.2613C75.9173 18.2613 75.6272 18.4354 75.7432 19.5064C75.7432 22.515 75.7633 27.4825 75.7867 33.2866C75.8197 41.4414 75.8593 51.2478 75.8593 59.5929C75.9173 59.9543 76.3341 60.0704 76.685 60.0704C76.8164 60.0704 76.9285 60.0534 77.0312 60.0378C77.1183 60.0246 77.1987 60.0124 77.2785 60.0124C77.4299 60.0124 78.2122 60.0565 78.9892 60.1003C79.7559 60.1435 80.5176 60.1865 80.663 60.1865C80.6454 60.1688 80.7536 60.1729 80.9126 60.1789C81.2769 60.1925 81.9082 60.2162 81.9082 60.0124V42.4593C81.9082 42.4057 81.8725 42.2171 81.8335 42.0105C81.7863 41.7603 81.7341 41.4837 81.7341 41.3883C81.7341 40.9689 81.9082 40.7948 82.3856 40.7948C83.1559 40.7948 86.121 41.0269 86.121 43.7018C86.121 44.0806 86.155 44.9425 86.2002 46.0865C86.2893 48.3442 86.4217 51.7009 86.4217 54.6125C86.4217 54.7592 86.4212 54.9095 86.4207 55.0625C86.4153 56.7023 86.4087 58.6638 87.0047 60.1838H92.1092C92.1762 60.1838 92.2551 60.1898 92.3396 60.1962C92.7112 60.2244 93.191 60.2607 93.2382 59.833C93.2382 59.3937 93.1038 58.9799 92.9725 58.5761ZM86.1678 31.1771C86.1419 32.3299 86.1184 33.3783 86.1184 34.7406L86.1157 34.7433C85.6383 36.2891 84.2771 36.7561 82.8578 36.7561H82.8578C82.4991 36.7561 82.2063 36.7561 82.0796 36.4632C82.0796 35.6815 82.0351 33.4152 81.9911 31.1745C81.9481 28.9841 81.9055 26.8183 81.9055 26.0881C81.9055 26.0414 81.9017 25.9644 81.8967 25.8655C81.8632 25.1985 81.78 23.5398 82.4991 23.5398C84.2797 23.5398 85.815 24.0041 86.2344 25.7267C86.2344 28.2066 86.1994 29.7696 86.1678 31.1771Z" fill="url(#paint3_linear_455_25372)"/>
<defs>
<linearGradient id="paint0_linear_455_25372" x1="27.4295" y1="46.5557" x2="71.4628" y2="91.7608" gradientUnits="userSpaceOnUse">
<stop stop-color="#3E0D12"/>
<stop offset="1" stop-color="#6F1A08"/>
</linearGradient>
<linearGradient id="paint1_linear_455_25372" x1="28.6461" y1="27.267" x2="41.1292" y2="6.03906" gradientUnits="userSpaceOnUse">
<stop stop-color="#3E0D12"/>
<stop offset="1" stop-color="#6F1A08"/>
</linearGradient>
<linearGradient id="paint2_linear_455_25372" x1="13.6385" y1="37.5881" x2="-3.12749" y2="-24.6535" gradientUnits="userSpaceOnUse">
<stop stop-color="#3E0D12"/>
<stop offset="1" stop-color="#6F1A08"/>
</linearGradient>
<linearGradient id="paint3_linear_455_25372" x1="157.666" y1="52.493" x2="177.846" y2="2.37435" gradientUnits="userSpaceOnUse">
<stop stop-color="#3E0D12"/>
<stop offset="1" stop-color="#6F1A08"/>
</linearGradient>
</defs>
</svg>
