<svg width="234" height="79" viewBox="0 0 234 79" fill="none" xmlns="http://www.w3.org/2000/svg">
<path fill-rule="evenodd" clip-rule="evenodd" d="M24.6115 41.1365C24.2201 40.9221 23.9487 63.8878 27.2832 78.4012C27.5395 79.9312 36.2072 78.4012 44.1085 74.8311C52.0124 71.261 60.6876 63.0703 60.0549 61.6994C59.4222 60.3284 29.9955 44.0857 24.6115 41.1365Z" fill="url(#paint0_linear_455_25372)"/>
<path fill-rule="evenodd" clip-rule="evenodd" d="M45.7594 26.624C40.4303 17.9435 28.26 10.1322 27.7411 11.0409C27.0815 12.1986 25.3545 26.1275 25.3545 30.3965C25.3545 31.917 47.0787 28.7746 45.7582 26.624H45.7594Z" fill="url(#paint1_linear_455_25372)"/>
<path fill-rule="evenodd" clip-rule="evenodd" d="M1.28383 5.63564C1.25454 5.74794 1.22768 5.88466 1.20327 6.04822C1.16909 6.06775 1.14468 6.08973 1.13736 6.11658C-0.0173809 10.6159 -0.0247049 67.1712 1.13736 70.5475C1.4889 71.5729 10.7585 76.2504 11.1906 74.9565C13.0265 69.4538 13.7906 57.2131 13.8321 44.616C14.1373 27.6684 13.1925 6.66831 11.5202 0.320921C10.8733 -1.49541 1.47426 4.95452 1.28383 5.63564Z" fill="url(#paint2_linear_455_25372)"/>
<path fill-rule="evenodd" clip-rule="evenodd" d="M233.73 50.5738V48.5031H233.722C233.722 48.4055 233.669 48.1067 233.622 47.8391C233.583 47.6223 233.548 47.4261 233.548 47.3741C232.836 42.8609 229.578 39.2444 226.429 36.1608C226.222 35.9682 226.014 35.7777 225.806 35.5876L225.805 35.5872L225.804 35.5859C224.165 34.0873 222.556 32.6156 221.926 30.355C221.926 30.1809 221.81 29.6455 221.81 29.6455V25.1928C221.81 24.1219 223.287 23.2962 224.123 23.2962C224.775 23.2962 225.661 23.4703 225.962 24.3065C226.136 24.6547 226.429 25.7257 226.429 25.7257V31.2967H231.594L231.944 31.0039V25.1876L231.901 24.9517C231.567 23.1346 231.236 21.338 229.932 20.0333C229.463 19.5225 228.807 19.2837 228.189 19.0592L228.189 19.0591C227.949 18.9717 227.715 18.8865 227.5 18.7882C226.964 18.6616 225.487 18.1367 225.487 18.1367H221.625C221.625 18.1367 220.623 18.4875 220.264 18.6616C216.471 20.5081 215.82 24.3012 215.82 28.2685V30.8272C216.17 32.8979 217.6 35.9815 218.961 37.5272C219.169 37.7725 219.375 38.0179 219.581 38.2628L219.583 38.2645C220.667 39.5545 221.738 40.8284 222.939 41.9719C223.389 42.4136 223.802 42.8052 224.181 43.1642C226.599 45.4532 227.616 46.4163 227.616 50.5685V52.4651C227.616 52.6334 227.58 52.985 227.547 53.2945L227.547 53.295L227.547 53.2955L227.547 53.2962C227.522 53.5391 227.5 53.7556 227.5 53.8368C227.149 54.8945 225.777 55.3719 224.952 55.3719C223.649 55.3719 222.812 54.8972 222.103 53.8368L221.929 53.478C221.929 53.2977 221.899 52.8788 221.87 52.4622L221.87 52.4618L221.87 52.461V52.4608L221.87 52.4601C221.841 52.0485 221.813 51.6396 221.813 51.4654V45.4169L221.512 45.2322C221.512 45.2322 218.428 45.1162 217.125 45.1162H216.3L215.999 45.4169V49.9196C215.999 49.9852 216.024 50.3211 216.054 50.7399L216.054 50.7406L216.055 50.743L216.055 50.7447C216.106 51.4378 216.173 52.3554 216.173 52.6524C216.3 55.3746 216.951 56.6196 218.964 58.4582C220.444 59.8299 221.931 60.5394 224.129 60.5394H225.131C225.321 60.5394 225.92 60.4883 226.487 60.4398C226.997 60.3962 227.482 60.3548 227.621 60.3548C228.924 60.1807 229.76 59.7032 230.831 58.8196C233.437 56.2715 233.73 54.1902 233.73 50.5738ZM213.793 50.3695V50.3664V50.3613C213.803 45.2702 213.832 30.7225 213.733 29.3448L213.73 29.3474C213.73 29.2952 213.693 28.9068 213.652 28.4791L213.651 28.4778L213.651 28.4749C213.601 27.9522 213.545 27.3723 213.545 27.2767C213.545 27.2134 213.502 26.9021 213.458 26.5909C213.415 26.2796 213.371 25.9684 213.371 25.9051C213.337 25.5811 213.312 25.2467 213.288 24.9091V24.9089C213.227 24.0811 213.165 23.2339 212.952 22.4733C212.952 22.4733 212.126 21.8217 212.126 21.6951C212.126 21.5184 212.01 21.3443 212.01 21.3443C211.877 21.2112 211.739 21.0655 211.596 20.9154L211.595 20.9142L211.595 20.9141L211.595 20.9139L211.594 20.9137L211.594 20.9135C211.04 20.3297 210.423 19.6804 209.813 19.4477C209.161 19.1444 208.09 18.9703 207.323 18.9703C207.075 18.9703 206.347 18.9389 205.648 18.9089C205.001 18.881 204.378 18.8542 204.181 18.8542L204.007 18.6695L203.055 18.8542C201.986 18.6696 201.219 18.6695 200.09 18.6695H199.019C198.623 18.9757 198.646 19.6645 198.662 20.1517L198.662 20.1522C198.665 20.2398 198.668 20.3209 198.668 20.392C198.668 20.6029 198.628 21.0596 198.595 21.4358L198.595 21.4364L198.595 21.4367V21.4368L198.595 21.438L198.595 21.4387L198.595 21.4392C198.572 21.7017 198.552 21.9244 198.552 21.9958V43.457C198.552 43.6953 198.506 44.4879 198.459 45.2774L198.459 45.2777L198.459 45.2781C198.413 46.0612 198.367 46.841 198.367 47.0734V60.1227C198.552 60.2967 198.845 60.4234 199.019 60.4234H207.323C208.278 60.4234 209.523 60.2967 210.406 59.8299C210.773 59.6879 211.065 59.3746 211.317 59.1043C211.393 59.0229 211.466 58.9454 211.535 58.8776C213.255 56.981 213.791 54.4936 213.791 52.0035C213.791 51.7778 213.792 51.2002 213.793 50.3695ZM208.278 25.9024C208.394 27.1475 208.394 46.7806 208.394 48.0257L208.391 48.023C208.391 49.9196 208.391 51.1647 208.275 53.2459C208.09 54.7811 206.555 55.3746 205.125 55.3746C205.068 55.3746 205.004 55.3793 204.936 55.3843C204.591 55.4095 204.152 55.4416 204.007 54.8972C204.007 53.9807 203.961 46.8576 203.915 39.7242L203.915 39.7111L203.915 39.7022L203.915 39.6976C203.869 32.5502 203.822 25.4002 203.822 24.4806V24.3065C203.822 23.713 204.474 23.5389 204.951 23.5389C206.732 23.5389 207.919 24.1905 208.278 25.9024ZM195.331 26.2634V47.9093L195.039 52.5966C194.86 52.9213 194.77 53.2893 194.68 53.6574C194.59 54.0279 194.5 54.3985 194.319 54.7253C192.665 58.1096 191.003 60.7158 186.851 60.7158H185.548C184.654 60.7158 183.467 60.423 182.815 59.7055C181.338 58.4024 180.209 56.9253 179.673 54.9021C179.022 51.7605 178.848 48.9116 178.671 45.5959V45.1184C178.671 44.1048 178.715 41.2235 178.759 38.3634L178.759 38.3585V38.3579L178.759 38.3562V38.3555L178.759 38.3537C178.802 35.5384 178.845 32.7455 178.845 31.7764C178.845 26.8569 179.916 18.4344 187.326 18.4344C192.303 18.4344 194.319 21.2832 195.036 24.7836C195.21 25.0764 195.329 26.0867 195.329 26.2608L195.331 26.2634ZM189.515 35.4535V25.9047C189.515 24.9023 188.689 23.776 187.502 23.776H187.328C187.028 23.776 186.199 24.1268 186.199 24.1268C186.073 24.1268 185.693 24.5391 185.424 24.8307C185.324 24.9396 185.239 25.0317 185.189 25.079C185.189 25.079 185.015 25.4378 185.015 25.6145C185.015 26.1197 184.971 27.4082 184.928 28.6968C184.884 29.9854 184.841 31.2739 184.841 31.7791V53.6016C185.015 54.7306 186.202 55.3821 187.154 55.3821C188.689 55.3821 189.167 53.7863 189.167 52.6019C189.167 52.2328 189.213 51.2277 189.257 50.2477L189.257 50.2468C189.3 49.315 189.341 48.4061 189.341 48.0886C189.341 47.1837 189.383 44.5829 189.426 41.9418L189.426 41.9391C189.47 39.2149 189.515 36.4484 189.515 35.4562V35.4535ZM175.927 47.9094V26.2636L175.93 26.2609C175.93 26.0868 175.814 25.0766 175.629 24.7838C174.92 21.2834 172.904 18.4346 167.927 18.4346C160.507 18.4346 159.446 26.8571 159.446 31.7766C159.446 32.7467 159.401 35.5449 159.355 38.3635L159.355 38.3679L159.355 38.3686C159.308 41.2271 159.262 44.1055 159.262 45.1186V45.5961C159.446 48.9118 159.62 51.7606 160.272 54.9022C160.807 56.9254 161.936 58.4026 163.414 59.7057C164.065 60.4231 165.252 60.7159 166.146 60.7159H167.449C171.601 60.7159 173.255 58.1098 174.917 54.7255C175.098 54.3965 175.188 54.0231 175.277 53.6501C175.365 53.2845 175.453 52.9193 175.627 52.5968L175.927 47.9094ZM170.111 25.9048V35.4537V35.4563C170.111 36.4481 170.066 39.2124 170.022 41.9353L170.022 41.9393C169.979 44.5813 169.937 47.1836 169.937 48.0888C169.937 48.4064 169.896 49.3158 169.853 50.2479V50.248V50.2482L169.853 50.2488L169.853 50.2492C169.808 51.2288 169.763 52.2331 169.763 52.602C169.763 53.7864 169.285 55.3823 167.74 55.3823C166.798 55.3823 165.611 54.7308 165.426 53.6018V31.7792C165.426 31.2741 165.472 29.9855 165.519 28.697C165.565 27.4084 165.611 26.1198 165.611 25.6147C165.611 25.4379 165.785 25.0792 165.785 25.0792C165.825 25.0395 165.889 24.9684 165.967 24.8823L165.967 24.8822L165.967 24.8822C166.232 24.5906 166.653 24.127 166.795 24.127C166.795 24.127 167.624 23.7761 167.924 23.7761H168.098C169.285 23.7761 170.111 24.9025 170.111 25.9048ZM157.829 19.6797C157.829 19.6797 157.645 20.7506 157.645 21.0988C157.303 23.8057 156.977 26.5131 156.651 29.2199L156.651 29.2208L156.651 29.2216L156.651 29.2225L156.651 29.223L156.651 29.2236L156.651 29.2241C156.134 33.5163 155.617 37.8072 155.038 42.0931C154.809 43.7196 154.545 45.3638 154.28 47.0153L154.28 47.0156C153.859 49.6388 153.435 52.2807 153.142 54.8997C153.142 55.0431 153.073 55.5629 153.002 56.1066V56.1067L153.002 56.1069L153.002 56.1071C152.923 56.7029 152.841 57.3274 152.841 57.5163C152.841 57.6324 152.667 58.2839 152.667 58.2839C152.667 58.3706 152.638 58.6069 152.609 58.8442L152.609 58.8444L152.609 58.8447V58.8448L152.609 58.845L152.609 58.8452V58.8453C152.58 59.0844 152.551 59.3243 152.551 59.4129C152.551 59.7057 152.377 60.774 151.899 60.774H150.061C149.783 60.774 149.456 60.7918 149.105 60.8109C147.881 60.8775 146.377 60.9593 145.735 60.3546C145.257 59.8877 144.606 47.374 144.606 47.374C144.381 45.6549 144.26 43.5573 144.14 41.4879V41.4877L144.14 41.4874L144.14 41.4871L144.14 41.4869C144.037 39.7051 143.936 37.9443 143.77 36.464H143.361L141.396 54.4354C141.396 54.5744 141.33 55.0877 141.26 55.6271C141.184 56.2241 141.103 56.8531 141.103 57.0416C141.103 57.1576 140.929 57.8091 140.929 57.8091C140.929 57.8958 140.897 58.1323 140.866 58.3698L140.866 58.3699L140.866 58.3701C140.834 58.6093 140.802 58.8494 140.802 58.9381C140.802 59.2388 140.628 60.2992 140.151 60.2992H138.254C137.975 60.2992 137.644 60.3173 137.29 60.3367C136.068 60.4035 134.568 60.4856 133.928 59.8904C133.451 59.4129 132.799 49.3893 132.799 49.3893C132.206 43.9923 131.612 38.664 130.961 33.1984C130.526 30.2308 130.246 27.1581 129.971 24.1279V24.1278L129.971 24.1277L129.971 24.1277L129.97 24.1207L129.969 24.1109L129.968 24.0978C129.942 23.8117 129.916 23.5259 129.89 23.2407C129.716 21.9957 129.597 20.7506 129.597 19.3315V18.738L129.713 18.5533H133.923C134.875 18.5533 134.875 19.6823 134.875 20.2758C134.875 20.3616 134.903 20.7073 134.932 21.058C134.961 21.4193 134.991 21.7859 134.991 21.8796C135.205 23.0715 135.531 25.919 135.781 28.1076L135.781 28.1081C135.941 29.5084 136.071 30.6388 136.12 30.893C136.12 31.1251 136.354 33.1331 136.588 35.1525L136.588 35.1533C136.826 37.1957 137.064 39.2495 137.064 39.4896C137.064 39.5418 137.088 39.9419 137.114 40.3825C137.145 40.9222 137.181 41.5224 137.181 41.6183C137.181 41.7116 137.228 41.9539 137.274 42.1935C137.32 42.428 137.365 42.6599 137.365 42.7473C137.365 43.048 137.481 43.8182 137.959 43.8182H138.133C138.133 43.8182 138.249 43.5254 138.249 43.3988C138.249 43.3118 138.292 42.8666 138.336 42.4215C138.379 41.9764 138.423 41.5313 138.423 41.4442L138.473 41.0892C138.964 37.6184 139.867 31.2433 140.269 27.9281C140.279 27.847 140.306 27.6054 140.346 27.2522L140.346 27.2511L140.346 27.2504L140.346 27.2481C140.539 25.518 141.029 21.1288 141.272 19.7984L141.28 19.7615C141.447 18.9637 141.508 18.6704 145.598 18.738H145.724C146.669 18.738 146.669 19.7984 146.669 20.4499C146.669 20.5435 146.699 20.9099 146.728 21.271L146.728 21.2715C146.757 21.6222 146.785 21.9679 146.785 22.0537C146.989 23.1689 147.135 25.7336 147.254 27.841V27.8411C147.344 29.4272 147.42 30.7542 147.494 31.009C147.494 31.2844 147.731 33.095 147.961 34.8536V34.8537L147.961 34.8545C148.178 36.5148 148.389 38.1288 148.389 38.3606C148.389 38.4119 148.505 39.0549 148.634 39.7722L148.634 39.7738C148.798 40.6782 148.982 41.7 148.982 41.8029C148.982 41.8887 149.01 42.1192 149.039 42.353L149.039 42.3532C149.068 42.594 149.098 42.8383 149.098 42.9319C149.098 43.2247 149.75 44.1189 150.227 41.6183C150.844 37.9529 151.348 33.6724 151.74 30.3461L151.741 30.346C151.836 29.5335 151.925 28.7779 152.008 28.1022C152.017 28.024 152.043 27.7966 152.08 27.4638C152.27 25.7639 152.766 21.3155 153.018 19.983C153.018 19.7984 153.134 19.3895 153.134 19.3895C153.134 19.3895 153.308 18.9121 153.427 18.9121H157.347C157.824 18.9121 157.824 19.3895 157.824 19.6797H157.829ZM127.628 50.2674C127.641 45.0935 127.675 30.7143 127.567 29.3449L127.561 29.3476C127.561 29.2954 127.526 28.9069 127.487 28.4792L127.487 28.4787C127.44 27.955 127.387 27.3727 127.387 27.2769C127.387 27.2136 127.344 26.9023 127.3 26.591C127.257 26.2798 127.213 25.9685 127.213 25.9052C127.179 25.5813 127.154 25.2469 127.13 24.9094L127.13 24.9093L127.13 24.9092C127.069 24.0813 127.007 23.2341 126.794 22.4734C126.794 22.4734 125.968 21.8219 125.968 21.6953C125.968 21.5186 125.852 21.3444 125.852 21.3444C125.704 21.1987 125.55 21.0378 125.393 20.8727C124.846 20.2998 124.251 19.6752 123.655 19.4479C123.003 19.1445 121.932 18.9704 121.165 18.9704C120.917 18.9704 120.189 18.9391 119.49 18.909C118.843 18.8812 118.22 18.8544 118.023 18.8544L117.838 18.6697L116.894 18.8544C115.826 18.6697 115.058 18.6697 113.929 18.6697H112.858C112.455 18.9765 112.478 19.6674 112.494 20.1548L112.494 20.155C112.497 20.2416 112.499 20.3218 112.499 20.3922C112.499 20.6036 112.459 21.0623 112.426 21.4391L112.426 21.4392L112.426 21.4393V21.4394L112.426 21.4395C112.403 21.7019 112.383 21.9245 112.383 21.996V43.4572C112.383 43.6956 112.34 44.4886 112.296 45.2783C112.252 46.0613 112.209 46.8411 112.209 47.0736V60.1228C112.383 60.2969 112.687 60.4235 112.861 60.4235H121.165C122.109 60.4235 123.354 60.2969 124.248 59.83C124.615 59.6881 124.907 59.3748 125.159 59.1045C125.235 59.0231 125.308 58.9455 125.377 58.8778C127.1 56.9812 127.625 54.4937 127.625 52.0036C127.625 51.7692 127.626 51.1548 127.628 50.2713V50.2693V50.2674ZM122.109 25.9026C122.236 27.1469 122.236 46.7569 122.236 48.0235C122.236 49.9199 122.236 51.165 122.109 53.2461C121.932 54.7813 120.397 55.3748 118.967 55.3748C118.91 55.3748 118.846 55.3795 118.778 55.3844H118.778C118.433 55.4097 117.993 55.4419 117.838 54.8973C117.838 53.9798 117.795 46.8409 117.751 39.6991L117.751 39.6978C117.708 32.5504 117.664 25.4004 117.664 24.4808V24.3067C117.664 23.7132 118.316 23.5391 118.793 23.5391C120.574 23.5391 121.758 24.1906 122.109 25.9026ZM109.653 54.8438L109.653 54.8491L102.42 54.9757C102.235 54.9757 101.942 54.6723 101.942 54.5563V53.4853C101.942 53.3693 101.884 52.6016 101.884 52.6016C101.884 51.6799 101.938 49.2982 101.986 47.1769L101.986 47.1766C102.024 45.4736 102.058 43.9386 102.058 43.4617C102.022 43.277 102.078 42.7376 102.124 42.291V42.291C102.151 42.0295 102.175 41.7998 102.175 41.6917C102.475 41.2143 102.768 41.2143 103.419 41.2143H103.42C103.917 41.2143 104.429 41.2424 104.949 41.271C105.483 41.3004 106.026 41.3303 106.569 41.3303C106.623 41.3197 106.692 41.311 106.77 41.3013C107.116 41.2582 107.619 41.1954 107.571 40.8529C107.571 40.7081 107.615 40.2509 107.658 39.7927L107.658 39.7926C107.702 39.3323 107.746 38.8709 107.746 38.7242C107.746 38.7242 107.688 37.8299 107.688 37.4791V36.4688C107.571 35.9914 107.395 35.9914 107.094 35.9914C106.6 36.0144 106.097 36.0557 105.593 36.0971L105.592 36.0971C104.824 36.1601 104.052 36.2235 103.301 36.2235C102.823 36.2235 102.415 36.2235 102.056 35.7566V34.4536C102.017 32.4162 102.098 30.0723 102.177 27.7809V27.7809C102.222 26.4648 102.267 25.1659 102.288 23.9524C102.473 23.5436 102.763 23.3589 103.24 23.3589C104.301 23.3244 105.34 23.3516 106.396 23.3793C107.112 23.398 107.836 23.417 108.579 23.417H109.173L109.465 23.1242C109.465 23.1242 109.523 21.101 109.523 20.2173V19.9245C109.523 19.5631 109.349 18.6689 109.349 18.6689L109.057 18.5529C109.057 18.5529 101.824 18.3788 98.7981 18.4948H96.7749L96.4821 18.7956V19.856C96.5237 20.9224 96.4759 27.5616 96.4454 31.7837V31.7838L96.4454 31.7843C96.4334 33.4516 96.4241 34.7419 96.4241 35.1631C96.4241 42.9895 96.3661 50.8765 96.2395 58.7636V59.0564C96.2395 59.3571 96.2395 59.9506 96.7169 59.9506C97.193 59.9506 98.5132 59.9651 99.8335 59.9796C101.154 59.9941 102.474 60.0086 102.95 60.0086C103.233 60.0086 104.445 60.0634 105.69 60.1198L105.691 60.1198C107.008 60.1794 108.363 60.2407 108.698 60.2407H109.175C109.294 60.1827 109.468 60.1827 109.468 60.1827C109.584 60.1827 109.769 59.8899 109.769 59.8899L109.653 54.8491L109.655 54.8491L109.653 54.8438ZM93.24 58.5749C93.1561 58.3167 93.0735 58.0626 93.0282 57.8085H93.0309C92.5534 55.7958 92.5534 51.76 92.5534 47.434C92.5534 47.376 92.4802 46.3235 92.407 45.271C92.3338 44.2185 92.2606 43.166 92.2606 43.108C91.9599 41.0954 90.889 40.2012 90.0053 39.7237C89.7217 39.5479 89.4939 39.5016 89.3192 39.4661C89.0195 39.4051 88.8763 39.376 88.8763 38.7794C88.8763 38.5771 89.3609 38.1928 89.8694 37.7896C90.2691 37.4726 90.6835 37.144 90.889 36.8828C92.4347 35.0469 92.5508 30.4756 92.5508 28.3363C92.5508 24.9625 92.2606 21.1008 89.177 19.0301C87.99 18.2625 81.4087 18.2045 77.0221 18.2625C76.1859 18.2625 75.8957 18.4366 76.0118 19.5076C76.0118 22.5161 76.0318 27.4832 76.0553 33.2869C76.0882 41.4413 76.1278 51.247 76.1278 59.5916C76.1859 59.953 76.6027 60.0691 76.9535 60.0691C77.0849 60.0691 77.1969 60.0521 77.2997 60.0365C77.3868 60.0233 77.4671 60.0111 77.547 60.0111C77.6983 60.0111 78.4805 60.0552 79.2575 60.099C80.0242 60.1422 80.7859 60.1852 80.9313 60.1852C80.9136 60.1675 81.0218 60.1716 81.1809 60.1775C81.5451 60.1912 82.1763 60.2149 82.1763 60.0111V42.4591C82.1763 42.4054 82.1407 42.2169 82.1017 42.0103C82.0545 41.7601 82.0022 41.4835 82.0022 41.3882C82.0022 40.9687 82.1763 40.7946 82.6538 40.7946C83.424 40.7946 86.3889 41.0268 86.3889 43.7015C86.3889 44.0803 86.4229 44.9421 86.468 46.0861C86.5571 48.3437 86.6896 51.7001 86.6896 54.6115C86.6896 54.7583 86.6891 54.9085 86.6886 55.0615C86.6831 56.7012 86.6766 58.6625 87.2725 60.1825H92.3767C92.4436 60.1825 92.5225 60.1885 92.607 60.1949C92.9786 60.223 93.4584 60.2594 93.5057 59.8317C93.5057 59.3924 93.3712 58.9787 93.24 58.5749ZM86.4356 31.1776C86.4098 32.3303 86.3862 33.3786 86.3862 34.7409L86.3836 34.7435C85.9062 36.2893 84.5451 36.7562 83.1259 36.7562C82.7672 36.7562 82.4744 36.7562 82.3478 36.4634C82.3478 35.6817 82.3033 33.4155 82.2593 31.175C82.2162 28.9848 82.1737 26.8191 82.1737 26.0889C82.1737 26.0422 82.1698 25.9652 82.1649 25.8663C82.1314 25.1994 82.0481 23.5408 82.7672 23.5408C84.5477 23.5408 86.0829 24.005 86.5023 25.7275C86.5023 28.2072 86.4672 29.7702 86.4356 31.1776Z" fill="url(#paint3_linear_455_25372)"/>
<defs>
<linearGradient id="paint0_linear_455_25372" x1="27.6981" y1="46.5557" x2="71.7314" y2="91.7608" gradientUnits="userSpaceOnUse">
<stop stop-color="#3E0D12"/>
<stop offset="1" stop-color="#6F1A08"/>
</linearGradient>
<linearGradient id="paint1_linear_455_25372" x1="28.9147" y1="27.267" x2="41.3977" y2="6.03906" gradientUnits="userSpaceOnUse">
<stop stop-color="#3E0D12"/>
<stop offset="1" stop-color="#6F1A08"/>
</linearGradient>
<linearGradient id="paint2_linear_455_25372" x1="13.9071" y1="37.5881" x2="-2.85893" y2="-24.6535" gradientUnits="userSpaceOnUse">
<stop stop-color="#3E0D12"/>
<stop offset="1" stop-color="#6F1A08"/>
</linearGradient>
<linearGradient id="paint3_linear_455_25372" x1="157.929" y1="52.492" x2="178.108" y2="2.37658" gradientUnits="userSpaceOnUse">
<stop stop-color="#3E0D12"/>
<stop offset="1" stop-color="#6F1A08"/>
</linearGradient>
</defs>
</svg>
