<svg width="222" height="106" viewBox="0 0 222 106" fill="none" xmlns="http://www.w3.org/2000/svg">
<g clip-path="url(#clip0_618_428)">
<path d="M36.4439 69.8206L35.9115 82.5582L25.2962 75.7408L3.6001 61.8042V48.7166L27.6419 64.1611L36.4439 69.8206Z" fill="#701B0A"/>
<path d="M73.9127 48.7166V61.8042L52.2166 75.7408L41.6013 82.5582L41.0688 69.8206L49.8709 64.1611L73.9127 48.7166Z" fill="#701B0A"/>
<path d="M77.5131 29.1541C77.5131 27.6461 76.9397 26.2052 75.9344 25.1142V25.0881C75.9344 23.8371 75.3126 22.6828 74.2626 21.9978L59.0638 12.8643C58.7436 12.0638 58.2 11.3564 57.4776 10.8351L41.4262 0.845296C39.8214 -0.279161 37.6954 -0.279161 36.0906 0.845296L20.1397 10.7681L20.0354 10.8388C19.3168 11.3601 18.7732 12.0638 18.4567 12.8643L3.30635 21.9642L3.25422 21.9978C2.20051 22.6791 1.57498 23.8371 1.57871 25.0881V25.1142C0.573399 26.2052 0 27.6461 0 29.1541V42.6476C0 43.7459 0.297869 44.7959 0.841481 45.7007C0.30904 46.2704 0 47.0262 0 47.8268V62.0686C0 63.1335 0.536165 64.1128 1.42977 64.6899L24.5295 79.5275L21.886 92.5816C20.486 99.4885 25.7657 105.941 32.8103 105.941H44.7028C51.7474 105.941 57.0271 99.4885 55.6271 92.5816L52.9835 79.5275L76.0833 64.6899C76.9806 64.1128 77.5131 63.1335 77.5131 62.0686V47.8268C77.5131 47.0262 77.204 46.2704 76.6716 45.7007C77.2152 44.7922 77.5131 43.7422 77.5131 42.6476V29.1541ZM35.9119 82.5583L25.2966 75.7408L3.6005 61.8043V48.7166L27.6423 64.1612L36.4443 69.817L35.9119 82.5583ZM36.8911 65.3229L28.4987 59.9314L4.68772 44.6358C4.00634 44.1965 3.6005 43.4555 3.6005 42.6476V29.1541C3.6005 28.9158 3.63773 28.6775 3.70847 28.4541L31.2837 46.1661L36.772 49.6922C36.9768 49.8225 37.189 49.9342 37.4124 50.0161L36.8911 65.3229ZM37.4273 45.831L32.0508 42.3795L6.7244 26.1121L5.21271 25.1403C5.21271 25.1403 5.1792 25.1179 5.1792 25.0807C5.1792 25.0509 5.19037 25.036 5.20154 25.0286L7.33876 23.744L14.2828 19.5701L18.8551 17.1276C18.9333 17.2467 19.0152 17.3622 19.1046 17.4739C19.4211 17.876 19.8046 18.226 20.244 18.5127L20.5791 18.7286L34.9661 27.97L36.2395 28.7892C36.7161 29.0945 37.2337 29.303 37.7661 29.4184L37.4236 45.831H37.4273ZM39.3225 25.7584C38.9799 25.978 38.5331 25.978 38.1906 25.7584L38.1459 25.7286L24.2205 16.7888L22.4854 15.6717L22.195 15.4856C21.9977 15.3553 21.8822 15.1952 21.8115 15.0462C21.7333 14.8749 21.7184 14.7186 21.7147 14.6329C21.7147 14.4914 21.7333 14.1712 21.9865 13.8994C22.02 13.8585 22.061 13.8212 22.1094 13.784L38.0379 3.86867L38.1422 3.80165C38.5108 3.53357 39.006 3.53357 39.3709 3.80165L55.4037 13.784C55.4484 13.8212 55.4894 13.8585 55.5266 13.8957C55.7798 14.1675 55.8058 14.4877 55.7984 14.6329C55.7947 14.7186 55.7798 14.8749 55.7016 15.0425C55.6346 15.1914 55.5154 15.3553 55.3181 15.4856L55.0276 15.6717L53.2926 16.7888L39.3672 25.7286L39.3225 25.7584ZM39.7432 29.4221C40.2757 29.3067 40.7932 29.0982 41.2698 28.7929L42.5432 27.9738L56.9303 18.7324L57.2654 18.5164C57.7085 18.2297 58.092 17.8797 58.4085 17.4776C58.4755 17.3957 58.5351 17.31 58.5909 17.2244L65.1143 20.7057L65.1366 20.7206L70.178 23.7515L72.3115 25.0323C72.3115 25.0323 72.3339 25.0546 72.3339 25.0844C72.3339 25.1254 72.3152 25.1328 72.3004 25.144L70.7887 26.1158L45.4623 42.3832L40.0858 45.8385L39.7432 29.4221ZM73.9126 61.8043L52.2165 75.7408L41.6012 82.5583L41.0687 69.817L49.8708 64.1612L73.9126 48.7166V61.8043ZM73.9126 42.6476C73.9126 43.4555 73.5067 44.1965 72.8291 44.6358L49.0144 59.9314L40.6219 65.3229L40.1044 50.0161C40.3241 49.9305 40.5363 49.8225 40.7411 49.6922L46.2293 46.1661L73.8046 28.4541C73.8753 28.6775 73.9126 28.9158 73.9126 29.1541V42.6476Z" fill="#230D11"/>
<path d="M36.7716 49.6921L31.2833 46.166L3.70808 28.454C3.63733 28.6774 3.6001 28.9157 3.6001 29.154V42.6475C3.6001 43.4554 4.00594 44.1964 4.68732 44.6357L28.4983 59.9313L36.8907 65.3228L37.412 50.016C37.1886 49.9341 36.9764 49.8224 36.7716 49.6921Z" fill="#A0270E"/>
<path d="M73.8047 28.454L46.2294 46.166L40.7412 49.6921C40.5364 49.8224 40.3242 49.9304 40.1045 50.016L40.622 65.3228L49.0145 59.9313L72.8292 44.6357C73.5068 44.1964 73.9127 43.4554 73.9127 42.6475V29.154C73.9127 28.9157 73.8754 28.6774 73.8047 28.454Z" fill="#A0270E"/>
<path d="M36.243 28.789L34.9696 27.9699L20.5825 18.7285L20.2474 18.5125C19.808 18.2258 19.4245 17.8758 19.108 17.4737C19.0187 17.362 18.9367 17.2466 18.8585 17.1274L14.2863 19.5662L7.34217 23.7439L5.20496 25.0284C5.20496 25.0284 5.18262 25.0508 5.18262 25.0806C5.18262 25.1178 5.19751 25.1327 5.21613 25.1401L6.72781 26.1119L32.0542 42.3793L37.4307 45.8309L37.7733 29.4183C37.2408 29.3029 36.7233 29.0943 36.2467 28.789H36.243Z" fill="#415C51"/>
<path d="M72.312 25.0286L70.1785 23.7478L65.137 20.7169L65.1147 20.7021L58.5913 17.2207C58.5355 17.3063 58.4759 17.392 58.4089 17.4739C58.0924 17.876 57.7089 18.226 57.2658 18.5127L56.9307 18.7287L42.5436 27.9701L41.2702 28.7892C40.7936 29.0945 40.2761 29.303 39.7437 29.4185L40.0862 45.8348L45.4627 42.3795L70.7891 26.1121L72.3008 25.1403C72.3008 25.1403 72.3343 25.1217 72.3343 25.0807C72.3343 25.0509 72.3231 25.0361 72.312 25.0286Z" fill="#415C51"/>
<path d="M55.7986 14.6327C55.7948 14.7183 55.7799 14.8747 55.7017 15.0423C55.6347 15.1912 55.5156 15.355 55.3182 15.4853L55.0278 15.6715L53.2927 16.7885L39.3673 25.7283L39.3227 25.7581C38.9801 25.9778 38.5333 25.9778 38.1907 25.7581L38.1461 25.7283L24.2207 16.7885L22.4856 15.6715L22.1952 15.4853C21.9978 15.355 21.8824 15.1949 21.8117 15.046C21.7335 14.8747 21.7186 14.7183 21.7148 14.6327C21.7148 14.4912 21.7335 14.171 21.9866 13.8992C22.0202 13.8582 22.0611 13.821 22.1095 13.7838L38.0381 3.86842L38.1423 3.8014C38.511 3.53332 39.0062 3.53332 39.3711 3.8014L55.4039 13.7838C55.4486 13.821 55.4895 13.8582 55.5267 13.8955C55.7799 14.1673 55.806 14.4875 55.7986 14.6327Z" fill="#648678"/>
</g>
<g clip-path="url(#clip1_618_428)">
<path d="M79.226 88.227C79.226 89.5337 78.2918 90.3289 77.0796 90.3289C75.9563 90.3289 74.9777 89.5337 74.9777 88.227V84.9129C74.277 84.3068 73.0148 83.9342 71.9416 83.9342C70.8684 83.9342 69.6061 84.3068 68.9055 84.9129V103.597C68.9055 104.903 67.9713 105.698 66.8036 105.698C65.6358 105.698 64.7017 104.903 64.7017 103.597V82.4384C66.381 81.0816 69.0445 80.0585 71.9416 80.0585C74.8386 80.0585 77.5022 81.0872 79.226 82.4384V88.2326V88.227Z" fill="#22070B"/>
<path d="M97.3028 102.334C97.3028 103.129 96.8802 103.641 96.2741 104.014C94.3112 105.276 92.0258 105.882 89.1287 105.882C85.9981 105.882 83.101 104.809 81.2827 103.407V82.5329C83.1066 81.1317 85.9981 80.0585 89.1287 80.0585C92.2593 80.0585 95.1564 81.1317 96.9747 82.5329V92.948C95.2454 94.3492 92.5874 95.3279 89.6903 95.3279C88.1945 95.3279 86.6543 95.0499 85.392 94.5327V101.028C86.2317 101.684 87.8665 102.101 89.2677 102.101C90.8581 102.101 92.1648 101.867 93.9387 100.888C94.3112 100.655 94.9173 100.377 95.3844 100.377C96.4576 100.377 97.2973 101.311 97.2973 102.34L97.3028 102.334ZM92.8655 90.4234V84.9129C91.9758 84.2567 90.391 83.8397 89.1287 83.8397C87.8665 83.8397 86.2317 84.2623 85.392 84.9129V90.4234C86.2317 91.1241 87.822 91.5467 89.1287 91.5467C90.4355 91.5467 91.9758 91.1241 92.8655 90.4234Z" fill="#22070B"/>
<path d="M116.126 103.407C114.302 104.809 111.41 105.882 108.28 105.882C105.149 105.882 102.252 104.809 100.434 103.407V82.672C102.113 81.2707 104.826 80.242 107.674 80.242C109.125 80.242 110.665 80.52 111.922 80.9871V72.7685C111.922 71.5063 112.811 70.6666 114.024 70.6666C115.147 70.6666 116.126 71.5063 116.126 72.7685V103.407ZM111.922 100.933V85.241C111.032 84.5403 109.542 84.1177 108.28 84.1177C107.017 84.1177 105.522 84.5403 104.637 85.241V100.933C105.527 101.589 107.017 102.006 108.28 102.006C109.542 102.006 111.038 101.584 111.922 100.933Z" fill="#22070B"/>
<path d="M144.991 82.2049C144.991 82.2994 144.991 82.4384 144.947 82.7165L141.304 103.925C141.165 104.72 140.604 105.326 139.575 105.326H136.773C135.838 105.326 135.277 104.72 135.138 103.925L131.963 85.7081H131.918L128.604 103.925C128.465 104.814 127.948 105.326 126.969 105.326H124.261C123.283 105.326 122.765 104.625 122.626 103.83L118.934 82.7665C118.89 82.4885 118.89 82.3439 118.89 82.2549C118.89 80.9927 119.963 80.2476 120.992 80.2476C121.926 80.2476 122.86 80.8092 123.049 81.9769L125.896 100.193H125.94L129.255 81.9324C129.394 81.0427 130.05 80.5756 130.984 80.5756H133.086C134.02 80.5756 134.626 81.0872 134.771 81.9324L138.04 100.288H138.085L141.076 81.9324C141.266 80.9037 142.055 80.2531 143.039 80.2531C144.024 80.2531 145.002 81.0483 145.002 82.216L144.991 82.2049Z" fill="#22070B"/>
<path d="M163.207 103.407C161.383 104.809 158.492 105.882 155.361 105.882C152.231 105.882 149.333 104.809 147.515 103.407V82.5329C149.339 81.1317 152.231 80.0585 155.361 80.0585C158.492 80.0585 161.389 81.1317 163.207 82.5329V103.413V103.407ZM159.003 100.933V85.0074C158.114 84.3513 156.623 83.9342 155.361 83.9342C154.099 83.9342 152.603 84.3568 151.719 85.0074V100.933C152.609 101.589 154.099 102.006 155.361 102.006C156.623 102.006 158.119 101.584 159.003 100.933Z" fill="#22070B"/>
<path d="M182.358 103.407C180.534 104.809 177.642 105.882 174.512 105.882C171.381 105.882 168.484 104.809 166.666 103.407V82.5329C168.489 81.1317 171.381 80.0585 174.512 80.0585C177.642 80.0585 180.539 81.1317 182.358 82.5329V103.413V103.407ZM178.154 100.933V85.0074C177.264 84.3513 175.768 83.9342 174.512 83.9342C173.255 83.9342 171.753 84.3568 170.869 85.0074V100.933C171.759 101.589 173.255 102.006 174.512 102.006C175.768 102.006 177.27 101.584 178.154 100.933Z" fill="#22070B"/>
<path d="M201.508 103.407C199.685 104.809 196.793 105.882 193.662 105.882C190.532 105.882 187.635 104.809 185.816 103.407V82.672C187.496 81.2707 190.204 80.242 193.056 80.242C194.502 80.242 196.048 80.52 197.305 80.9871V72.7685C197.305 71.5063 198.194 70.6666 199.407 70.6666C200.53 70.6666 201.508 71.5063 201.508 72.7685V103.407ZM197.305 100.933V85.241C196.415 84.5403 194.919 84.1177 193.662 84.1177C192.406 84.1177 190.904 84.5403 190.02 85.241V100.933C190.91 101.589 192.406 102.006 193.662 102.006C194.919 102.006 196.42 101.584 197.305 100.933Z" fill="#22070B"/>
<path d="M220.848 103.363C218.98 104.809 216.083 105.932 212.952 105.932C209.822 105.932 206.836 104.809 204.967 103.363V99.1592C204.967 97.8969 205.901 97.1017 207.025 97.1017C208.148 97.1017 209.082 97.8969 209.082 99.1592V100.983C210.061 101.728 211.557 102.151 212.958 102.151C214.22 102.151 215.805 101.728 216.739 100.983V96.4067L206.93 92.5309C205.857 92.1083 205.251 91.4077 205.251 90.1009V82.4885C207.075 81.1317 209.922 80.0585 213.002 80.0585C216.083 80.0585 218.885 81.1317 220.709 82.4885V86.6478C220.709 87.91 219.82 88.7052 218.702 88.7052C217.584 88.7052 216.6 87.91 216.6 86.6478V84.874C215.71 84.2178 214.265 83.8008 213.002 83.8008C211.74 83.8008 210.244 84.2234 209.36 84.874V88.9832L219.214 92.8145C220.242 93.2371 220.848 94.1212 220.848 95.1944V103.369V103.363Z" fill="#22070B"/>
</g>
<defs>
<clipPath id="clip0_618_428">
<rect width="77.5131" height="105.941" fill="white"/>
</clipPath>
<clipPath id="clip1_618_428">
<rect width="156.147" height="35.2654" fill="white" transform="translate(64.7017 70.6666)"/>
</clipPath>
</defs>
</svg>
