<svg width="2066" height="2558" viewBox="0 0 2066 2558" fill="none" xmlns="http://www.w3.org/2000/svg">
<g opacity="0.1">
<g clip-path="url(#clip0_531_26591)">
<path fill-rule="evenodd" clip-rule="evenodd" d="M1358.35 -176.578C1357.89 -178.416 1285.63 -112.888 1250.1 -60.5649C1246.07 -55.3453 1275.89 -32.7918 1309.83 -18.5192C1343.79 -4.23854 1394.35 -0.91163 1396.79 -6.84292C1399.23 -12.7742 1364.73 -151.299 1358.35 -176.578Z" fill="#345145"/>
<path fill-rule="evenodd" clip-rule="evenodd" d="M1501.23 -7.07369C1474.29 26.772 1460.72 86.6746 1465.1 87.4304C1470.68 88.3883 1528.79 75.1175 1545.84 68.9368C1551.91 66.7355 1507.91 -15.4551 1501.24 -7.06875L1501.23 -7.07369Z" fill="#BDC696"/>
<path fill-rule="evenodd" clip-rule="evenodd" d="M1156.01 1660.68C1157.13 1659.15 1060.52 1645.63 997.582 1651.86C990.998 1652.12 992.774 1689.46 1003.56 1724.67C1014.34 1759.89 1044.17 1800.85 1050.29 1798.92C1056.4 1797 1140.69 1681.78 1156.01 1660.68Z" fill="#345145"/>
<path fill-rule="evenodd" clip-rule="evenodd" d="M1250.34 1533.9C1252.14 1534.48 1235.15 1438.43 1209.78 1380.49C1207.5 1374.31 1172.54 1387.54 1142.38 1408.67C1112.21 1429.81 1082.48 1470.84 1086.2 1476.06C1089.92 1481.28 1225.54 1525.84 1250.34 1533.9Z" fill="#345145"/>
<path fill-rule="evenodd" clip-rule="evenodd" d="M1346.81 1630.28C1345.77 1631.87 1442.92 1640.65 1505.48 1631.36C1512.04 1630.78 1508.44 1593.57 1495.95 1558.93C1483.47 1524.28 1451.67 1484.82 1445.65 1487.04C1439.64 1489.27 1361.08 1608.46 1346.81 1630.28Z" fill="#345145"/>
<path fill-rule="evenodd" clip-rule="evenodd" d="M1397.32 1420.39C1362.94 1394.13 1302.77 1381.77 1302.11 1386.16C1301.26 1391.75 1315.69 1449.59 1322.22 1466.51C1324.54 1472.53 1405.83 1426.89 1397.31 1420.39L1397.32 1420.39Z" fill="#BDC696"/>
<path fill-rule="evenodd" clip-rule="evenodd" d="M1476.95 1804.61C1474.27 1761.43 1444.21 1707.87 1440.46 1710.24C1435.67 1713.27 1401.42 1762.06 1392.91 1778.07C1389.88 1783.77 1477.61 1815.3 1476.94 1804.61L1476.95 1804.61Z" fill="#BDC696"/>
<path fill-rule="evenodd" clip-rule="evenodd" d="M1030.78 1564.59C1016.48 1523.76 972.998 1480.38 970.026 1483.69C966.246 1487.9 946.536 1544.16 942.692 1561.88C941.323 1568.19 1034.32 1574.71 1030.78 1564.59L1030.78 1564.59Z" fill="#BDC696"/>
<path fill-rule="evenodd" clip-rule="evenodd" d="M1216.99 1685.91C1260.25 1685.84 1315.52 1659.05 1313.38 1655.16C1310.64 1650.2 1264 1613.08 1248.53 1603.62C1243.03 1600.25 1206.27 1685.92 1216.99 1685.9L1216.99 1685.91Z" fill="#BDC696"/>
<path fill-rule="evenodd" clip-rule="evenodd" d="M568.355 1749.89C569.47 1748.35 472.865 1734.84 409.925 1741.06C403.341 1741.32 405.117 1778.66 415.901 1813.87C426.682 1849.09 456.515 1890.05 462.631 1888.13C468.748 1886.2 553.03 1770.98 568.355 1749.89Z" fill="#345145"/>
<path fill-rule="evenodd" clip-rule="evenodd" d="M662.682 1623.1C664.485 1623.68 647.491 1527.63 622.12 1469.69C619.843 1463.51 584.879 1476.74 554.723 1497.87C524.556 1519.01 494.818 1560.04 498.541 1565.26C502.263 1570.48 637.886 1615.04 662.682 1623.1Z" fill="#345145"/>
<path fill-rule="evenodd" clip-rule="evenodd" d="M759.148 1719.48C758.11 1721.07 855.259 1729.85 917.82 1720.56C924.383 1719.98 920.786 1682.77 908.297 1648.13C895.808 1613.48 864.011 1574.02 857.996 1576.25C851.981 1578.47 773.425 1697.67 759.148 1719.48Z" fill="#345145"/>
<path fill-rule="evenodd" clip-rule="evenodd" d="M809.658 1509.59C775.278 1483.33 715.115 1470.97 714.447 1475.36C713.602 1480.96 728.037 1538.79 734.559 1555.71C736.882 1561.74 818.172 1516.09 809.653 1509.59L809.658 1509.59Z" fill="#BDC696"/>
<path fill-rule="evenodd" clip-rule="evenodd" d="M889.291 1893.81C886.617 1850.63 856.556 1797.07 852.798 1799.44C848.016 1802.47 813.764 1851.26 805.251 1867.27C802.219 1872.97 889.95 1904.51 889.286 1893.81L889.291 1893.81Z" fill="#BDC696"/>
<path fill-rule="evenodd" clip-rule="evenodd" d="M629.327 1775.11C672.588 1775.04 727.86 1748.25 725.717 1744.36C722.985 1739.4 676.345 1702.28 660.877 1692.82C655.368 1689.45 618.612 1775.12 629.33 1775.11L629.327 1775.11Z" fill="#BDC696"/>
<path fill-rule="evenodd" clip-rule="evenodd" d="M522.645 2002.36C548.429 1967.63 559.963 1907.3 555.561 1906.69C549.954 1905.92 492.321 1921.15 475.494 1927.91C469.502 1930.31 516.256 2010.97 522.644 2002.36L522.645 2002.36Z" fill="#BDC696"/>
<path fill-rule="evenodd" clip-rule="evenodd" d="M323.383 802.18C323.647 800.303 232.006 833.726 179.359 868.777C173.666 872.093 192.766 904.228 218.819 930.253C244.875 956.289 290.446 978.447 294.942 973.874C299.437 969.301 319.755 827.999 323.383 802.18Z" fill="#345145"/>
<path fill-rule="evenodd" clip-rule="evenodd" d="M429.489 834.398C427.614 834.117 460.224 926.051 494.807 979.006C498.073 984.728 530.375 965.914 556.631 940.093C582.896 914.268 605.457 868.895 600.924 864.359C596.391 859.823 455.275 838.254 429.489 834.398Z" fill="#345145"/>
<path fill-rule="evenodd" clip-rule="evenodd" d="M347.139 645.947C349.005 645.618 288.902 568.789 239.3 529.548C234.386 525.159 209.725 553.253 193.023 586.072C176.313 618.898 169.32 669.086 175.058 671.949C180.797 674.811 321.462 650.475 347.139 645.947Z" fill="#345145"/>
<path opacity="0.3" fill-rule="evenodd" clip-rule="evenodd" d="M477.564 685.756C477.392 687.643 567.292 649.785 618.164 612.206C623.688 608.616 603.043 577.452 575.75 552.73C548.453 527.997 501.855 508.091 497.588 512.878C493.321 517.665 479.926 659.79 477.564 685.756Z" fill="#BDC696"/>
<path fill-rule="evenodd" clip-rule="evenodd" d="M423.612 476.719C380.928 469.676 322.004 487.008 323.478 491.202C325.358 496.539 365.259 540.827 378.961 552.702C383.84 556.931 434.184 478.467 423.609 476.723L423.612 476.719Z" fill="#BDC696"/>
<path fill-rule="evenodd" clip-rule="evenodd" d="M674.319 778.569C651.686 741.702 599.996 708.526 597.793 712.386C594.991 717.302 587.656 776.461 587.656 794.592C587.656 801.05 679.923 787.703 674.314 778.569H674.319Z" fill="#BDC696"/>
<path fill-rule="evenodd" clip-rule="evenodd" d="M167.697 776.135C135.899 746.803 77.1411 728.916 76.069 733.229C74.7083 738.722 83.7203 797.648 88.6458 815.098C90.4001 821.313 175.571 783.403 167.692 776.136L167.697 776.135Z" fill="#BDC696"/>
<path fill-rule="evenodd" clip-rule="evenodd" d="M389.061 795.823C427.223 775.448 463.448 725.847 459.728 723.416C454.989 720.323 396.378 709.444 378.28 708.353C371.834 707.965 379.607 800.867 389.061 795.818L389.061 795.823Z" fill="#BDC696"/>
<path fill-rule="evenodd" clip-rule="evenodd" d="M401.568 1046.56C408.023 1003.78 389.882 945.105 385.71 946.636C380.399 948.589 336.664 989.095 324.978 1002.96C320.816 1007.9 399.966 1057.16 401.564 1046.56L401.568 1046.56Z" fill="#BDC696"/>
<path fill-rule="evenodd" clip-rule="evenodd" d="M1735.75 1435.24C1736.57 1433.53 1639.11 1437.5 1578.29 1454.88C1571.86 1456.31 1580.29 1492.73 1597.19 1525.45C1614.1 1558.17 1650.77 1593.14 1656.45 1590.15C1662.12 1587.16 1724.44 1458.73 1735.75 1435.24Z" fill="#345145"/>
<path fill-rule="evenodd" clip-rule="evenodd" d="M1827.03 1498.19C1825.33 1497.36 1828.44 1594.85 1845.28 1655.82C1846.66 1662.26 1883.15 1654.16 1916.01 1637.55C1948.89 1620.93 1984.18 1584.57 1981.24 1578.87C1978.3 1573.17 1850.42 1509.71 1827.03 1498.19Z" fill="#345145"/>
<path fill-rule="evenodd" clip-rule="evenodd" d="M1805.89 1293.63C1807.76 1293.88 1773.87 1202.41 1738.55 1149.95C1735.2 1144.27 1703.17 1163.54 1677.28 1189.72C1651.37 1215.91 1629.45 1261.6 1634.05 1266.07C1638.64 1270.54 1780.05 1290.13 1805.89 1293.63Z" fill="#345145"/>
<path fill-rule="evenodd" clip-rule="evenodd" d="M1918.03 1371.21C1917.29 1372.96 2014.45 1364.23 2074.34 1343.9C2080.69 1342.16 2070.5 1306.19 2052.02 1274.34C2033.54 1242.48 1995.2 1209.35 1989.68 1212.61C1984.16 1215.87 1928.18 1347.19 1918.03 1371.21Z" fill="#345145"/>
<path fill-rule="evenodd" clip-rule="evenodd" d="M1930.2 1155.67C1891.68 1135.98 1830.27 1134.57 1830.4 1139.02C1830.57 1144.67 1855.12 1199 1864.56 1214.47C1867.92 1219.99 1939.74 1160.55 1930.19 1155.67L1930.2 1155.67Z" fill="#BDC696"/>
<path fill-rule="evenodd" clip-rule="evenodd" d="M2077.25 1519.46C2066.9 1477.46 2027.74 1430.13 2024.47 1433.14C2020.31 1436.97 1995.33 1491.1 1989.82 1508.37C1987.85 1514.52 2079.81 1529.87 2077.24 1519.46L2077.25 1519.46Z" fill="#BDC696"/>
<path fill-rule="evenodd" clip-rule="evenodd" d="M1595.35 1363.08C1573.98 1325.47 1523.45 1290.56 1521.11 1294.35C1518.15 1299.17 1508.81 1358.04 1508.2 1376.16C1507.98 1382.62 1600.65 1372.4 1595.35 1363.08L1595.35 1363.08Z" fill="#BDC696"/>
<path fill-rule="evenodd" clip-rule="evenodd" d="M1800.25 1449.15C1842.8 1441.35 1892.39 1405.11 1889.59 1401.66C1886.01 1397.28 1833.49 1369.09 1816.58 1362.55C1810.55 1360.22 1789.71 1451.08 1800.25 1449.15L1800.25 1449.15Z" fill="#BDC696"/>
<path fill-rule="evenodd" clip-rule="evenodd" d="M1735.92 1691.82C1755.07 1653.03 1755.64 1591.62 1751.2 1591.81C1745.54 1592.05 1691.56 1617.34 1676.21 1626.99C1670.75 1630.43 1731.17 1701.43 1735.91 1691.82L1735.92 1691.82Z" fill="#BDC696"/>
<path fill-rule="evenodd" clip-rule="evenodd" d="M33.1188 402.557C32.3077 404.27 129.745 399.675 190.445 381.906C196.868 380.436 188.212 344.07 171.098 311.463C153.984 278.845 117.087 244.114 111.433 247.14C105.778 250.165 44.2758 378.992 33.1188 402.557Z" fill="#345145"/>
<path fill-rule="evenodd" clip-rule="evenodd" d="M-74.7884 485.932C-76.2289 484.701 -97.3401 579.934 -96.1069 643.169C-96.3728 649.753 -59.0094 650.934 -23.0565 642.968C12.9072 635.005 56.0974 608.504 54.66 602.254C53.2227 596.004 -54.9728 502.877 -74.7884 485.932Z" fill="#345145"/>
<path fill-rule="evenodd" clip-rule="evenodd" d="M126.942 562.819C157.374 532.071 177.315 473.978 173.042 472.755C167.6 471.202 108.394 478.138 90.7819 482.447C84.5095 483.982 119.402 570.433 126.941 562.814L126.942 562.819Z" fill="#BDC696"/>
<path fill-rule="evenodd" clip-rule="evenodd" d="M30.6983 180.878C73.0178 171.902 121.593 134.314 118.694 130.945C115 126.658 61.7174 99.9286 44.6337 93.8545C38.5494 91.6913 20.2149 183.097 30.7 180.873L30.6983 180.878Z" fill="#BDC696"/>
<path fill-rule="evenodd" clip-rule="evenodd" d="M1820.03 807.526C1820.76 805.78 1723.6 814.412 1663.69 834.682C1657.33 836.417 1667.49 872.393 1685.94 904.262C1704.39 936.142 1742.7 969.314 1748.22 966.056C1753.75 962.799 1809.86 831.533 1820.03 807.526Z" fill="#345145"/>
<path fill-rule="evenodd" clip-rule="evenodd" d="M1914.22 866.045C1912.48 865.29 1920.25 962.526 1939.99 1022.61C1941.66 1028.99 1977.73 1019.15 2009.76 1000.98C2041.8 982.812 2075.31 944.802 2072.1 939.249C2068.9 933.697 1938.13 876.428 1914.22 866.045Z" fill="#345145"/>
<path opacity="0.3" fill-rule="evenodd" clip-rule="evenodd" d="M1883.31 662.722C1885.2 662.886 1846.97 573.145 1809.18 522.429C1805.56 516.92 1774.49 537.695 1749.88 565.09C1725.26 592.489 1705.55 639.17 1710.35 643.417C1715.16 647.664 1857.33 660.468 1883.31 662.722Z" fill="#BDC696"/>
<path fill-rule="evenodd" clip-rule="evenodd" d="M1999.04 734.851C1998.38 736.631 2095.01 723.265 2153.86 700.094C2160.12 698.051 2148.22 662.614 2128.24 631.684C2108.25 600.743 2068.37 569.481 2063.01 573.004C2057.65 576.527 2008.02 710.376 1999.04 734.851Z" fill="#345145"/>
<path fill-rule="evenodd" clip-rule="evenodd" d="M2000.88 518.974C1961.46 501.15 1900.06 502.683 1900.4 507.114C1900.84 512.756 1927.95 565.844 1938.12 580.853C1941.75 586.199 2010.64 523.392 2000.87 518.977L2000.88 518.974Z" fill="#BDC696"/>
<path fill-rule="evenodd" clip-rule="evenodd" d="M1676.34 742.17C1653.19 705.623 1601.04 673.173 1598.9 677.064C1596.16 682.019 1589.66 741.274 1589.91 759.404C1590 765.861 1682.07 751.225 1676.34 742.17L1676.34 742.17Z" fill="#BDC696"/>
<path fill-rule="evenodd" clip-rule="evenodd" d="M1885.12 818.34C1927.25 808.508 1975.05 769.941 1972.08 766.632C1968.3 762.421 1914.49 736.778 1897.28 731.052C1891.16 729.013 1874.68 820.772 1885.12 818.335L1885.12 818.34Z" fill="#BDC696"/>
<path fill-rule="evenodd" clip-rule="evenodd" d="M1832.47 1063.81C1849.75 1024.15 1847.37 962.773 1842.94 963.174C1837.31 963.691 1784.6 991.533 1769.73 1001.91C1764.44 1005.6 1828.18 1073.63 1832.46 1063.8L1832.47 1063.81Z" fill="#BDC696"/>
<path fill-rule="evenodd" clip-rule="evenodd" d="M940.495 -22.9179C941.518 -24.5138 844.288 -32.3633 781.82 -22.4684C775.263 -21.8288 779.217 15.3435 792.039 49.864C804.86 84.3955 837.034 123.543 843.028 121.262C849.021 118.981 926.428 -0.965453 940.495 -22.9179Z" fill="#345145"/>
<path fill-rule="evenodd" clip-rule="evenodd" d="M1056.47 81.7542C1054.82 80.8253 1052.59 178.346 1066.07 240.139C1067.09 246.649 1103.97 240.557 1137.69 225.766C1171.43 210.974 1208.65 176.596 1206.03 170.744C1203.41 164.892 1079.2 94.5317 1056.47 81.7542Z" fill="#345145"/>
<path fill-rule="evenodd" clip-rule="evenodd" d="M1269.29 118.031C1293.17 81.9624 1301.46 21.104 1297.03 20.7334C1291.39 20.2661 1234.66 38.5593 1218.22 46.2044C1212.36 48.9272 1263.37 126.963 1269.28 118.026L1269.29 118.031Z" fill="#BDC696"/>
<path fill-rule="evenodd" clip-rule="evenodd" d="M891.289 223.329C934.189 217.756 985.607 184.16 982.986 180.571C979.645 176.003 928.663 145.111 912.118 137.694C906.226 135.052 880.662 224.705 891.291 223.324L891.289 223.329Z" fill="#BDC696"/>
<path fill-rule="evenodd" clip-rule="evenodd" d="M992.234 -44.0301C995.216 -0.872133 1025.66 52.4729 1029.4 50.0729C1034.16 47.0132 1068.06 -2.01852 1076.46 -18.0875C1079.45 -23.8104 991.499 -54.7206 992.238 -44.0276L992.234 -44.0301Z" fill="#BDC696"/>
<path fill-rule="evenodd" clip-rule="evenodd" d="M-138.596 1097.65C-140.35 1096.93 -130.549 1193.99 -109.558 1253.65C-107.747 1259.98 -71.8962 1249.4 -40.2517 1230.56C-8.59617 1211.73 24.1118 1173.03 20.788 1167.54C17.4643 1162.06 -114.468 1107.53 -138.596 1097.65Z" fill="#345145"/>
<path fill-rule="evenodd" clip-rule="evenodd" d="M-56.537 964.714C-57.1529 966.507 39.1724 951.124 97.5245 926.728C103.745 924.554 91.1059 889.374 70.479 858.868C49.8502 828.351 9.32575 797.93 4.04233 801.565C-1.24109 805.199 -48.0645 940.056 -56.537 964.714Z" fill="#345145"/>
<path fill-rule="evenodd" clip-rule="evenodd" d="M112.486 1101.68C99.2739 1060.48 56.9618 1015.96 53.9033 1019.19C50.0123 1023.3 28.8135 1079.01 24.4998 1096.62C22.9635 1102.89 115.756 1111.88 112.481 1101.68L112.486 1101.68Z" fill="#BDC696"/>
<path fill-rule="evenodd" clip-rule="evenodd" d="M172.967 1418.59C173.67 1416.83 76.7084 1427.5 17.2347 1449.01C10.9159 1450.88 21.8218 1486.64 40.9346 1518.11C60.0488 1549.6 99.0396 1581.96 104.494 1578.59C109.949 1575.22 163.301 1442.81 172.967 1418.59Z" fill="#345145"/>
<path fill-rule="evenodd" clip-rule="evenodd" d="M268.362 1475.13C266.608 1474.41 276.409 1571.47 297.399 1631.13C299.21 1637.46 335.062 1626.87 366.706 1608.04C398.362 1589.21 431.07 1550.5 427.746 1545.02C424.422 1539.54 292.49 1485.01 268.362 1475.13Z" fill="#345145"/>
<path fill-rule="evenodd" clip-rule="evenodd" d="M233.21 1272.5C235.101 1272.62 195.002 1183.7 156.161 1133.79C152.432 1128.35 121.796 1149.78 97.7654 1177.68C73.7248 1205.59 54.9923 1252.67 59.8849 1256.81C64.7775 1260.96 207.193 1270.79 233.21 1272.5Z" fill="#345145"/>
<path fill-rule="evenodd" clip-rule="evenodd" d="M350.42 1342.19C349.804 1343.99 446.129 1328.6 504.482 1304.21C510.702 1302.03 498.063 1266.85 477.436 1236.35C456.807 1205.83 416.283 1175.41 410.999 1179.04C405.716 1182.68 358.893 1317.54 350.42 1342.19Z" fill="#345145"/>
<path fill-rule="evenodd" clip-rule="evenodd" d="M347.75 1126.33C307.967 1109.33 246.612 1112.15 247.045 1116.57C247.602 1122.2 275.82 1174.71 286.303 1189.5C290.037 1194.77 357.603 1130.54 347.746 1126.33L347.75 1126.33Z" fill="#BDC696"/>
<path fill-rule="evenodd" clip-rule="evenodd" d="M519.443 1479.16C506.231 1437.96 463.919 1393.44 460.86 1396.67C456.969 1400.77 435.771 1456.49 431.457 1474.1C429.92 1480.37 522.713 1489.36 519.438 1479.15L519.443 1479.16Z" fill="#BDC696"/>
<path fill-rule="evenodd" clip-rule="evenodd" d="M27.9477 1356.26C4.04142 1320.2 -48.7739 1288.85 -50.8415 1292.78C-53.4699 1297.8 -58.7361 1357.17 -58.1035 1375.29C-57.8782 1381.75 33.8663 1365.19 27.9425 1356.26L27.9477 1356.26Z" fill="#BDC696"/>
<path fill-rule="evenodd" clip-rule="evenodd" d="M238.271 1428.05C280.185 1417.34 327.17 1377.78 324.135 1374.53C320.268 1370.4 265.929 1345.89 248.61 1340.52C242.442 1338.61 227.888 1430.7 238.273 1428.04L238.271 1428.05Z" fill="#BDC696"/>
<path fill-rule="evenodd" clip-rule="evenodd" d="M190.765 1674.56C207.212 1634.55 203.553 1573.24 199.136 1573.73C193.513 1574.36 141.396 1603.3 126.748 1613.99C121.531 1617.79 186.688 1684.47 190.762 1674.56L190.765 1674.56Z" fill="#BDC696"/>
<path opacity="0.3" fill-rule="evenodd" clip-rule="evenodd" d="M435.938 198.444C436.202 196.567 344.561 229.99 291.914 265.04C286.221 268.357 305.321 300.492 331.373 326.517C357.43 352.553 403.001 374.711 407.497 370.138C411.992 365.564 432.31 224.263 435.938 198.444Z" fill="#BDC696"/>
<path opacity="0.3" fill-rule="evenodd" clip-rule="evenodd" d="M542.044 230.661C540.169 230.381 572.779 322.315 607.361 375.27C610.628 380.992 642.93 362.178 669.185 336.357C695.451 310.532 718.012 265.159 713.479 260.623C708.945 256.087 567.83 234.518 542.044 230.661Z" fill="#BDC696"/>
<path fill-rule="evenodd" clip-rule="evenodd" d="M459.693 42.2114C461.56 41.8823 401.456 -34.9471 351.854 -74.1873C346.941 -78.5771 322.28 -50.483 305.578 -17.6637C288.868 15.1626 281.875 65.3501 287.613 68.2128C293.351 71.0754 434.017 46.7389 459.693 42.2114Z" fill="#345145"/>
<path fill-rule="evenodd" clip-rule="evenodd" d="M590.118 82.0188C589.946 83.9064 679.846 46.0484 730.718 8.46956C736.243 4.87878 715.597 -26.2848 688.305 -51.0071C661.008 -75.7395 614.409 -95.646 610.142 -90.8588C605.875 -86.0717 592.481 56.0533 590.118 82.0188Z" fill="#345145"/>
<path fill-rule="evenodd" clip-rule="evenodd" d="M786.874 174.833C764.24 137.966 712.551 104.79 710.347 108.65C707.546 113.566 700.211 172.725 700.211 190.856C700.211 197.314 792.477 183.967 786.869 174.833H786.874Z" fill="#BDC696"/>
<path fill-rule="evenodd" clip-rule="evenodd" d="M280.252 172.399C248.454 143.066 189.696 125.18 188.623 129.493C187.263 134.986 196.275 193.912 201.2 211.362C202.955 217.576 288.125 179.667 280.246 172.4L280.252 172.399Z" fill="#BDC696"/>
<path fill-rule="evenodd" clip-rule="evenodd" d="M501.615 192.087C539.777 171.711 576.002 122.111 572.282 119.679C567.542 116.587 508.932 105.707 490.834 104.617C484.388 104.229 492.16 197.131 501.615 192.082L501.615 192.087Z" fill="#BDC696"/>
<path fill-rule="evenodd" clip-rule="evenodd" d="M514.123 442.826C520.577 400.049 502.437 341.369 498.264 342.9C492.953 344.854 449.218 385.36 437.533 399.223C433.371 404.16 512.52 453.421 514.119 442.822L514.123 442.826Z" fill="#BDC696"/>
<path opacity="0.3" fill-rule="evenodd" clip-rule="evenodd" d="M1911.82 161.951C1913.15 160.595 1819.52 133.225 1756.34 130.27C1749.79 129.569 1746.14 166.772 1751.71 203.173C1757.27 239.585 1780.86 284.435 1787.19 283.415C1793.52 282.394 1893.6 180.601 1911.82 161.951Z" fill="#BDC696"/>
<path fill-rule="evenodd" clip-rule="evenodd" d="M1978.21 250.77C1976.87 249.434 1948.67 342.815 1945.16 405.964C1944.4 412.509 1981.57 416.491 2018.01 411.245C2054.47 406.003 2099.53 382.817 2098.57 376.477C2097.6 370.138 1996.7 269.154 1978.21 250.77Z" fill="#345145"/>
<path fill-rule="evenodd" clip-rule="evenodd" d="M2023.52 50.1658C2025.22 51.0066 2022.32 -46.4962 2005.61 -107.496C2004.25 -113.943 1967.74 -105.921 1934.84 -89.378C1901.93 -72.8341 1866.56 -36.5466 1869.49 -30.8407C1872.42 -25.1347 2000.15 38.6004 2023.52 50.1658Z" fill="#345145"/>
<path fill-rule="evenodd" clip-rule="evenodd" d="M1801.84 48.7296C1793.6 6.26029 1756.86 -42.9615 1753.44 -40.122C1749.09 -36.5031 1721.44 16.3066 1715.07 33.282C1712.8 39.3277 1803.87 59.25 1801.83 48.7278L1801.84 48.7296Z" fill="#BDC696"/>
<path fill-rule="evenodd" clip-rule="evenodd" d="M1968.5 195.742C2011.31 201.937 2069.88 183.442 2068.33 179.279C2066.34 173.98 2025.57 130.491 2011.64 118.889C2006.67 114.757 1957.89 194.203 1968.5 195.738L1968.5 195.742Z" fill="#BDC696"/>
<path fill-rule="evenodd" clip-rule="evenodd" d="M1830.02 405.144C1860.56 374.508 1880.71 316.488 1876.45 315.249C1871.01 313.677 1811.78 320.396 1794.15 324.641C1787.87 326.152 1822.45 412.73 1830.02 405.139L1830.02 405.144Z" fill="#BDC696"/>
<path fill-rule="evenodd" clip-rule="evenodd" d="M1490.3 433.991C1488.65 433.056 1486.04 530.566 1499.28 592.412C1500.27 598.926 1537.18 592.979 1570.96 578.32C1604.75 563.662 1642.11 529.43 1639.51 523.567C1636.91 517.705 1512.98 446.858 1490.3 433.991Z" fill="#345145"/>
<path opacity="0.3" fill-rule="evenodd" clip-rule="evenodd" d="M1559.27 347.163C1558.32 348.803 1655.81 352.279 1717.77 339.589C1724.29 338.656 1718.67 301.698 1704.31 267.788C1689.95 233.867 1656.05 196.204 1650.17 198.752C1644.28 201.3 1572.34 324.601 1559.27 347.163Z" fill="#BDC696"/>
<path fill-rule="evenodd" clip-rule="evenodd" d="M1353.75 354.456C1354.13 352.599 1260.58 380.245 1205.85 411.945C1199.96 414.9 1217.02 448.163 1241.4 475.762C1265.78 503.371 1309.88 528.327 1314.66 524.043C1319.43 519.759 1348.51 379.999 1353.75 354.456Z" fill="#345145"/>
<path opacity="0.3" fill-rule="evenodd" clip-rule="evenodd" d="M1438.72 247.803C1440.41 248.657 1438.26 151.135 1422.02 90.0094C1420.71 83.5517 1384.14 91.2933 1351.11 107.584C1318.08 123.875 1282.43 159.891 1285.31 165.619C1288.2 171.347 1415.44 236.059 1438.72 247.803Z" fill="#BDC696"/>
<path fill-rule="evenodd" clip-rule="evenodd" d="M1224.49 221.119C1202.25 258.224 1196.7 319.393 1201.14 319.564C1206.79 319.778 1262.65 298.955 1278.73 290.58C1284.46 287.597 1230 211.93 1224.49 221.124L1224.49 221.119Z" fill="#BDC696"/>
<path fill-rule="evenodd" clip-rule="evenodd" d="M1597.37 98.9546C1554.77 106.448 1504.91 142.318 1507.69 145.787C1511.23 150.2 1563.55 178.772 1580.41 185.438C1586.42 187.813 1607.93 97.1021 1597.37 98.9595L1597.37 98.9546Z" fill="#BDC696"/>
<path fill-rule="evenodd" clip-rule="evenodd" d="M1408.84 569.195C1369.87 587.981 1331.63 636.047 1335.25 638.63C1339.85 641.915 1397.97 655.2 1416.01 657.035C1422.43 657.689 1418.49 564.545 1408.84 569.201L1408.84 569.195Z" fill="#BDC696"/>
<path fill-rule="evenodd" clip-rule="evenodd" d="M1508.54 370.577C1503.62 327.596 1470.81 275.672 1467.18 278.237C1462.57 281.508 1430.9 332.012 1423.23 348.442C1420.5 354.293 1509.75 381.223 1508.53 370.574L1508.54 370.577Z" fill="#BDC696"/>
<path fill-rule="evenodd" clip-rule="evenodd" d="M1746.31 451.135C1708.9 429.404 1647.66 424.699 1647.55 429.142C1647.42 434.799 1669.01 490.364 1677.6 506.328C1680.66 512.014 1755.58 456.521 1746.31 451.137L1746.31 451.135Z" fill="#BDC696"/>
<path fill-rule="evenodd" clip-rule="evenodd" d="M1298.16 1036.7C1298.99 1035 1201.52 1038.97 1140.71 1056.35C1134.28 1057.78 1142.7 1094.2 1159.61 1126.91C1176.51 1159.64 1213.19 1194.61 1218.86 1191.62C1224.53 1188.63 1286.86 1060.2 1298.16 1036.7Z" fill="#345145"/>
<path fill-rule="evenodd" clip-rule="evenodd" d="M1389.45 1099.66C1387.75 1098.82 1390.86 1196.32 1407.7 1257.28C1409.07 1263.73 1445.56 1255.63 1478.43 1239.01C1511.3 1222.4 1546.59 1186.03 1543.65 1180.33C1540.72 1174.63 1412.84 1111.18 1389.45 1099.66Z" fill="#345145"/>
<path fill-rule="evenodd" clip-rule="evenodd" d="M1368.3 895.093C1370.18 895.347 1336.29 803.88 1300.96 751.414C1297.62 745.738 1265.58 765.003 1239.69 791.189C1213.79 817.379 1191.87 863.064 1196.46 867.536C1201.06 872.008 1342.46 891.598 1368.3 895.093Z" fill="#345145"/>
<path fill-rule="evenodd" clip-rule="evenodd" d="M1480.45 972.675C1479.71 974.421 1576.86 965.694 1636.75 945.364C1643.11 943.623 1632.92 907.657 1614.43 875.806C1595.95 843.945 1557.61 810.811 1552.09 814.074C1546.57 817.337 1490.59 948.658 1480.45 972.675Z" fill="#345145"/>
<path fill-rule="evenodd" clip-rule="evenodd" d="M1492.61 757.133C1454.09 737.445 1392.69 736.038 1392.82 740.481C1392.99 746.137 1417.53 800.461 1426.97 815.94C1430.33 821.453 1502.15 762.013 1492.61 757.136L1492.61 757.133Z" fill="#BDC696"/>
<path fill-rule="evenodd" clip-rule="evenodd" d="M1639.66 1120.93C1629.31 1078.92 1590.16 1031.6 1586.88 1034.61C1582.72 1038.44 1557.74 1092.56 1552.23 1109.84C1550.27 1115.99 1642.22 1131.33 1639.66 1120.92L1639.66 1120.93Z" fill="#BDC696"/>
<path fill-rule="evenodd" clip-rule="evenodd" d="M1157.77 964.55C1136.4 926.937 1085.86 892.03 1083.53 895.813C1080.56 900.632 1071.23 959.508 1070.61 977.629C1070.4 984.083 1163.06 973.868 1157.76 964.55L1157.77 964.55Z" fill="#BDC696"/>
<path fill-rule="evenodd" clip-rule="evenodd" d="M1362.66 1050.62C1405.21 1042.81 1454.81 1006.58 1452 1003.13C1448.43 998.743 1395.9 970.556 1378.99 964.013C1372.97 961.683 1352.12 1052.55 1362.67 1050.61L1362.66 1050.62Z" fill="#BDC696"/>
<path fill-rule="evenodd" clip-rule="evenodd" d="M1298.33 1293.29C1317.49 1254.5 1318.05 1193.08 1313.61 1193.27C1307.96 1193.52 1253.98 1218.81 1238.63 1228.46C1233.16 1231.9 1293.58 1302.89 1298.33 1293.28L1298.33 1293.29Z" fill="#BDC696"/>
<path fill-rule="evenodd" clip-rule="evenodd" d="M957.007 638.81C955.359 637.875 952.747 735.385 965.985 797.231C966.976 803.745 1003.88 797.798 1037.66 783.14C1071.46 768.481 1108.82 734.249 1106.22 728.387C1103.62 722.524 979.684 651.677 957.007 638.81Z" fill="#345145"/>
<path opacity="0.3" fill-rule="evenodd" clip-rule="evenodd" d="M1025.98 551.982C1025.03 553.622 1122.52 557.098 1184.48 544.408C1191 543.475 1185.38 506.517 1171.02 472.607C1156.66 438.687 1122.76 401.023 1116.88 403.571C1110.99 406.119 1039.05 529.42 1025.98 551.982Z" fill="#BDC696"/>
<path fill-rule="evenodd" clip-rule="evenodd" d="M820.452 559.276C820.832 557.419 727.286 585.065 672.557 616.765C666.668 619.72 683.727 652.983 708.107 680.582C732.489 708.191 776.59 733.147 781.362 728.863C786.134 724.579 815.222 584.819 820.452 559.276Z" fill="#345145"/>
<path fill-rule="evenodd" clip-rule="evenodd" d="M905.425 452.623C907.117 453.476 904.965 355.954 888.723 294.829C887.415 288.371 850.843 296.112 817.818 312.403C784.781 328.695 749.136 364.71 752.019 370.438C754.902 376.166 882.147 440.878 905.425 452.623Z" fill="#345145"/>
<path fill-rule="evenodd" clip-rule="evenodd" d="M691.195 425.938C668.952 463.043 663.405 524.212 667.846 524.383C673.501 524.597 729.357 503.775 745.438 495.399C751.166 492.416 696.707 416.749 691.197 425.943L691.195 425.938Z" fill="#BDC696"/>
<path fill-rule="evenodd" clip-rule="evenodd" d="M1064.08 303.774C1021.47 311.267 971.618 347.138 974.397 350.606C977.939 355.019 1030.26 383.591 1047.12 390.258C1053.12 392.632 1074.64 301.922 1064.08 303.779L1064.08 303.774Z" fill="#BDC696"/>
<path fill-rule="evenodd" clip-rule="evenodd" d="M875.545 774.015C836.575 792.801 798.338 840.866 801.955 843.449C806.563 846.734 864.675 860.019 882.713 861.854C889.137 862.508 885.199 769.365 875.544 774.02L875.545 774.015Z" fill="#BDC696"/>
<path fill-rule="evenodd" clip-rule="evenodd" d="M975.243 575.395C970.327 532.414 937.52 480.49 933.89 483.056C929.272 486.326 897.605 536.831 889.937 553.26C887.205 559.112 976.458 586.042 975.239 575.393L975.243 575.395Z" fill="#BDC696"/>
<path fill-rule="evenodd" clip-rule="evenodd" d="M1213.02 655.954C1175.61 634.224 1114.37 629.518 1114.26 633.961C1114.12 639.619 1135.71 695.184 1144.31 711.148C1147.37 716.834 1222.28 661.34 1213.01 655.957L1213.02 655.954Z" fill="#BDC696"/>
<path fill-rule="evenodd" clip-rule="evenodd" d="M813.044 1112.73C814.529 1113.91 832.092 1017.96 828.513 954.814C828.534 948.225 791.153 948.431 755.52 957.726C719.877 967.019 677.7 995.104 679.368 1001.3C681.037 1007.49 792.613 1096.54 813.044 1112.73Z" fill="#345145"/>
<path fill-rule="evenodd" clip-rule="evenodd" d="M731.55 1187.93C732.74 1186.46 636.948 1168.05 573.773 1171.07C567.185 1170.99 567.059 1208.37 576.038 1244.08C585.015 1279.81 612.725 1322.23 618.932 1320.62C625.138 1319 715.171 1208.22 731.55 1187.93Z" fill="#345145"/>
<path fill-rule="evenodd" clip-rule="evenodd" d="M935.758 1212.3C935.097 1214.08 1031.78 1201.14 1090.73 1178.22C1097 1176.2 1085.26 1140.72 1065.41 1109.7C1045.56 1078.67 1005.81 1047.24 1000.44 1050.74C995.065 1054.24 944.85 1187.87 935.758 1212.3Z" fill="#345145"/>
<path fill-rule="evenodd" clip-rule="evenodd" d="M835.407 1304.64C833.866 1303.53 821.01 1400.23 827.667 1463.12C827.968 1469.7 865.295 1467.67 900.431 1456.65C935.578 1445.63 976.333 1415.52 974.365 1409.41C972.396 1403.31 856.604 1319.82 835.407 1304.64Z" fill="#345145"/>
<path fill-rule="evenodd" clip-rule="evenodd" d="M1042.99 1363.92C1070.67 1330.67 1085.55 1271.08 1081.19 1270.23C1075.64 1269.15 1017.24 1281.14 1000.07 1286.95C993.949 1289.01 1036.13 1372.15 1042.99 1363.91L1042.99 1363.92Z" fill="#BDC696"/>
<path fill-rule="evenodd" clip-rule="evenodd" d="M655.766 1427.34C699.018 1426.48 753.795 1398.7 751.581 1394.84C748.759 1389.94 701.452 1353.67 685.815 1344.49C680.246 1341.22 645.052 1427.55 655.769 1427.34L655.766 1427.34Z" fill="#BDC696"/>
<path fill-rule="evenodd" clip-rule="evenodd" d="M914.313 991.65C955.706 979.075 1000.87 937.455 997.697 934.347C993.648 930.393 938.267 908.337 920.725 903.752C914.478 902.119 904.059 994.762 914.314 991.645L914.313 991.65Z" fill="#BDC696"/>
<path fill-rule="evenodd" clip-rule="evenodd" d="M785.282 1172.59C783.536 1215.82 807.976 1272.17 811.957 1270.19C817.022 1267.67 856.073 1222.63 866.175 1207.57C869.773 1202.21 785.717 1161.89 785.286 1172.6L785.282 1172.59Z" fill="#BDC696"/>
<path fill-rule="evenodd" clip-rule="evenodd" d="M562.708 1056.46C596.332 1083.68 656.121 1097.74 656.913 1093.36C657.916 1087.79 645.121 1029.57 639.08 1012.48C636.929 1006.39 554.381 1049.71 562.713 1056.46L562.708 1056.46Z" fill="#BDC696"/>
</g>
</g>
<defs>
<clipPath id="clip0_531_26591">
<rect width="2065.03" height="2558" fill="white"/>
</clipPath>
</defs>
</svg>
