<svg width="40" height="40" viewBox="0 0 40 40" fill="none" xmlns="http://www.w3.org/2000/svg">
<path opacity="0.4" d="M10.625 35H29.375C33.125 35 35 33.125 35 29.375V10.625C35 6.875 33.125 5 29.375 5H10.625C6.875 5 5 6.875 5 10.625V29.375C5 33.125 6.875 35 10.625 35Z" fill="#415C51"/>
<path d="M27.7003 18.7266C27.5986 18.5016 27.3769 18.355 27.1286 18.355H22.6619V10.8333C22.6619 10.575 22.502 10.3433 22.262 10.25C22.0186 10.1566 21.7452 10.2233 21.5736 10.415L12.4069 20.6C12.2402 20.7833 12.2003 21.0467 12.3003 21.2717C12.402 21.4967 12.6237 21.6433 12.872 21.6433H17.3387V29.1667C17.3387 29.425 17.4986 29.6567 17.7386 29.75C17.812 29.7783 17.8887 29.7917 17.9637 29.7917C18.137 29.7917 18.307 29.72 18.427 29.585L27.5937 19.4C27.7587 19.2167 27.8003 18.9533 27.7003 18.7266Z" fill="#415C51"/>
</svg>
