<svg width="40" height="40" viewBox="0 0 40 40" fill="none" xmlns="http://www.w3.org/2000/svg">
<path opacity="0.4" d="M10.625 35H29.375C33.125 35 35 33.125 35 29.375V10.625C35 6.875 33.125 5 29.375 5H10.625C6.875 5 5 6.875 5 10.625V29.375C5 33.125 6.875 35 10.625 35Z" fill="#345145"/>
<path d="M27.7 18.7266C27.5983 18.5016 27.3766 18.355 27.1283 18.355H22.6616V10.8333C22.6616 10.575 22.5017 10.3433 22.2617 10.25C22.0183 10.1566 21.7449 10.2233 21.5733 10.415L12.4066 20.6C12.2399 20.7833 12.2 21.0467 12.3 21.2717C12.4017 21.4967 12.6234 21.6433 12.8717 21.6433H17.3384V29.1667C17.3384 29.425 17.4983 29.6567 17.7383 29.75C17.8117 29.7783 17.8884 29.7917 17.9634 29.7917C18.1367 29.7917 18.3067 29.72 18.4267 29.585L27.5934 19.4C27.7584 19.2167 27.8 18.9533 27.7 18.7266Z" fill="#345145"/>
</svg>
