<svg width="41" height="40" viewBox="0 0 41 40" fill="none" xmlns="http://www.w3.org/2000/svg">
<path opacity="0.4" d="M35.3335 19.9166V30C35.3335 33.3333 33.6668 35 30.3335 35H10.3335C7.00016 35 5.3335 33.3333 5.3335 30V19.8999C5.8335 20.4832 6.46682 20.9333 7.21682 21.2333C9.05016 21.95 11.5668 22.8001 14.5002 23.4001C15.1835 23.5334 15.8502 23.1999 16.2335 22.6333C17.1335 21.2833 18.6335 20.3001 20.3335 20.3001C22.0335 20.3001 23.5335 21.2833 24.4335 22.6333C24.8335 23.1999 25.5002 23.5334 26.1835 23.4001C29.1168 22.8001 31.6335 21.95 33.4502 21.2333C34.1835 20.9333 34.8335 20.4833 35.3335 19.9166Z" fill="#415C51"/>
<path d="M35.3335 15V19.9166C34.8335 20.4833 34.1835 20.9333 33.4502 21.2333C31.6335 21.95 29.1168 22.8001 26.1835 23.4001C25.5002 23.5334 24.8335 23.1999 24.4335 22.6333C23.5335 21.2833 22.0335 20.3001 20.3335 20.3001C18.6335 20.3001 17.1335 21.2833 16.2335 22.6333C15.8502 23.1999 15.1835 23.5334 14.5002 23.4001C11.5668 22.8001 9.05016 21.95 7.21682 21.2333C6.46682 20.9333 5.8335 20.4832 5.3335 19.8999V15C5.3335 11.6667 7.00016 10 10.3335 10H30.3335C33.6668 10 35.3335 11.6667 35.3335 15Z" fill="#415C51"/>
<path opacity="0.4" d="M28.2503 7.5V10H25.7503V7.5C25.7503 7.26667 25.567 7.08333 25.3337 7.08333H15.3337C15.1003 7.08333 14.917 7.26667 14.917 7.5V10H12.417V7.5C12.417 5.9 13.717 4.58333 15.3337 4.58333H25.3337C26.9337 4.58333 28.2503 5.9 28.2503 7.5Z" fill="#415C51"/>
<path d="M20.337 26.6667C19.4187 26.6667 18.667 25.92 18.667 25C18.667 24.08 19.4053 23.3333 20.3237 23.3333H20.337C21.2553 23.3333 22.0003 24.08 22.0003 25C22.0003 25.92 21.2553 26.6667 20.337 26.6667Z" fill="#415C51"/>
</svg>
