<svg width="41" height="40" viewBox="0 0 41 40" fill="none" xmlns="http://www.w3.org/2000/svg">
<path opacity="0.4" d="M35.3333 19.9166V30C35.3333 33.3333 33.6667 35 30.3333 35H10.3333C7.00001 35 5.33334 33.3333 5.33334 30V19.8999C5.83334 20.4832 6.46667 20.9333 7.21667 21.2333C9.05001 21.95 11.5667 22.8001 14.5 23.4001C15.1833 23.5334 15.85 23.1999 16.2333 22.6333C17.1333 21.2833 18.6333 20.3001 20.3333 20.3001C22.0333 20.3001 23.5334 21.2833 24.4334 22.6333C24.8334 23.1999 25.5 23.5334 26.1833 23.4001C29.1167 22.8001 31.6333 21.95 33.45 21.2333C34.1833 20.9333 34.8333 20.4833 35.3333 19.9166Z" fill="#345145"/>
<path d="M35.3333 15V19.9166C34.8333 20.4833 34.1833 20.9333 33.45 21.2333C31.6333 21.95 29.1167 22.8001 26.1833 23.4001C25.5 23.5334 24.8334 23.1999 24.4334 22.6333C23.5334 21.2833 22.0333 20.3001 20.3333 20.3001C18.6333 20.3001 17.1333 21.2833 16.2333 22.6333C15.85 23.1999 15.1833 23.5334 14.5 23.4001C11.5667 22.8001 9.05001 21.95 7.21667 21.2333C6.46667 20.9333 5.83334 20.4832 5.33334 19.8999V15C5.33334 11.6667 7.00001 10 10.3333 10H30.3333C33.6667 10 35.3333 11.6667 35.3333 15Z" fill="#345145"/>
<path opacity="0.4" d="M28.25 7.5V10H25.75V7.5C25.75 7.26667 25.5667 7.08333 25.3333 7.08333H15.3333C15.1 7.08333 14.9167 7.26667 14.9167 7.5V10H12.4167V7.5C12.4167 5.9 13.7167 4.58333 15.3333 4.58333H25.3333C26.9333 4.58333 28.25 5.9 28.25 7.5Z" fill="#345145"/>
<path d="M20.3367 26.6667C19.4183 26.6667 18.6667 25.92 18.6667 25C18.6667 24.08 19.405 23.3333 20.3233 23.3333H20.3367C21.255 23.3333 22 24.08 22 25C22 25.92 21.255 26.6667 20.3367 26.6667Z" fill="#345145"/>
</svg>
