<svg width="41" height="40" viewBox="0 0 41 40" fill="none" xmlns="http://www.w3.org/2000/svg">
<path opacity="0.4" d="M5.66963 19.9984C5.66963 22.2317 6.16976 24.365 7.05309 26.265C7.40309 26.9983 7.40319 27.8484 7.15319 28.6317L5.75305 32.7984C5.31971 34.0984 6.56975 35.3483 7.86975 34.915L12.0364 33.515C12.8197 33.265 13.6696 33.265 14.4029 33.615C16.3029 34.4984 18.4363 34.9984 20.6696 34.9984C28.953 34.9984 35.668 28.2833 35.668 20C35.668 11.7167 28.953 5.00163 20.6696 5.00163C12.3846 4.99997 5.66963 11.715 5.66963 19.9984Z" fill="#415C51"/>
<path d="M21.4231 13.8017L22.9515 16.8734C23.0665 17.105 23.2881 17.2649 23.5447 17.3016L27.073 17.8099C27.7196 17.9033 27.9779 18.6933 27.5096 19.1466L24.9595 21.6133C24.7729 21.7933 24.6879 22.0533 24.7329 22.3083L25.3164 25.6833C25.4347 26.3683 24.7128 26.8899 24.0928 26.5683L21.0329 24.9716C20.8029 24.8516 20.5297 24.8516 20.2997 24.9716L17.2431 26.5667C16.6231 26.89 15.8995 26.3667 16.0179 25.68L16.6014 22.3066C16.6447 22.0516 16.5597 21.7916 16.3747 21.6116L13.8247 19.145C13.3563 18.6916 13.6146 17.9016 14.2613 17.8083L17.7895 17.3C18.0462 17.2633 18.2678 17.1033 18.3828 16.8716L19.9115 13.8C20.2198 13.1767 21.1131 13.1767 21.4231 13.8017Z" fill="#415C51"/>
</svg>
