<svg width="41" height="40" viewBox="0 0 41 40" fill="none" xmlns="http://www.w3.org/2000/svg">
<path opacity="0.4" d="M5.66992 19.9984C5.66992 22.2317 6.17005 24.365 7.05338 26.265C7.40338 26.9983 7.40348 27.8484 7.15348 28.6317L5.75334 32.7984C5.32 34.0984 6.57004 35.3483 7.87004 34.915L12.0367 33.515C12.82 33.265 13.6699 33.265 14.4032 33.615C16.3032 34.4984 18.4366 34.9984 20.6699 34.9984C28.9533 34.9984 35.6683 28.2833 35.6683 20C35.6683 11.7167 28.9533 5.00163 20.6699 5.00163C12.3849 4.99997 5.66992 11.715 5.66992 19.9984Z" fill="#345145"/>
<path d="M21.4234 13.8017L22.9518 16.8734C23.0668 17.105 23.2884 17.2649 23.545 17.3016L27.0733 17.8099C27.7199 17.9033 27.9782 18.6933 27.5099 19.1466L24.9598 21.6133C24.7731 21.7933 24.6882 22.0533 24.7332 22.3083L25.3167 25.6833C25.435 26.3683 24.7131 26.8899 24.0931 26.5683L21.0332 24.9716C20.8032 24.8516 20.53 24.8516 20.3 24.9716L17.2433 26.5667C16.6233 26.89 15.8998 26.3667 16.0182 25.68L16.6017 22.3066C16.645 22.0516 16.56 21.7916 16.375 21.6116L13.825 19.145C13.3566 18.6916 13.6149 17.9016 14.2616 17.8083L17.7898 17.3C18.0465 17.2633 18.2681 17.1033 18.3831 16.8716L19.9118 13.8C20.2201 13.1767 21.1134 13.1767 21.4234 13.8017Z" fill="#345145"/>
</svg>
