<svg width="41" height="40" viewBox="0 0 41 40" fill="none" xmlns="http://www.w3.org/2000/svg">
<path opacity="0.4" d="M33.6667 6.25V21.6667C33.6667 25.4833 31.65 27.5 27.8333 27.5H12.8333C9.01667 27.5 7 25.4833 7 21.6667V6.25H33.6667Z" fill="#415C51"/>
<path d="M35.3335 6.25H5.3335C4.6435 6.25 4.0835 5.69 4.0835 5C4.0835 4.31 4.6435 3.75 5.3335 3.75H35.3335C36.0235 3.75 36.5835 4.31 36.5835 5C36.5835 5.69 36.0235 6.25 35.3335 6.25Z" fill="#415C51"/>
<path d="M26.3664 35.7001C26.1331 36.0501 25.7331 36.25 25.3331 36.25C25.0998 36.25 24.8498 36.1833 24.6332 36.0333L20.3331 33.1667L16.0331 36.0333C15.4498 36.4167 14.6831 36.2667 14.2998 35.7001C13.9165 35.1167 14.0665 34.35 14.6332 33.9667L19.0831 31V27.5H21.5831V31L26.0331 33.9667C26.5998 34.35 26.7498 35.1167 26.3664 35.7001Z" fill="#415C51"/>
<path d="M20.2987 12.1367L24.0304 15.8684L17.3653 22.5001H13.667V18.8018L20.2987 12.1367ZM26.5636 11.2533L24.9136 9.60335C24.3303 9.02001 23.397 9.02001 22.8136 9.60335L21.4636 10.9701L25.1953 14.7018L26.562 13.3517C27.1453 12.7701 27.1453 11.8367 26.5636 11.2533Z" fill="#415C51"/>
</svg>
