<svg width="41" height="40" viewBox="0 0 41 40" fill="none" xmlns="http://www.w3.org/2000/svg">
<path opacity="0.4" d="M33.6667 6.25V21.6667C33.6667 25.4833 31.65 27.5 27.8333 27.5H12.8333C9.01668 27.5 7.00002 25.4833 7.00002 21.6667V6.25H33.6667Z" fill="#345145"/>
<path d="M35.3333 6.25H5.33334C4.64334 6.25 4.08334 5.69 4.08334 5C4.08334 4.31 4.64334 3.75 5.33334 3.75H35.3333C36.0233 3.75 36.5833 4.31 36.5833 5C36.5833 5.69 36.0233 6.25 35.3333 6.25Z" fill="#345145"/>
<path d="M26.3667 35.7001C26.1333 36.0501 25.7333 36.25 25.3333 36.25C25.1 36.25 24.85 36.1833 24.6334 36.0333L20.3333 33.1667L16.0333 36.0333C15.45 36.4167 14.6833 36.2667 14.3 35.7001C13.9167 35.1167 14.0667 34.35 14.6334 33.9667L19.0833 31V27.5H21.5833V31L26.0333 33.9667C26.6 34.35 26.75 35.1167 26.3667 35.7001Z" fill="#345145"/>
<path d="M20.2983 12.1367L24.03 15.8684L17.365 22.5001H13.6667V18.8018L20.2983 12.1367ZM26.5633 11.2533L24.9133 9.60335C24.33 9.02001 23.3966 9.02001 22.8133 9.60335L21.4633 10.9701L25.195 14.7018L26.5617 13.3517C27.145 12.7701 27.145 11.8367 26.5633 11.2533Z" fill="#345145"/>
</svg>
