<svg width="40" height="40" viewBox="0 0 40 40" fill="none" xmlns="http://www.w3.org/2000/svg">
<path opacity="0.4" d="M34.1668 20H31.6668C29.8252 20 28.3335 21.4917 28.3335 23.3333C28.3335 25.175 29.8252 26.6667 31.6668 26.6667H34.1668C34.6268 26.6667 35.0002 27.04 35.0002 27.5V31.6667C35.0002 33.5083 33.5085 35 31.6668 35H25.8335C25.3735 35 25.0002 34.6267 25.0002 34.1667V31.6667C25.0002 29.825 23.5085 28.3333 21.6668 28.3333C19.8252 28.3333 18.3335 29.825 18.3335 31.6667V34.1667C18.3335 34.6267 17.9602 35 17.5002 35H13.3335C11.4918 35 10.0002 33.5083 10.0002 31.6667V27.5C10.0002 27.04 9.62683 26.6667 9.16683 26.6667H6.66683C4.82516 26.6667 3.3335 25.175 3.3335 23.3333C3.3335 21.4917 4.82516 20 6.66683 20H9.16683C9.62683 20 10.0002 19.6267 10.0002 19.1667V15C10.0002 13.1583 11.4918 11.6667 13.3335 11.6667H17.5002C17.9602 11.6667 18.3335 11.2933 18.3335 10.8333V8.33333C18.3335 6.49167 19.8252 5 21.6668 5C23.5085 5 25.0002 6.49167 25.0002 8.33333V10.8333C25.0002 11.2933 25.3735 11.6667 25.8335 11.6667H31.6668C33.5085 11.6667 35.0002 13.1583 35.0002 15V19.1667C35.0002 19.6267 34.6268 20 34.1668 20Z" fill="#415C51"/>
</svg>
