<svg width="40" height="40" viewBox="0 0 40 40" fill="none" xmlns="http://www.w3.org/2000/svg">
<path opacity="0.4" d="M34.1666 20H31.6666C29.825 20 28.3333 21.4917 28.3333 23.3333C28.3333 25.175 29.825 26.6667 31.6666 26.6667H34.1666C34.6266 26.6667 35 27.04 35 27.5V31.6667C35 33.5083 33.5083 35 31.6666 35H25.8333C25.3733 35 25 34.6267 25 34.1667V31.6667C25 29.825 23.5083 28.3333 21.6666 28.3333C19.825 28.3333 18.3333 29.825 18.3333 31.6667V34.1667C18.3333 34.6267 17.96 35 17.5 35H13.3333C11.4916 35 9.99998 33.5083 9.99998 31.6667V27.5C9.99998 27.04 9.62665 26.6667 9.16665 26.6667H6.66665C4.82498 26.6667 3.33331 25.175 3.33331 23.3333C3.33331 21.4917 4.82498 20 6.66665 20H9.16665C9.62665 20 9.99998 19.6267 9.99998 19.1667V15C9.99998 13.1583 11.4916 11.6667 13.3333 11.6667H17.5C17.96 11.6667 18.3333 11.2933 18.3333 10.8333V8.33333C18.3333 6.49167 19.825 5 21.6666 5C23.5083 5 25 6.49167 25 8.33333V10.8333C25 11.2933 25.3733 11.6667 25.8333 11.6667H31.6666C33.5083 11.6667 35 13.1583 35 15V19.1667C35 19.6267 34.6266 20 34.1666 20Z" fill="#345145"/>
</svg>
