<svg width="41" height="40" viewBox="0 0 41 40" fill="none" xmlns="http://www.w3.org/2000/svg">
<g opacity="0.4">
<path d="M31.75 20.75C27.1833 25.3167 23.7333 26.55 17.7 28.15C17.4167 28.2333 17.1 28.15 16.8833 27.9333L12.6833 23.7333C12.4666 23.5167 12.3833 23.1833 12.4833 22.9C14.25 17.05 15.4666 13.6 20.0333 9.03333C25.05 4.01667 32.5667 4.95 34.6333 5.31667C34.9667 5.38333 35.2333 5.63334 35.3 5.96667C35.7167 8.05001 36.7833 15.7333 31.7667 20.75H31.75Z" fill="#345145"/>
</g>
<path d="M12.6333 28.0333C13.8833 29.2833 13.7666 31.4167 12.3833 32.8C11.1166 34.0667 6.29994 35.2667 5.7666 35.4C5.73327 35.4 5.69994 35.4 5.66661 35.4C5.54994 35.4 5.44995 35.35 5.36662 35.2833C5.26662 35.1833 5.21663 35.0333 5.26663 34.8833C5.41663 34.3167 6.7833 29.3 8.0333 28.0333C8.6833 27.3833 9.53325 27.0167 10.3833 27.05C11.1999 27.0667 12 27.4167 12.6166 28.0333H12.6333ZM25.2666 25.5667C25.2666 25.5667 15.1999 15.5 15.1833 15.5C15.8999 14.1167 16.7499 12.8 17.8499 11.4333C17.7499 11.3667 17.6333 11.3333 17.5166 11.3667L13.5666 12.2C10.5666 12.6833 7.99996 14.75 6.88329 17.5667L5.28326 21.55C5.21659 21.6833 5.24994 21.85 5.34994 21.9667C5.43327 22.0667 5.54994 22.1167 5.66661 22.1167C5.69994 22.1167 5.73326 22.1167 5.74992 22.1L13.2499 20.4333C13.6333 19.2333 14.0166 18.15 14.4499 17.1167L23.6333 26.2833C22.5833 26.7 21.4833 27.0667 20.2666 27.4333L18.6 34.9167C18.5666 35.0667 18.6166 35.2167 18.7333 35.3167C18.7999 35.3833 18.8999 35.4167 18.9999 35.4167C19.0499 35.4167 19.0999 35.4 19.1499 35.3833L23.1333 33.7833C25.9666 32.6667 28.0333 30.1167 28.5 27.1333L29.3166 23.35C29.3499 23.2333 29.3166 23.1167 29.2499 23.0167C27.9166 24.0833 26.6333 24.9 25.2666 25.5667V25.5667ZM26.0833 18.3667C28.1499 18.3667 29.8333 16.6833 29.8333 14.6333C29.8333 12.5833 28.1499 10.9 26.0833 10.9C24.0166 10.9 22.3333 12.5833 22.3333 14.6333C22.3333 16.6833 24.0166 18.3667 26.0833 18.3667Z" fill="#345145"/>
</svg>
