<svg width="41" height="40" viewBox="0 0 41 40" fill="none" xmlns="http://www.w3.org/2000/svg">
<g opacity="0.4">
<path d="M31.7501 20.75C27.1834 25.3167 23.7334 26.55 17.7001 28.15C17.4167 28.2333 17.1001 28.15 16.8834 27.9333L12.6834 23.7333C12.4667 23.5167 12.3834 23.1833 12.4834 22.9C14.2501 17.05 15.4667 13.6 20.0334 9.03333C25.0501 4.01667 32.5667 4.95 34.6334 5.31667C34.9667 5.38333 35.2334 5.63334 35.3001 5.96667C35.7167 8.05001 36.7834 15.7333 31.7667 20.75H31.7501Z" fill="#415C51"/>
</g>
<path d="M12.6328 28.0333C13.8828 29.2833 13.7662 31.4167 12.3828 32.8C11.1162 34.0667 6.29951 35.2667 5.76618 35.4C5.73284 35.4 5.69952 35.4 5.66618 35.4C5.54952 35.4 5.44953 35.35 5.36619 35.2833C5.26619 35.1833 5.2162 35.0333 5.2662 34.8833C5.4162 34.3167 6.78287 29.3 8.03287 28.0333C8.68287 27.3833 9.53283 27.0167 10.3828 27.05C11.1995 27.0667 11.9995 27.4167 12.6162 28.0333H12.6328ZM25.2662 25.5667C25.2662 25.5667 15.1995 15.5 15.1828 15.5C15.8995 14.1167 16.7495 12.8 17.8495 11.4333C17.7495 11.3667 17.6328 11.3333 17.5162 11.3667L13.5662 12.2C10.5662 12.6833 7.99953 14.75 6.88287 17.5667L5.28283 21.55C5.21616 21.6833 5.24951 21.85 5.34951 21.9667C5.43284 22.0667 5.54952 22.1167 5.66618 22.1167C5.69952 22.1167 5.73283 22.1167 5.74949 22.1L13.2495 20.4333C13.6328 19.2333 14.0162 18.15 14.4495 17.1167L23.6328 26.2833C22.5828 26.7 21.4829 27.0667 20.2662 27.4333L18.5995 34.9167C18.5662 35.0667 18.6162 35.2167 18.7328 35.3167C18.7995 35.3833 18.8995 35.4167 18.9995 35.4167C19.0495 35.4167 19.0995 35.4 19.1495 35.3833L23.1329 33.7833C25.9662 32.6667 28.0329 30.1167 28.4995 27.1333L29.3162 23.35C29.3495 23.2333 29.3162 23.1167 29.2495 23.0167C27.9162 24.0833 26.6329 24.9 25.2662 25.5667V25.5667ZM26.0828 18.3667C28.1495 18.3667 29.8328 16.6833 29.8328 14.6333C29.8328 12.5833 28.1495 10.9 26.0828 10.9C24.0162 10.9 22.3328 12.5833 22.3328 14.6333C22.3328 16.6833 24.0162 18.3667 26.0828 18.3667Z" fill="#415C51"/>
</svg>
